<svg width="488" height="746" viewBox="0 0 488 746" fill="none" xmlns="http://www.w3.org/2000/svg">
<g clip-path="url(#clip0_4586_7891)">
<path d="M487.31 0H0V746H487.31V0Z" fill="#994365"/>
<path d="M196.17 101.156H275.16V124.576H223.95V142.506H274.03V166.096H223.95V185.476H275.16V208.896H196.17V101.156Z" fill="white"/>
<path d="M347.04 185.806C353.66 185.806 357.7 181.766 357.7 175.956C357.7 170.466 353.82 165.776 347.04 165.776H319.09V185.806H347.04ZM346.07 142.836C351.72 142.836 355.6 138.796 355.6 133.466C355.6 128.136 351.72 124.256 346.07 124.256H319.09V142.836H346.07ZM291.31 101.156H352.37C373.69 101.156 383.87 115.046 383.87 128.616C383.87 142.186 375.63 151.066 365.45 153.336C376.92 155.116 385.97 166.096 385.97 179.666C385.97 195.336 375.47 208.906 354.31 208.906H291.31V101.156Z" fill="white"/>
<path d="M125.09 125.386H94.88V101.156H182.92V125.386H152.87V208.906H125.09V125.386Z" fill="white"/>
<path d="M170.5 581.606L167.9 584.716V594.976H160.8V561.596H167.9V576.506L179.71 561.596H188.47L175.21 577.256L189.36 594.976H180.61L170.5 581.606Z" fill="white"/>
<path d="M192.62 561.596H199.82V581.416C199.82 586.066 202.37 589.266 207.57 589.266C212.77 589.266 215.23 586.066 215.23 581.416V561.596H222.44V581.606C222.44 589.916 217.69 595.566 207.58 595.566C197.47 595.566 192.62 589.856 192.62 581.656V561.596Z" fill="white"/>
<path d="M243.61 567.696H236.15V576.906H243.61C246.46 576.906 248.62 575.106 248.62 572.306C248.62 569.506 246.46 567.696 243.61 567.696ZM241.36 583.016H236.15V594.976H229.05V561.596H244.66C251.61 561.596 255.87 566.146 255.87 572.356C255.87 578.566 252.17 581.416 248.57 582.266L256.07 594.976H247.91L241.36 583.016Z" fill="white"/>
<path d="M262.82 584.866C265.17 587.316 268.82 589.366 273.43 589.366C277.33 589.366 279.23 587.516 279.23 585.616C279.23 583.116 276.33 582.266 272.48 581.366C267.02 580.116 260.02 578.616 260.02 571.156C260.02 565.606 264.83 561.096 272.68 561.096C277.99 561.096 282.39 562.696 285.69 565.746L281.74 570.946C279.04 568.446 275.43 567.296 272.18 567.296C268.93 567.296 267.28 568.696 267.28 570.696C267.28 572.946 270.08 573.646 273.94 574.546C279.44 575.796 286.45 577.446 286.45 584.856C286.45 590.966 282.1 595.566 273.09 595.566C266.69 595.566 262.08 593.416 258.93 590.266L262.83 584.866H262.82Z" fill="white"/>
<path d="M300.2 581.306L287.34 561.596H295.44L303.75 575.006L311.96 561.596H320.06L307.3 581.306V594.966H300.2V581.306Z" fill="white"/>
<path d="M224.51 467.446L128.45 371.386V290.906L224.51 386.966V467.446ZM118.36 232.096H94V385.666L240.44 532.106L386.87 385.666V232.096H198.84L345.28 378.526L257.45 466.356V371.176L118.36 232.096ZM352.41 336.936L282.02 266.546H352.41V336.936Z" fill="white"/>
</g>
<defs>
<clipPath id="clip0_4586_7891">
<rect width="487.31" height="746" fill="white"/>
</clipPath>
</defs>
</svg>
