<svg width="488" height="746" viewBox="0 0 488 746" fill="none" xmlns="http://www.w3.org/2000/svg">
<rect width="487.31" height="746" fill="#009489"/>
<path d="M130.87 123.088H100.186V98.4768H189.612V123.088H159.092V207.919H130.87V123.088Z" fill="white"/>
<path d="M203.062 98.4766H283.299V122.269H231.285V140.482H282.151V164.438H231.285V184.128H283.299V207.919H203.062V98.4766Z" fill="white"/>
<path d="M356.314 184.456C363.042 184.456 367.143 180.354 367.143 174.447C367.143 168.868 363.207 164.11 356.314 164.11H327.928V184.456H356.314ZM355.329 140.81C361.072 140.81 365.009 136.708 365.009 131.293C365.009 125.878 361.072 121.941 355.329 121.941H327.928V140.81H355.329ZM299.706 98.4771H361.729C383.388 98.4771 393.724 112.587 393.724 126.37C393.724 139.989 385.358 149.178 375.021 151.477C386.669 153.28 395.859 164.437 395.859 178.22C395.859 194.137 385.194 207.92 363.698 207.92H299.706V98.4771Z" fill="white"/>
<path d="M102.904 584.665C105.337 587.202 109.118 589.325 113.881 589.325C117.92 589.325 119.886 587.409 119.886 585.441C119.886 582.853 116.884 581.973 112.897 581.041C107.253 579.746 100.004 578.194 100.004 570.479C100.004 564.731 104.976 560.071 113.104 560.071C118.593 560.071 123.15 561.729 126.565 564.886L122.475 570.271C119.68 567.682 115.952 566.491 112.587 566.491C109.273 566.491 107.513 567.94 107.513 570.012C107.513 572.342 110.411 573.068 114.399 574C120.094 575.294 127.344 577.002 127.344 584.665C127.344 590.983 122.838 595.746 113.518 595.746C106.891 595.746 102.128 593.518 98.8657 590.257L102.904 584.665Z" fill="white"/>
<path d="M131.066 589.17L147.376 567.06H131.066V560.589H157.006V566.49L140.696 588.652H157.369V595.124H131.066V589.17Z" fill="white"/>
<path d="M173.002 581.299L170.308 584.509V595.125H162.957V560.59H170.308V576.018L182.527 560.59H191.589L177.867 576.795L192.52 595.125H183.46L173.002 581.299Z" fill="white"/>
<path d="M210.171 566.543C203.803 566.543 199.712 571.41 199.712 577.881C199.712 584.302 203.803 589.221 210.171 589.221C216.541 589.221 220.682 584.302 220.682 577.881C220.682 571.41 216.541 566.543 210.171 566.543ZM210.171 560.019C220.631 560.019 228.242 567.475 228.242 577.881C228.242 588.289 220.631 595.746 210.171 595.746C199.764 595.746 192.153 588.289 192.153 577.881C192.153 567.475 199.764 560.019 210.171 560.019Z" fill="white"/>
<path d="M256.092 588.652V595.124H234.138V583.059L230.41 585.183V579.178L234.138 577.054V560.589H241.491V572.808L245.477 570.53V576.535L241.491 578.814V588.652H256.092Z" fill="white"/>
<path d="M264.269 580.989L250.963 560.589H259.352L267.946 574.466L276.438 560.589H284.825L271.623 580.989V595.124H264.269V580.989Z" fill="white"/>
<path d="M131.277 622.04L121.543 646.893H118.334L108.599 622.04V646.893H101.248V612.358H111.55L119.939 633.896L128.327 612.358H138.683V646.893H131.277V622.04Z" fill="white"/>
<path d="M145.511 612.358H169.949V618.676H152.863V626.183H169.586V632.498H152.863V640.524H169.949V646.893H145.511V612.358Z" fill="white"/>
<path d="M189.308 640.422C196.143 640.422 200.128 635.503 200.128 629.652C200.128 623.541 196.401 618.83 189.308 618.83H183.042V640.422H189.308ZM175.691 612.358H189.308C200.128 612.358 207.636 619.244 207.636 629.652C207.636 640.058 200.128 646.893 189.308 646.893H175.691V612.358Z" fill="white"/>
<path d="M220.42 632.758L207.114 612.358H215.503L224.097 626.235L232.589 612.358H240.976L227.774 632.758V646.893H220.42V632.758Z" fill="white"/>
<path d="M240.454 629.651C240.454 619.038 248.48 611.788 258.576 611.788C266.445 611.788 270.847 615.931 273.281 620.228L266.963 623.335C265.514 620.539 262.409 618.313 258.576 618.313C252.571 618.313 248.014 623.128 248.014 629.651C248.014 636.176 252.571 640.99 258.576 640.99C262.409 640.99 265.514 638.817 266.963 635.969L273.281 639.024C270.796 643.321 266.445 647.516 258.576 647.516C248.48 647.516 240.454 640.266 240.454 629.651Z" fill="white"/>
<path d="M276.434 640.94L292.744 618.83H276.434V612.358H302.374V618.26L286.064 640.422H302.737V646.893H276.434V640.94Z" fill="white"/>
<path d="M315.676 623.697V646.894H308.324V612.359H315.884L331.883 634.726V612.359H339.234V646.894H332.141L315.676 623.697Z" fill="white"/>
<path d="M346.064 612.358H370.503V618.676H353.416V626.183H370.14V632.498H353.416V640.524H370.503V646.893H346.064V612.358Z" fill="white"/>
<path d="M135.002 370.202V288.971L223.437 377.404L182.821 418.019L135.002 370.202ZM248.028 229.605V264.38H361.052V370.202L248.028 483.224L207.412 442.609L272.617 377.404L124.816 229.604H100.226V384.606L158.229 442.609L91.4492 509.39L116.039 533.981L182.821 467.2L248.028 532.405L395.827 384.606V229.605H248.028Z" fill="white"/>
</svg>
