<svg width="981" height="481" viewBox="0 0 981 481" fill="none" xmlns="http://www.w3.org/2000/svg">
<g clip-path="url(#clip0_4587_10461)">
<path d="M456.529 82.0866V116.458H499.387V234.957H538.804V116.458H581.433V82.0866H456.529Z" fill="#B0358B"/>
<path d="M600.224 82.0866V234.957H712.284V201.715H639.642V174.208H710.696V140.754H639.642V115.311H712.284V82.0866H600.224Z" fill="#B0358B"/>
<path d="M456.37 81.6102V116.07H499.334V234.834H538.84V116.07H581.574V81.6102H456.37Z" fill="#B0358B"/>
<path d="M600.418 81.6102V234.834H712.76V201.521H639.924V173.961H711.137V140.419H639.924V114.905H712.76V81.6102H600.418Z" fill="#B0358B"/>
<path d="M735.733 81.5926H822.578C852.909 81.5926 867.377 101.354 867.377 120.64C867.377 139.925 855.662 152.576 841.193 155.787C857.497 158.31 870.377 173.943 870.377 193.228C870.377 215.513 855.45 234.816 825.349 234.816H735.751V81.5749H735.733V81.5926ZM813.615 140.878C821.661 140.878 827.166 135.126 827.166 127.556C827.166 119.987 821.661 114.464 813.615 114.464H775.256V140.878H813.615ZM814.991 201.98C824.413 201.98 830.148 196.246 830.148 187.97C830.148 180.154 824.643 173.502 814.991 173.502H775.239V201.98H814.991Z" fill="#B0358B"/>
<path d="M456.37 324.838H482.978V316.88H465.28V282.368H456.37V324.838ZM489.206 324.838H498.116V282.368H489.206V324.838ZM526.347 325.596C535.893 325.596 541.151 320.444 544.168 315.151L536.511 311.393C534.746 314.886 530.988 317.568 526.347 317.568C519.06 317.568 513.538 311.64 513.538 303.629C513.538 295.619 519.06 289.69 526.347 289.69C530.988 289.69 534.746 292.425 536.511 295.866L544.168 292.037C541.222 286.743 535.875 281.662 526.347 281.662C514.102 281.662 504.38 290.572 504.38 303.629C504.38 316.686 514.102 325.596 526.347 325.596ZM549.514 324.838H579.139V317.003H558.425V307.14H578.698V299.377H558.425V290.149H579.139V282.385H549.514V324.855V324.838ZM586.109 307.899C586.109 318.344 592.073 325.596 604.882 325.596C617.692 325.596 623.532 318.397 623.532 307.828V282.368H614.499V307.581C614.499 313.51 611.305 317.586 604.9 317.586C598.495 317.586 595.178 313.51 595.178 307.581V282.368H586.144V307.899H586.109ZM668.19 324.838H677.171V282.368H664.608L654.445 308.852L644.282 282.368H631.79V324.838H640.7V294.278L652.504 324.838H656.386L668.19 294.278V324.838Z" fill="#B0358B"/>
<path d="M456.37 346.134H476.502C485.854 346.134 490.953 352.363 490.953 359.791C490.953 367.219 485.801 373.324 476.502 373.324H465.545V388.498H456.388V346.134H456.37ZM475.267 353.88H465.527V365.561H475.267C478.884 365.561 481.584 363.267 481.584 359.72C481.584 356.174 478.866 353.88 475.267 353.88Z" fill="#B0358B"/>
<path d="M496.634 346.134H505.792V380.558H523.983V388.498H496.634V346.134Z" fill="#B0358B"/>
<path d="M557.79 381.194H538.557L535.84 388.498H525.783L542.421 346.134H553.908L570.494 388.498H560.489L557.772 381.194H557.79ZM541.01 373.377H555.266L548.173 353.951L541.01 373.377Z" fill="#B0358B"/>
<path d="M576.175 375.671C579.21 378.776 583.921 381.388 589.849 381.388C594.878 381.388 597.331 379.041 597.331 376.624C597.331 373.448 593.59 372.371 588.614 371.225C581.592 369.637 572.558 367.731 572.558 358.274C572.558 351.216 578.751 345.499 588.879 345.499C595.725 345.499 601.389 347.528 605.659 351.41L600.56 358.009C597.084 354.833 592.425 353.369 588.244 353.369C584.062 353.369 581.927 355.151 581.927 357.691C581.927 360.55 585.544 361.432 590.502 362.579C597.595 364.167 606.629 366.267 606.629 375.671C606.629 383.417 601.018 389.257 589.408 389.257C581.151 389.257 575.222 386.522 571.146 382.517L576.175 375.653V375.671Z" fill="#B0358B"/>
<path d="M622.368 354.074H609.788V346.134H644.106V354.074H631.596V388.498H622.368V354.074Z" fill="#B0358B"/>
<path d="M661.979 371.154L645.394 346.134H655.839L666.549 363.161L677.136 346.134H687.581L671.137 371.154V388.498H661.979V371.154Z" fill="#B0358B"/>
<path d="M686.999 367.343C686.999 354.321 697.004 345.429 709.584 345.429C719.394 345.429 724.882 350.51 727.899 355.786L720.029 359.597C718.23 356.174 714.348 353.439 709.584 353.439C702.103 353.439 696.421 359.35 696.421 367.343C696.421 375.336 702.103 381.247 709.584 381.247C714.366 381.247 718.23 378.582 720.029 375.089L727.899 378.829C724.811 384.105 719.377 389.239 709.584 389.239C697.004 389.239 686.999 380.347 686.999 367.325V367.343Z" fill="#B0358B"/>
<path d="M731.833 381.194L752.16 354.074H731.833V346.134H764.158V353.369L743.832 380.558H764.599V388.498H731.833V381.194Z" fill="#B0358B"/>
<path d="M780.744 360.038V388.498H771.586V346.134H781.008L800.946 373.571V346.134H810.104V388.498H801.264L780.744 360.038Z" fill="#B0358B"/>
<path d="M818.608 346.134H849.063V353.88H827.783V363.091H848.621V370.836H827.783V380.682H849.063V388.498H818.608V346.134Z" fill="#B0358B"/>
<path d="M259.018 79.8281V116.705H375.647V228.888L288.625 318.344L288.607 318.309L259.018 348.71L142.389 228.888V142.783L153.24 153.934L178.595 127.856L131.873 79.8281H106.5V244.168L259.018 400.867L411.518 244.168V79.8281H259.018Z" fill="#B0358B"/>
<path d="M298.753 251.296V251.137L298.682 251.208L187.488 136.978L162.115 163.057L273.468 277.462L273.645 277.268L300.747 278.504L298.771 251.437L298.841 251.367L298.753 251.296Z" fill="#B0358B"/>
</g>
<defs>
<clipPath id="clip0_4587_10461">
<rect width="980.8" height="480.7" fill="white"/>
</clipPath>
</defs>
</svg>
