<svg width="488" height="746" viewBox="0 0 488 746" fill="none" xmlns="http://www.w3.org/2000/svg">
<g clip-path="url(#clip0_4586_9090)">
<path d="M487.31 0H0V746H487.31V0Z" fill="#5D686E"/>
<path d="M97.2109 101.156V125.526H127.601V209.546H155.551V125.526H185.771V101.156H97.2109Z" fill="white"/>
<path d="M199.101 101.156V209.546H278.561V185.986H227.051V166.486H277.431V142.756H227.051V124.716H278.561V101.156H199.101Z" fill="white"/>
<path d="M294.821 101.156H356.251C377.701 101.156 387.941 115.136 387.941 128.786C387.941 142.436 379.651 151.376 369.411 153.656C380.951 155.436 390.051 166.496 390.051 180.146C390.051 195.906 379.481 209.556 358.201 209.556H294.821V101.156ZM349.911 143.086C355.601 143.086 359.501 139.026 359.501 133.656C359.501 128.286 355.601 124.396 349.911 124.396H322.771V143.086H349.911ZM350.891 186.316C357.551 186.316 361.611 182.246 361.611 176.406C361.611 170.876 357.711 166.166 350.891 166.166H322.771V186.316H350.891Z" fill="white"/>
<path d="M112.701 584.046C115.111 586.556 118.851 588.656 123.561 588.656C127.561 588.656 129.511 586.756 129.511 584.816C129.511 582.256 126.531 581.376 122.591 580.456C117.011 579.166 109.831 577.636 109.831 569.996C109.831 564.306 114.751 559.696 122.801 559.696C128.241 559.696 132.741 561.336 136.121 564.466L132.071 569.796C129.311 567.236 125.611 566.056 122.281 566.056C118.951 566.056 117.261 567.486 117.261 569.536C117.261 571.836 120.131 572.566 124.081 573.486C129.711 574.766 136.891 576.456 136.891 584.046C136.891 590.296 132.431 595.016 123.211 595.016C116.651 595.016 111.941 592.806 108.711 589.576L112.711 584.046H112.701Z" fill="white"/>
<path d="M140.621 588.496L156.761 566.616H140.621V560.206H166.291V566.056L150.151 587.986H166.651V594.396H140.621V588.496Z" fill="white"/>
<path d="M182.121 580.706L179.461 583.886V594.396H172.181V560.216H179.461V575.476L191.561 560.216H200.521L186.941 576.246L201.451 594.396H192.481L182.121 580.706Z" fill="white"/>
<path d="M218.931 559.646C229.281 559.646 236.821 567.026 236.821 577.326C236.821 587.626 229.291 595.006 218.931 595.006C208.571 595.006 201.101 587.626 201.101 577.326C201.101 567.026 208.631 559.646 218.931 559.646ZM218.931 566.106C212.631 566.106 208.581 570.926 208.581 577.336C208.581 583.746 212.631 588.556 218.931 588.556C225.231 588.556 229.341 583.686 229.341 577.336C229.341 570.986 225.241 566.106 218.931 566.106Z" fill="white"/>
<path d="M390.101 231.026V384.606L243.671 531.036L97.2409 384.606V231.026H121.601L255.851 365.276L231.491 389.646L131.691 289.846V370.326L243.671 482.306L355.651 370.326V265.486H243.671V231.026H390.101Z" fill="white"/>
<path d="M241.991 560.216H249.271V587.986H263.721V594.396H241.991V560.216Z" fill="white"/>
<path d="M268.791 560.216H292.981V566.466H276.061V573.896H292.621V580.146H276.061V588.096H292.981V594.396H268.791V560.216Z" fill="white"/>
<path d="M305.951 571.436V594.396H298.681V560.206H306.161L321.991 582.356V560.206H329.271V594.396H322.251L305.951 571.436Z" fill="white"/>
<path d="M343.331 560.206H336.051V594.386H343.331V560.206Z" fill="white"/>
<path d="M371.871 588.496H356.601L354.441 594.396H346.451L359.671 560.206H368.791L381.961 594.396H374.021L371.871 588.496ZM358.551 582.196H369.881L364.241 566.516L358.551 582.196Z" fill="white"/>
</g>
<defs>
<clipPath id="clip0_4586_9090">
<rect width="487.31" height="746" fill="white"/>
</clipPath>
</defs>
</svg>
