<svg width="487" height="746" viewBox="0 0 487 746" fill="none" xmlns="http://www.w3.org/2000/svg">
<g clip-path="url(#clip0_4586_9927)">
<path d="M124.362 125.768H93.6785V101.157H183.104V125.768H152.584V210.599H124.362V125.768Z" fill="#009489"/>
<path d="M196.554 101.156H276.791V124.948H224.777V143.162H275.643V167.118H224.777V186.808H276.791V210.599H196.554V101.156Z" fill="#009489"/>
<path d="M349.806 187.136C356.534 187.136 360.635 183.034 360.635 177.126C360.635 171.548 356.699 166.79 349.806 166.79H321.42V187.136H349.806ZM348.821 143.49C354.564 143.49 358.502 139.388 358.502 133.973C358.502 128.558 354.564 124.62 348.821 124.62H321.42V143.49H348.821ZM293.198 101.157H355.221C376.88 101.157 387.217 115.267 387.217 129.05C387.217 142.669 378.85 151.858 368.514 154.156C380.162 155.96 389.352 167.117 389.352 180.9C389.352 196.816 378.686 210.599 357.19 210.599H293.198V101.157Z" fill="#009489"/>
<path d="M96.3959 587.345C98.8294 589.882 102.61 592.005 107.373 592.005C111.413 592.005 113.379 590.089 113.379 588.12C113.379 585.533 110.377 584.652 106.389 583.721C100.745 582.426 93.4962 580.873 93.4962 573.158C93.4962 567.411 98.4682 562.751 106.596 562.751C112.085 562.751 116.642 564.409 120.057 567.566L115.967 572.951C113.173 570.362 109.444 569.171 106.079 569.171C102.765 569.171 101.005 570.62 101.005 572.692C101.005 575.022 103.904 575.747 107.891 576.68C113.586 577.973 120.836 579.682 120.836 587.345C120.836 593.662 116.33 598.426 107.011 598.426C100.384 598.426 95.6202 596.198 92.3579 592.937L96.3959 587.345Z" fill="#009489"/>
<path d="M124.558 591.85L140.868 569.74H124.558V563.268H150.499V569.17L134.188 591.332H150.861V597.803H124.558V591.85Z" fill="#009489"/>
<path d="M166.494 583.979L163.8 587.188V597.804H156.449V563.269H163.8V578.698L176.019 563.269H185.081L171.359 579.475L186.012 597.804H176.952L166.494 583.979Z" fill="#009489"/>
<path d="M203.664 569.222C197.296 569.222 193.204 574.089 193.204 580.561C193.204 586.982 197.296 591.901 203.664 591.901C210.033 591.901 214.175 586.982 214.175 580.561C214.175 574.089 210.033 569.222 203.664 569.222ZM203.664 562.699C214.123 562.699 221.734 570.155 221.734 580.561C221.734 590.968 214.123 598.426 203.664 598.426C193.256 598.426 185.645 590.968 185.645 580.561C185.645 570.155 193.256 562.699 203.664 562.699Z" fill="#009489"/>
<path d="M249.584 591.332V597.804H227.63V585.739L223.902 587.863V581.857L227.63 579.733V563.269H234.983V575.488L238.97 573.21V579.215L234.983 581.493V591.332H249.584Z" fill="#009489"/>
<path d="M257.761 583.669L244.456 563.269H252.844L261.438 577.146L269.93 563.269H278.317L265.115 583.669V597.804H257.761V583.669Z" fill="#009489"/>
<path d="M124.77 624.72L115.036 649.572H111.826L102.091 624.72V649.572H94.7402V615.037H105.043L113.431 636.576L121.819 615.037H132.175V649.572H124.77V624.72Z" fill="#009489"/>
<path d="M139.003 615.038H163.441V621.355H146.355V628.863H163.079V635.178H146.355V643.204H163.441V649.573H139.003V615.038Z" fill="#009489"/>
<path d="M182.8 643.101C189.636 643.101 193.621 638.183 193.621 632.331C193.621 626.221 189.893 621.51 182.8 621.51H176.534V643.101H182.8ZM169.183 615.038H182.8C193.621 615.038 201.128 621.924 201.128 632.331C201.128 642.737 193.621 649.573 182.8 649.573H169.183V615.038Z" fill="#009489"/>
<path d="M213.912 635.438L200.606 615.038H208.995L217.589 628.915L226.081 615.038H234.468L221.266 635.438V649.573H213.912V635.438Z" fill="#009489"/>
<path d="M233.946 632.331C233.946 621.718 241.972 614.468 252.069 614.468C259.938 614.468 264.34 618.611 266.773 622.908L260.456 626.015C259.006 623.219 255.901 620.992 252.069 620.992C246.063 620.992 241.506 625.807 241.506 632.331C241.506 638.856 246.063 643.669 252.069 643.669C255.901 643.669 259.006 641.496 260.456 638.648L266.773 641.703C264.288 646.001 259.938 650.195 252.069 650.195C241.972 650.195 233.946 642.945 233.946 632.331Z" fill="#009489"/>
<path d="M269.926 643.619L286.236 621.509H269.926V615.038H295.867V620.94L279.556 643.101H296.229V649.573H269.926V643.619Z" fill="#009489"/>
<path d="M309.169 626.377V649.574H301.816V615.039H309.376L325.375 637.406V615.039H332.726V649.574H325.633L309.169 626.377Z" fill="#009489"/>
<path d="M339.556 615.038H363.995V621.355H346.909V628.863H363.632V635.178H346.909V643.204H363.995V649.573H339.556V615.038Z" fill="#009489"/>
<path d="M128.495 372.881V291.651L216.929 380.084L176.314 420.699L128.495 372.881ZM241.52 232.285V267.06H354.544V372.881L241.52 485.904L200.905 445.289L266.11 380.084L118.308 232.283H93.7183V387.286L151.721 445.289L84.9414 512.07L109.531 536.661L176.314 469.88L241.52 535.085L389.319 387.286V232.285H241.52Z" fill="#009489"/>
</g>
<defs>
<clipPath id="clip0_4586_9927">
<rect width="487" height="746" fill="white"/>
</clipPath>
</defs>
</svg>
