<svg width="488" height="746" viewBox="0 0 488 746" fill="none" xmlns="http://www.w3.org/2000/svg">
<g clip-path="url(#clip0_4586_9751)">
<path d="M487.31 0H0V746H487.31V0Z" fill="#672290"/>
<path d="M127.782 126.183H97.0911V101.875H186.537V126.183H156.011V209.965H127.782V126.183Z" fill="white"/>
<path d="M199.991 101.875H280.248V125.373H228.221V143.361H279.098V167.022H228.221V186.467H280.248V209.965H199.991V101.875Z" fill="white"/>
<path d="M353.279 186.792C360.01 186.792 364.112 182.739 364.112 176.906C364.112 171.396 360.173 166.697 353.279 166.697H324.885V186.792H353.279ZM352.294 143.686C358.039 143.686 361.976 139.633 361.976 134.286C361.976 128.938 358.039 125.049 352.294 125.049H324.885V143.686H352.294ZM296.658 101.875H358.695C380.36 101.875 390.699 115.811 390.699 129.425C390.699 142.875 382.33 151.949 371.99 154.219C383.642 156.002 392.835 167.022 392.835 180.633C392.835 196.353 382.165 209.966 360.666 209.966H296.658V101.875Z" fill="white"/>
<path d="M106.694 580.215H118.139L112.443 564.569L106.694 580.215ZM120.158 586.503H104.726L102.551 592.382H94.4727L107.833 558.281H117.051L130.359 592.382H122.333L120.158 586.503Z" fill="white"/>
<path d="M143.614 578.732L140.922 581.901V592.383H133.568V558.28H140.922V573.515L153.142 558.28H162.204L148.482 574.282L163.136 592.383H154.074L143.614 578.732Z" fill="white"/>
<path d="M175.045 580.215H186.489L180.793 564.569L175.045 580.215ZM188.508 586.503H173.077L170.902 592.382H162.823L176.183 558.281H185.402L198.709 592.382H190.683L188.508 586.503Z" fill="white"/>
<path d="M215.538 585.991C222.374 585.991 226.361 581.134 226.361 575.356C226.361 569.323 222.632 564.672 215.538 564.672H209.272V585.991H215.538ZM201.919 558.281H215.538C226.361 558.281 233.87 565.081 233.87 575.356C233.87 585.633 226.361 592.382 215.538 592.382H201.919V558.281Z" fill="white"/>
<path d="M239.097 558.28H263.54V564.517H246.452V571.931H263.177V578.17H246.452V586.094H263.54V592.382H239.097V558.28Z" fill="white"/>
<path d="M299.32 567.841L289.584 592.382H286.375L276.639 567.841V592.382H269.286V558.28H279.59L287.98 579.549L296.369 558.28H306.726V592.382H299.32V567.841Z" fill="white"/>
<path d="M313.559 558.281H320.914V592.383H313.559V558.281Z" fill="white"/>
<path d="M336.291 580.215H347.736L342.04 564.569L336.291 580.215ZM349.755 586.503H334.323L332.148 592.382H324.07L337.43 558.281H346.648L359.956 592.382H351.93L349.755 586.503Z" fill="white"/>
<path d="M98.1496 609.41H105.504V643.512H98.1496V609.41Z" fill="white"/>
<path d="M112.336 609.41H119.691V643.512H112.336V609.41Z" fill="white"/>
<path d="M126.524 609.41H133.879V643.512H126.524V609.41Z" fill="white"/>
<path d="M174.32 620.096L168.312 643.512H160.493L150.601 609.41H158.835L164.895 634.052L171.471 609.41H177.22L183.744 634.052L189.75 609.41H198.037L188.197 643.512H180.378L174.32 620.096Z" fill="white"/>
<path d="M201.504 609.41H208.858V643.512H201.504V609.41Z" fill="white"/>
<path d="M215.691 609.41H240.134V615.647H223.046V623.061H239.77V629.298H223.046V637.224H240.134V643.512H215.691V609.41Z" fill="white"/>
<path d="M255.926 629.861L253.234 633.03V643.512H245.879V609.41H253.234V624.645L265.454 609.41H274.516L260.794 625.413L275.448 643.512H266.386L255.926 629.861Z" fill="white"/>
<path d="M278.812 609.41H286.27V629.657C286.27 634.411 288.91 637.684 294.297 637.684C299.578 637.684 302.219 634.411 302.219 629.657V609.41H309.676V629.861C309.676 638.347 304.757 644.125 294.297 644.125C283.733 644.125 278.812 638.296 278.812 629.912V609.41Z" fill="white"/>
<path d="M358.011 370.242L244.96 481.869L131.91 370.242V290.016L262.352 418.815V265.73H358.011V370.242ZM227.569 231.382V335.895L121.721 231.38H97.1256V384.468L244.96 530.44L392.796 384.468V231.382H227.569Z" fill="white"/>
</g>
<defs>
<clipPath id="clip0_4586_9751">
<rect width="487.31" height="746" fill="white"/>
</clipPath>
</defs>
</svg>
