<svg width="981" height="481" viewBox="0 0 981 481" fill="none" xmlns="http://www.w3.org/2000/svg">
<g clip-path="url(#clip0_4586_9594)">
<path d="M499.935 116.16H456.599V81.4H582.9V116.16H539.794V235.974H499.935V116.16Z" fill="#E27D00"/>
<path d="M601.899 81.4H715.223V115.003H641.76V140.727H713.6V174.561H641.76V202.371H715.223V235.974H601.899V81.4Z" fill="#E27D00"/>
<path d="M818.347 202.834C827.85 202.834 833.642 197.039 833.642 188.697C833.642 180.818 828.081 174.098 818.347 174.098H778.255V202.834H818.347ZM816.957 141.19C825.068 141.19 830.628 135.395 830.628 127.748C830.628 120.1 825.068 114.538 816.957 114.538H778.255V141.19H816.957ZM738.396 81.4H825.995C856.586 81.4 871.186 101.329 871.186 120.795C871.186 140.03 859.367 153.009 844.768 156.254C861.22 158.802 874.199 174.561 874.199 194.027C874.199 216.506 859.136 235.974 828.777 235.974H738.396V81.4Z" fill="#E27D00"/>
<path d="M463.575 314.196C466.615 317.364 471.338 320.015 477.297 320.015C482.337 320.015 484.802 317.624 484.802 315.161C484.802 311.929 481.044 310.829 476.065 309.662C469.013 308.044 459.953 306.106 459.953 296.464C459.953 289.282 466.166 283.455 476.323 283.455C483.181 283.455 488.878 285.526 493.149 289.475L488.034 296.208C484.539 292.969 479.883 291.48 475.676 291.48C471.534 291.48 469.332 293.293 469.332 295.879C469.332 298.792 472.958 299.702 477.943 300.864C485.059 302.48 494.116 304.615 494.116 314.196C494.116 322.086 488.488 328.04 476.838 328.04C468.556 328.04 462.605 325.257 458.53 321.18L463.575 314.196Z" fill="#E27D00"/>
<path d="M498.783 319.826L519.17 292.196H498.783V284.106H531.202V291.484L510.824 319.18H531.66V327.27H498.783V319.826Z" fill="#E27D00"/>
<path d="M551.2 309.992L547.837 314.002V327.27H538.65V284.104H547.837V303.391L563.109 284.104H574.436L557.286 304.362L575.599 327.27H564.276L551.2 309.992Z" fill="#E27D00"/>
<path d="M597.675 291.546C589.716 291.546 584.604 297.632 584.604 305.718C584.604 313.742 589.716 319.889 597.675 319.889C605.633 319.889 610.811 313.742 610.811 305.718C610.811 297.632 605.633 291.546 597.675 291.546ZM597.675 283.39C610.746 283.39 620.256 292.712 620.256 305.718C620.256 318.723 610.746 328.04 597.675 328.04C584.67 328.04 575.155 318.723 575.155 305.718C575.155 292.712 584.67 283.39 597.675 283.39Z" fill="#E27D00"/>
<path d="M655.08 319.18V327.27H627.646V312.191L622.985 314.846V307.336L627.646 304.686V284.106H636.833V299.378L641.814 296.528V304.039L636.833 306.883V319.18H655.08Z" fill="#E27D00"/>
<path d="M665.309 309.603L648.678 284.104H659.159L669.901 301.447L680.513 284.104H690.996L674.492 309.603V327.27H665.309V309.603Z" fill="#E27D00"/>
<path d="M480.466 356.719H470.694V368.624H480.466C484.092 368.624 486.81 366.296 486.81 362.67C486.81 359.11 484.092 356.719 480.466 356.719ZM461.507 348.821H481.693C491.081 348.821 496.189 355.165 496.189 362.736C496.189 370.239 491.016 376.517 481.693 376.517H470.694V391.982H461.507V348.821Z" fill="#E27D00"/>
<path d="M522.34 356.266C514.381 356.266 509.265 362.347 509.265 370.437C509.265 378.458 514.381 384.605 522.34 384.605C530.298 384.605 535.476 378.458 535.476 370.437C535.476 362.347 530.298 356.266 522.34 356.266ZM522.34 348.111C535.41 348.111 544.925 357.433 544.925 370.437C544.925 383.442 535.41 392.761 522.34 392.761C509.331 392.761 499.82 383.442 499.82 370.437C499.82 357.433 509.331 348.111 522.34 348.111Z" fill="#E27D00"/>
<path d="M551.401 348.821H560.588V383.895H578.839V391.982H551.401V348.821Z" fill="#E27D00"/>
<path d="M585.249 348.829H594.439V391.99H585.249V348.829Z" fill="#E27D00"/>
<path d="M600.915 370.437C600.915 357.171 610.942 348.111 623.562 348.111C633.4 348.111 638.9 353.292 641.935 358.66L634.046 362.539C632.234 359.049 628.349 356.266 623.562 356.266C616.057 356.266 610.361 362.282 610.361 370.437C610.361 378.589 616.057 384.605 623.562 384.605C628.349 384.605 632.234 381.888 634.046 378.332L641.935 382.149C638.835 387.519 633.4 392.761 623.562 392.761C610.942 392.761 600.915 383.701 600.915 370.437Z" fill="#E27D00"/>
<path d="M647.449 348.821H677.988V356.719H656.634V366.098H677.539V373.995H656.634V384.021H677.988V391.982H647.449V348.821Z" fill="#E27D00"/>
<path d="M695.857 376.583H710.155L703.043 356.781L695.857 376.583ZM712.682 384.541H693.401L690.681 391.982H680.584L697.282 348.821H708.796L725.427 391.982H715.401L712.682 384.541Z" fill="#E27D00"/>
<path d="M729.446 348.821H738.632V383.895H756.883V391.982H729.446V348.821Z" fill="#E27D00"/>
<path d="M772.486 362.992V391.982H763.295V348.821H772.748L792.743 376.775V348.821H801.924V391.982H793.062L772.486 362.992Z" fill="#E27D00"/>
<path d="M810.476 348.821H841.02V356.719H819.666V366.098H840.567V373.995H819.666V384.021H841.02V391.982H810.476V348.821Z" fill="#E27D00"/>
<path d="M377.07 191.83L302.93 117.69H377.07V191.83ZM215.314 81.3984L369.554 235.639L259.121 346.073L141.172 228.124V143.352L246.289 248.472L271.954 222.809L130.542 81.3984H104.881V243.157L259.121 397.398L413.363 243.157V81.3984H215.314Z" fill="#E27D00"/>
</g>
<defs>
<clipPath id="clip0_4586_9594">
<rect width="980.8" height="480.7" fill="white"/>
</clipPath>
</defs>
</svg>
