<svg width="981" height="481" viewBox="0 0 981 481" fill="none" xmlns="http://www.w3.org/2000/svg">
<g clip-path="url(#clip0_4587_10427)">
<path d="M980.8 0H0V480.7H980.8V0Z" fill="#0077A2"/>
<path d="M498.753 116.828H455.857V82.2969H581.293V116.828H538.397V235.759H498.753V116.828Z" fill="white"/>
<path d="M599.99 82.2969H712.521V115.649H639.562V141.208H711.055V174.81H639.562V202.407H712.521V235.759H599.99V82.2969Z" fill="white"/>
<path d="M735.647 82.2969H822.512C852.861 82.2969 867.374 102.101 867.374 121.404C867.374 140.707 855.649 153.576 841.136 156.615C857.472 159.153 870.377 174.81 870.377 194.113C870.377 216.455 855.399 235.759 825.264 235.759H735.647V82.2969ZM813.682 141.673C815.467 141.752 817.25 141.462 818.918 140.821C820.586 140.18 822.103 139.201 823.375 137.946C824.647 136.69 825.646 135.186 826.309 133.527C826.973 131.868 827.286 130.089 827.23 128.303C827.278 126.532 826.957 124.771 826.287 123.13C825.617 121.49 824.613 120.008 823.338 118.777C822.064 117.546 820.547 116.594 818.885 115.982C817.222 115.37 815.451 115.11 813.682 115.22H774.968V141.673H813.682ZM815.041 202.871C824.478 202.871 830.233 197.116 830.233 188.823C830.262 186.852 829.883 184.898 829.12 183.081C828.357 181.264 827.227 179.624 825.8 178.265C824.374 176.905 822.681 175.855 820.83 175.181C818.978 174.506 817.007 174.222 815.041 174.345H774.968V202.943L815.041 202.871Z" fill="white"/>
<path fill-rule="evenodd" clip-rule="evenodd" d="M259.64 348.933L142.533 230.111V144.711L301.75 306.216L259.64 348.933ZM412.816 245.267V82.2969H259.64V118.866H376.783V230.111L327.238 280.371L131.988 82.2969H106.5V245.232L259.64 400.624L412.816 245.267Z" fill="white"/>
<path fill-rule="evenodd" clip-rule="evenodd" d="M457.965 326.416H484.811V318.409H466.938V283.555H457.965V326.416ZM491.103 326.416H500.075V283.519H491.103V326.416ZM528.566 327.202C532.25 327.27 535.88 326.3 539.04 324.404C542.201 322.508 544.764 319.761 546.439 316.478L538.682 312.689C537.719 314.577 536.249 316.159 534.436 317.257C532.624 318.356 530.542 318.928 528.423 318.909C524.904 318.601 521.628 316.986 519.242 314.382C516.856 311.778 515.532 308.375 515.532 304.843C515.532 301.311 516.856 297.907 519.242 295.303C521.628 292.699 524.904 291.084 528.423 290.776C530.539 290.769 532.617 291.346 534.427 292.444C536.237 293.541 537.709 295.116 538.682 296.996L546.582 293.207C544.884 289.964 542.307 287.264 539.146 285.418C535.985 283.572 532.368 282.654 528.709 282.769C522.831 282.769 517.193 285.104 513.037 289.26C508.88 293.417 506.545 299.054 506.545 304.932C506.545 310.81 508.88 316.447 513.037 320.604C517.193 324.76 522.831 327.095 528.709 327.095M552.087 326.309H581.936V318.516H561.06V308.542H581.507V300.714H561.06V291.42H581.936V283.555H552.051L552.087 326.309ZM589.014 309.222C589.014 319.767 595.019 327.095 607.96 327.095C620.9 327.095 626.762 319.946 626.762 309.222V283.555H617.683V309.007C617.683 311.595 616.655 314.078 614.824 315.908C612.994 317.738 610.512 318.766 607.924 318.766C605.336 318.766 602.853 317.738 601.023 315.908C599.193 314.078 598.165 311.595 598.165 309.007V283.555H589.049L589.014 309.222ZM671.839 326.309H680.919V283.412H668.086L657.827 310.151L647.567 283.412H634.984V326.309H643.957V295.566L655.896 326.416H659.793L671.696 295.566L671.839 326.309Z" fill="white"/>
</g>
<defs>
<clipPath id="clip0_4587_10427">
<rect width="980.8" height="480.7" fill="white"/>
</clipPath>
</defs>
</svg>
