<svg width="488" height="746" viewBox="0 0 488 746" fill="none" xmlns="http://www.w3.org/2000/svg">
<g clip-path="url(#clip0_4587_10387)">
<path fill-rule="evenodd" clip-rule="evenodd" d="M148.228 613.956C158.819 613.956 166.521 621.391 166.521 631.758C166.521 642.124 158.819 649.56 148.228 649.56C137.637 649.559 129.992 642.124 129.992 631.758C129.992 621.391 137.693 613.956 148.228 613.956ZM148.228 620.452C141.776 620.452 137.638 625.305 137.638 631.744C137.638 638.182 141.776 643.036 148.228 643.036C154.681 643.036 158.861 638.14 158.861 631.744C158.861 625.347 154.667 620.452 148.228 620.452Z" fill="#214797"/>
<path fill-rule="evenodd" clip-rule="evenodd" d="M233.125 613.956C243.716 613.956 251.418 621.391 251.418 631.758C251.418 642.124 243.716 649.559 233.125 649.56C222.534 649.56 214.889 642.124 214.889 631.758C214.889 621.391 222.59 613.956 233.125 613.956ZM233.125 620.452C226.672 620.452 222.533 625.305 222.533 631.744C222.533 638.183 226.673 643.036 233.125 643.036C239.578 643.036 243.758 638.14 243.758 631.744C243.758 625.347 239.564 620.452 233.125 620.452Z" fill="#214797"/>
<path fill-rule="evenodd" clip-rule="evenodd" d="M107.828 614.517C118.784 614.517 126.387 621.377 126.387 631.744C126.386 642.11 118.784 648.928 107.828 648.928H94.0391V614.517H107.828ZM101.487 642.461H107.828V642.474C114.744 642.474 118.783 637.579 118.784 631.744C118.784 625.908 115.011 620.956 107.828 620.956H101.487V642.461Z" fill="#214797"/>
<path d="M190.691 635.98L199.178 614.517H209.656V648.928H202.165V624.168L192.317 648.928H189.064L179.215 624.168V648.928H171.767V614.517H182.203L190.691 635.98Z" fill="#214797"/>
<path d="M266.721 639.389L273.37 614.517H279.192L285.799 639.389L291.873 614.517H300.261L290.302 648.928H282.39L276.261 625.305L270.187 648.928H262.274L252.259 614.517H260.592L266.721 639.389Z" fill="#214797"/>
<path fill-rule="evenodd" clip-rule="evenodd" d="M336.383 648.928H328.261L326.059 642.994H310.445L308.244 648.928H300.065L313.588 614.517H322.917L336.383 648.928ZM312.423 636.654H324.011L318.245 620.872L312.423 636.654Z" fill="#214797"/>
<path d="M169.775 583.166C169.776 587.963 172.455 591.259 177.898 591.259C183.34 591.259 185.921 587.963 185.921 583.166V562.741H193.468V583.375C193.468 591.932 188.488 597.767 177.898 597.768C167.307 597.768 162.229 591.89 162.229 583.432V562.741H169.775V583.166Z" fill="#214797"/>
<path d="M324.122 585.859C324.122 594.009 318.989 597.768 311.807 597.768C308.244 597.768 304.947 596.842 302.422 594.415L305.671 588.798C307.031 590.085 308.81 591.273 311.218 591.273C314.514 591.273 316.674 589.113 316.674 585.76V562.754H324.122V585.859Z" fill="#214797"/>
<path d="M286.22 562.165C294.188 562.165 298.635 566.29 301.104 570.568L294.706 573.668C293.233 570.877 290.091 568.66 286.22 568.66C280.146 568.66 275.531 573.459 275.531 579.953C275.531 586.448 280.146 591.246 286.22 591.246C290.092 591.246 293.248 589.085 294.706 586.237L301.104 589.281C298.593 593.56 294.188 597.74 286.22 597.74C276.154 597.74 268.126 590.74 267.877 580.433L267.871 579.967C267.871 569.39 275.994 562.165 286.22 562.165Z" fill="#214797"/>
<path d="M118.77 569.039H101.474V576.516H118.406V582.815H101.474V590.81H118.77V597.151H94.0391V562.741H118.77V569.039Z" fill="#214797"/>
<path fill-rule="evenodd" clip-rule="evenodd" d="M138.381 562.741C149.337 562.741 156.939 569.601 156.939 579.967C156.939 590.333 149.337 597.151 138.381 597.151H124.592V562.741H138.381ZM132.04 590.684H138.381V590.699C145.297 590.699 149.336 585.802 149.337 579.967C149.337 574.132 145.563 569.179 138.381 569.179H132.04V590.684Z" fill="#214797"/>
<path fill-rule="evenodd" clip-rule="evenodd" d="M207.819 578.115L220.191 562.741H229.365L215.478 578.886L230.087 596.883L243.505 562.741H252.834L266.3 597.151H258.178L255.977 591.217H240.362L238.161 597.151H221.13L210.54 583.375L207.819 586.574V597.151H200.369V562.741H207.819V578.115ZM242.356 584.877H253.942L248.176 569.096L242.356 584.877Z" fill="#214797"/>
<path fill-rule="evenodd" clip-rule="evenodd" d="M363.625 597.151H355.503L353.301 591.217H337.688L335.486 597.151H327.307L340.83 562.741H350.159L363.625 597.151ZM339.68 584.877H351.267L345.501 569.096L339.68 584.877Z" fill="#214797"/>
<path d="M305.671 588.798C305.669 588.795 305.665 588.793 305.663 588.791H305.677L305.671 588.798Z" fill="#214797"/>
<path fill-rule="evenodd" clip-rule="evenodd" d="M214.723 329.22L224.329 338.801V232.12H389.324V388.571L241.695 537.771L94.0815 388.571V232.12H118.63L214.723 329.22ZM128.8 374.039L241.695 488.128H241.709L282.264 447.137L128.8 292.047V374.039ZM259.041 373.46L307.445 421.885L354.771 373.885V267.101H259.041V373.46Z" fill="#214797"/>
<path d="M183.354 125.732H183.242V126.028H152.872V210.474H152.843V210.546H124.718V210.474H124.689V126.028H94.1377V125.732H94.0391V101.156H183.354V125.732Z" fill="#214797"/>
<path d="M276.933 124.92H276.596V125.199H224.974V143.114H275.783V167.044H275.461V167.227H224.974V186.698H276.933V210.474H276.596V210.546H196.653V101.493H196.793V101.156H276.933V124.92Z" fill="#214797"/>
<path fill-rule="evenodd" clip-rule="evenodd" d="M355.264 101.156C376.895 101.156 387.22 115.255 387.22 129.016C387.22 142.777 378.859 151.797 368.535 154.084C380.163 155.893 389.351 167.03 389.352 180.791C389.352 196.685 378.691 210.461 357.229 210.461H293.304V101.156H355.264ZM321.514 187.034H349.864C356.583 187.034 360.68 182.938 360.68 177.032C360.679 171.463 356.752 166.709 349.864 166.709H321.514V187.034ZM321.514 143.422H348.882V143.436C354.619 143.436 358.546 139.34 358.547 133.926C358.547 128.511 354.619 124.583 348.882 124.583H321.514V143.422Z" fill="#214797"/>
</g>
<defs>
<clipPath id="clip0_4587_10387">
<rect width="487.31" height="746" fill="white"/>
</clipPath>
</defs>
</svg>
