<svg width="981" height="481" viewBox="0 0 981 481" fill="none" xmlns="http://www.w3.org/2000/svg">
<g clip-path="url(#clip0_4586_9668)">
<path d="M501.53 117.056H458.197V82.2974H584.489V117.056H541.386V236.86H501.53V117.056Z" fill="#102D69"/>
<path d="M603.485 82.2977H716.801V115.899H643.342V141.62H715.178V175.452H643.342V203.259H716.801V236.86H603.485V82.2977Z" fill="#102D69"/>
<path d="M819.919 203.723C829.42 203.723 835.213 197.929 835.213 189.588C835.213 181.71 829.652 174.99 819.919 174.99H779.828V203.723H819.919ZM818.526 142.084C826.638 142.084 832.2 136.29 832.2 128.643C832.2 120.996 826.638 115.435 818.526 115.435H779.828V142.084H818.526ZM739.972 82.2984H827.566C858.155 82.2984 872.752 102.225 872.752 121.691C872.752 140.925 860.936 153.901 846.336 157.146C862.786 159.696 875.765 175.453 875.765 194.918C875.765 217.395 860.705 236.861 830.347 236.861H739.972V82.2984Z" fill="#102D69"/>
<path d="M378.692 229.023L260.743 346.973L142.791 229.023V144.252L260.743 262.202L378.692 144.251V229.023ZM260.743 82.2969V118.59H353.03L260.743 210.877L132.163 82.2983H106.5V244.056L260.743 398.297L414.984 244.056V82.2969H260.743Z" fill="#102D69"/>
<path d="M458.339 280.617H497.9V290.847H470.244V303.001H497.315V313.226H470.244V326.218H497.9V336.53H458.339V280.617Z" fill="#102D69"/>
<path d="M529.24 326.05C540.306 326.05 546.758 318.088 546.758 308.615C546.758 298.724 540.722 291.097 529.24 291.097H519.096V326.05H529.24ZM507.194 280.618H529.24C546.758 280.618 558.911 291.768 558.911 308.615C558.911 325.464 546.758 336.53 529.24 336.53H507.194V280.618Z" fill="#102D69"/>
<path d="M567.365 280.617H579.433V313.812C579.433 321.607 583.709 326.972 592.429 326.972C600.978 326.972 605.253 321.607 605.253 313.812V280.617H617.321V314.147C617.321 328.059 609.357 337.532 592.429 337.532C575.329 337.532 567.365 327.978 567.365 314.233V280.617Z" fill="#102D69"/>
<path d="M644.634 314.147L640.276 319.344V336.53H628.372V280.617H640.276V305.598L660.057 280.617H674.726L652.514 306.855L676.236 336.53H661.566L644.634 314.147Z" fill="#102D69"/>
<path d="M695.5 316.577H714.025L704.805 290.929L695.5 316.577ZM717.294 326.889H692.318L688.793 336.53H675.72L697.346 280.617H712.266L733.809 336.53H720.815L717.294 326.889Z" fill="#102D69"/>
<path d="M733.461 308.615C733.461 291.432 746.455 279.697 762.797 279.697C775.54 279.697 782.664 286.403 786.604 293.359L776.379 298.388C774.03 293.862 769.001 290.258 762.797 290.258C753.075 290.258 745.696 298.053 745.696 308.615C745.696 319.177 753.075 326.971 762.797 326.971C769.001 326.971 774.03 323.452 776.379 318.84L786.604 323.788C782.581 330.744 775.54 337.532 762.797 337.532C746.455 337.532 733.461 325.801 733.461 308.615Z" fill="#102D69"/>
<path d="M793.884 322.949C796.06 325.043 798.912 326.972 802.767 326.972C808.051 326.972 811.483 323.452 811.483 318.002V280.617H823.387V318.174C823.387 331.415 815.174 337.532 803.688 337.532C797.988 337.532 792.71 336.022 788.687 332.086L793.884 322.949Z" fill="#102D69"/>
<path d="M845.507 316.577H864.032L854.812 290.929L845.507 316.577ZM867.301 326.889H842.325L838.8 336.53H825.727L847.353 280.617H862.273L883.816 336.53H870.822L867.301 326.889Z" fill="#102D69"/>
</g>
<defs>
<clipPath id="clip0_4586_9668">
<rect width="980.8" height="480.7" fill="white"/>
</clipPath>
</defs>
</svg>
