<svg width="488" height="746" viewBox="0 0 488 746" fill="none" xmlns="http://www.w3.org/2000/svg">
<g clip-path="url(#clip0_4587_10439)">
<path d="M125.88 125.847H95.2387V101.156H184.522V125.847H154.044V210.935H125.867V125.847H125.88Z" fill="#C51523"/>
<path d="M197.95 101.156H278.068V125.016H226.14V143.278H276.924V167.302H226.14V187.048H278.068V210.908H197.95V101.156Z" fill="#C51523"/>
<path d="M294.45 101.156H356.373C378 101.156 388.322 115.306 388.322 129.142C388.322 142.979 379.974 152.022 369.651 154.323C381.282 156.134 390.461 167.329 390.461 181.152C390.461 197.113 379.811 210.935 358.348 210.935H294.45V101.156ZM349.986 143.619C355.72 143.619 359.655 139.506 359.655 134.072C359.655 128.638 355.72 124.689 349.986 124.689H322.627V143.619H349.986ZM350.967 187.403C357.681 187.403 361.78 183.29 361.78 177.366C361.78 171.768 357.844 167.002 350.967 167.002H322.627V187.416H350.967V187.403Z" fill="#C51523"/>
<path d="M104.117 571.183H94.0391V564.687H121.535V571.183H111.512V599.332H104.117V571.183Z" fill="#C51523"/>
<path d="M126.247 564.687H150.638V571.02H133.588V578.551H150.284V584.883H133.588V592.932H150.638V599.319H126.247V564.687Z" fill="#C51523"/>
<path d="M154.724 582.034C154.724 571.385 162.732 564.112 172.809 564.112C180.667 564.112 185.053 568.266 187.49 572.583L181.185 575.702C179.741 572.896 176.636 570.663 172.809 570.663C166.817 570.663 162.269 575.497 162.269 582.034C162.269 588.571 166.817 593.406 172.809 593.406C176.636 593.406 179.728 591.227 181.185 588.367L187.49 591.431C185.012 595.748 180.667 599.943 172.809 599.943C162.732 599.943 154.724 592.67 154.724 582.021V582.034Z" fill="#C51523"/>
<path d="M215.502 584.785H199.228V599.329H191.888V564.698H199.228V578.302H215.502V564.698H222.897V599.329H215.502V584.785Z" fill="#C51523"/>
<path d="M237.006 576.058V599.319H229.666V564.687H237.211L253.185 587.117V564.687H260.526V599.319H253.444L237.006 576.058Z" fill="#C51523"/>
<path d="M267.348 564.687H274.689V599.319H267.348V564.687Z" fill="#C51523"/>
<path d="M291.535 585.455L288.853 588.669V599.319H281.512V564.687H288.853V580.158L301.055 564.687H310.097L296.397 580.934L311.024 599.319H301.981L291.535 585.455Z" fill="#C51523"/>
<path d="M321.822 564.687V585.251C321.822 590.085 324.464 593.408 329.829 593.408C335.195 593.408 337.742 590.085 337.742 585.251V564.687H345.177V585.455C345.177 594.076 340.261 599.945 329.829 599.945C319.397 599.945 314.372 594.021 314.372 585.51V564.687H321.822Z" fill="#C51523"/>
<path d="M381.989 574.397L372.279 599.319H369.078L359.368 574.397V599.319H352.028V564.687H362.31L370.685 586.286L379.061 564.687H389.397V599.319H382.002V574.397H381.989Z" fill="#C51523"/>
<path d="M242.713 232.682V267.559H355.556V363.488H249.903L119.696 232.682H95.1422V388.165L242.713 536.416L390.283 388.165V232.682H242.713ZM242.713 487.076L129.869 373.715V292.236L235.522 398.378H331.015L242.726 487.076H242.713Z" fill="#C51523"/>
</g>
<defs>
<clipPath id="clip0_4587_10439">
<rect width="487.31" height="746" fill="white"/>
</clipPath>
</defs>
</svg>
