<svg width="487" height="746" viewBox="0 0 487 746" fill="none" xmlns="http://www.w3.org/2000/svg">
<g clip-path="url(#clip0_4586_9937)">
<path d="M94.5721 554.464H121.963V562.156H102.814V571.301H121.556V578.997H102.814V588.773H121.963V596.53H94.5721V554.464Z" fill="#102D69"/>
<path d="M143.678 588.645C151.34 588.645 155.807 582.655 155.807 575.53C155.807 568.086 151.629 562.349 143.678 562.349H136.658V588.645H143.678ZM128.416 554.464H143.678C155.807 554.464 164.221 562.851 164.221 575.53C164.221 588.204 155.807 596.53 143.678 596.53H128.416V554.464Z" fill="#102D69"/>
<path d="M170.101 554.464H178.459V579.438C178.459 585.303 181.415 589.34 187.453 589.34C193.371 589.34 196.329 585.303 196.329 579.438V554.464H204.685V579.693C204.685 590.158 199.175 597.287 187.453 597.287C175.613 597.287 170.101 590.096 170.101 579.754V554.464Z" fill="#102D69"/>
<path d="M223.624 579.693L220.605 583.603V596.53H212.363V554.463H220.605V573.259L234.301 554.463H244.456L229.077 574.204L245.5 596.53H235.346L223.624 579.693Z" fill="#102D69"/>
<path d="M258.862 581.521H271.686L265.302 562.221L258.862 581.521ZM273.947 589.274H256.658L254.218 596.53H245.167L260.136 554.463H270.468L285.381 596.53H276.386L273.947 589.274Z" fill="#102D69"/>
<path d="M285.166 575.53C285.166 562.599 294.16 553.769 305.475 553.769C314.297 553.769 319.229 558.815 321.955 564.05L314.876 567.834C313.253 564.43 309.769 561.716 305.475 561.716C298.746 561.716 293.639 567.583 293.639 575.53C293.639 583.475 298.746 589.339 305.475 589.339C309.769 589.339 313.253 586.69 314.876 583.222L321.955 586.945C319.17 592.179 314.297 597.286 305.475 597.286C294.16 597.286 285.166 588.458 285.166 575.53Z" fill="#102D69"/>
<path d="M327.025 586.315C328.534 587.889 330.505 589.34 333.175 589.34C336.83 589.34 339.211 586.69 339.211 582.592V554.464H347.449V582.719C347.449 592.682 341.761 597.286 333.81 597.286C329.867 597.286 326.21 596.15 323.425 593.189L327.025 586.315Z" fill="#102D69"/>
<path d="M362.781 581.521H375.605L369.22 562.221L362.781 581.521ZM377.866 589.274H360.577L358.137 596.53H349.086L364.056 554.463H374.386L389.3 596.53H380.306L377.866 589.274Z" fill="#102D69"/>
<path d="M125.073 125.702H94.4727V101.156H183.658V125.702H153.218V210.307H125.073V125.702Z" fill="#102D69"/>
<path d="M197.072 101.157H277.094V124.885H225.219V143.05H275.948V166.941H225.219V186.579H277.094V210.306H197.072V101.157Z" fill="#102D69"/>
<path d="M349.913 186.905C356.623 186.905 360.713 182.814 360.713 176.923C360.713 171.36 356.787 166.613 349.913 166.613H321.601V186.905H349.913ZM348.93 143.377C354.657 143.377 358.585 139.285 358.585 133.885C358.585 128.485 354.657 124.557 348.93 124.557H321.601V143.377H348.93ZM293.456 101.157H355.313C376.915 101.157 387.224 115.23 387.224 128.975C387.224 142.558 378.878 151.723 368.57 154.014C380.186 155.814 389.352 166.941 389.352 180.686C389.352 196.561 378.715 210.306 357.278 210.306H293.456V101.157Z" fill="#102D69"/>
<path d="M354.63 372.149L241.913 484.867L129.194 372.149V291.139L241.913 403.857L354.63 291.138V372.149ZM241.913 231.931V266.615H330.107L241.913 354.808L119.037 231.931H94.5121V386.516L241.913 533.915L389.312 386.516V231.931H241.913Z" fill="#102D69"/>
</g>
<defs>
<clipPath id="clip0_4586_9937">
<rect width="487" height="746" fill="white"/>
</clipPath>
</defs>
</svg>
