<svg width="981" height="481" viewBox="0 0 981 481" fill="none" xmlns="http://www.w3.org/2000/svg">
<g clip-path="url(#clip0_4587_10442)">
<path d="M980.8 0H0V480.7H980.8V0Z" fill="#C51523"/>
<path d="M455.747 116.871V82.2969H581.161V116.871H538.36V236.064H498.785V116.871H455.747Z" fill="white"/>
<path d="M600.008 82.2969H712.537V115.725H639.598V141.32H710.932V174.985H639.598V202.65H712.537V236.078H600.008V82.2969Z" fill="white"/>
<path d="M822.523 82.2969C852.899 82.2969 867.39 102.13 867.39 121.487C867.39 140.844 855.649 153.53 841.159 156.761C857.492 159.292 870.377 174.971 870.377 194.342C870.377 216.707 855.426 236.078 825.273 236.078H735.526V82.2969H822.523ZM813.547 141.781C821.602 141.781 827.116 136.019 827.116 128.41C827.116 120.802 821.588 115.263 813.547 115.263H775.116V141.781H813.547ZM814.929 203.098C824.366 203.098 830.117 197.336 830.117 189.042C830.117 181.209 824.589 174.524 814.929 174.524H775.116V203.112H814.929V203.098Z" fill="white"/>
<path d="M470.501 291.98H457.979V283.938H492.152V291.98H479.686V326.877H470.501V291.98Z" fill="white"/>
<path d="M498.003 283.938H528.338V291.798H507.133V301.127H527.891V308.988H507.133V318.96H528.338V326.877H498.003V283.938Z" fill="white"/>
<path d="M533.418 305.441C533.418 292.237 543.385 283.23 555.907 283.23C565.665 283.23 571.137 288.377 574.152 293.72L566.307 297.58C564.506 294.098 560.653 291.328 555.907 291.328C548.452 291.328 542.799 297.315 542.799 305.427C542.799 313.539 548.452 319.525 555.907 319.525C560.667 319.525 564.52 316.826 566.307 313.273L574.152 317.077C571.067 322.42 565.665 327.637 555.907 327.637C543.385 327.637 533.418 318.63 533.418 305.427V305.441Z" fill="white"/>
<path d="M608.979 308.848H588.737V326.877H579.622V283.938H588.737V300.806H608.979V283.938H618.164V326.877H608.979V308.848Z" fill="white"/>
<path d="M635.713 298.036V326.877H626.584V283.938H635.965L655.815 311.757V283.938H664.931V326.877H656.136L635.699 298.036H635.713Z" fill="white"/>
<path d="M673.446 283.938H682.575V326.877H673.446V283.938Z" fill="white"/>
<path d="M703.516 309.687L700.18 313.673V326.877H691.064V283.938H700.18V303.127L715.34 283.938H726.578L709.547 304.093L727.723 326.877H716.485L703.502 309.687H703.516Z" fill="white"/>
<path d="M741.179 283.938V309.435C741.179 315.422 744.46 319.548 751.132 319.548C757.805 319.548 760.96 315.422 760.96 309.435V283.938H770.201V309.687C770.201 320.373 764.101 327.646 751.118 327.646C738.136 327.646 731.91 320.303 731.91 309.757V283.938H741.179Z" fill="white"/>
<path d="M815.976 295.98L803.9 326.877H799.922L787.847 295.98V326.877H778.731V283.938H791.518L801.932 310.722L812.346 283.938H825.189V326.877H816.003V295.98H815.976Z" fill="white"/>
<path d="M259.135 82.2969V118.389H375.861V217.659H266.578L131.89 82.2969H106.5V243.193L259.135 396.608L411.769 243.193V82.2969H259.135ZM259.135 345.553L142.408 228.244V143.923L251.691 253.765H350.456L259.135 345.553Z" fill="white"/>
</g>
<defs>
<clipPath id="clip0_4587_10442">
<rect width="980.8" height="480.7" fill="white"/>
</clipPath>
</defs>
</svg>
