<svg width="981" height="481" viewBox="0 0 981 481" fill="none" xmlns="http://www.w3.org/2000/svg">
<g clip-path="url(#clip0_4586_9639)">
<path d="M980.8 0H0V480.7H980.8V0Z" fill="#672290"/>
<path d="M500.797 117.112H457.463V82.3527H583.759V117.112H540.654V236.92H500.797V117.112Z" fill="white"/>
<path d="M602.755 82.352H716.075V115.954H642.614V141.677H714.452V175.51H642.614V203.317H716.075V236.921H602.755V82.352Z" fill="white"/>
<path d="M819.196 203.782C828.698 203.782 834.49 197.987 834.49 189.646C834.49 181.767 828.93 175.048 819.196 175.048H779.104V203.782H819.196ZM817.804 142.14C825.915 142.14 831.477 136.346 831.477 128.699C831.477 121.051 825.915 115.491 817.804 115.491H779.104V142.14H817.804ZM739.247 82.3516H826.844C857.434 82.3516 872.032 102.281 872.032 121.747C872.032 140.981 860.215 153.958 845.616 157.203C862.067 159.753 875.045 175.511 875.045 194.976C875.045 217.455 859.984 236.92 829.625 236.92H739.247V82.3516Z" fill="white"/>
<path d="M473.042 312.811H487.343L480.226 293.011L473.042 312.811ZM489.866 320.769H470.585L467.865 328.212H457.773L474.467 285.053H485.983L502.613 328.212H492.584L489.866 320.769Z" fill="white"/>
<path d="M519.186 310.935L515.821 314.947V328.212H506.632V285.052H515.821V304.336L531.09 285.052H542.415L525.267 305.305L543.579 328.212H532.258L519.186 310.935Z" fill="white"/>
<path d="M558.468 312.811H572.769L565.652 293.011L558.468 312.811ZM575.293 320.769H556.012L553.292 328.212H543.199L559.892 285.053H571.41L588.04 328.212H578.01L575.293 320.769Z" fill="white"/>
<path d="M609.078 320.123C617.618 320.123 622.599 313.975 622.599 306.665C622.599 299.029 617.94 293.14 609.078 293.14H601.247V320.123H609.078ZM592.057 285.052H609.078C622.599 285.052 631.983 293.658 631.983 306.665C631.983 319.671 622.599 328.211 609.078 328.211H592.057V285.052Z" fill="white"/>
<path d="M638.526 285.052H669.068V292.947H647.715V302.329H668.614V310.223H647.715V320.252H669.068V328.212H638.526V285.052Z" fill="white"/>
<path d="M713.788 297.152L701.622 328.212H697.61L685.445 297.152V328.212H676.258V285.052H689.135L699.617 311.97L710.099 285.052H723.041V328.212H713.788V297.152Z" fill="white"/>
<path d="M731.593 285.052H740.781V328.211H731.593V285.052Z" fill="white"/>
<path d="M760.002 312.811H774.304L767.186 293.011L760.002 312.811ZM776.826 320.769H757.544L754.825 328.212H744.732L761.425 285.053H772.943L789.573 328.212H779.543L776.826 320.769Z" fill="white"/>
<path d="M462.367 349.772H471.555V392.931H462.367V349.772Z" fill="white"/>
<path d="M480.098 349.772H489.287V392.931H480.098V349.772Z" fill="white"/>
<path d="M497.832 349.772H507.02V392.931H497.832V349.772Z" fill="white"/>
<path d="M557.563 363.295L550.055 392.931H540.286L527.927 349.772H538.216L545.786 380.961L554.003 349.772H561.186L569.338 380.961L576.844 349.772H587.197L574.902 392.931H565.133L557.563 363.295Z" fill="white"/>
<path d="M591.542 349.772H600.732V392.931H591.542V349.772Z" fill="white"/>
<path d="M609.276 349.771H639.818V357.666H618.465V367.048H639.364V374.943H618.465V384.973H639.818V392.931H609.276V349.771Z" fill="white"/>
<path d="M659.562 375.654L656.195 379.667V392.931H647.008V349.771H656.195V369.055L671.465 349.771H682.789L665.643 370.024L683.955 392.931H672.632L659.562 375.654Z" fill="white"/>
<path d="M688.168 349.771H697.485V375.395C697.485 381.412 700.785 385.554 707.513 385.554C714.115 385.554 717.414 381.412 717.414 375.395V349.771H726.733V375.654C726.733 386.397 720.585 393.708 707.513 393.708C694.316 393.708 688.168 386.332 688.168 375.719V349.771Z" fill="white"/>
<path d="M377.943 229.077L259.994 347.027L142.046 229.077V144.308L278.14 280.402V118.645H377.943V229.077ZM241.848 82.3533V192.785L131.415 82.3519H105.754V244.11L259.994 398.352L414.235 244.11V82.3533H241.848Z" fill="white"/>
</g>
<defs>
<clipPath id="clip0_4586_9639">
<rect width="980.8" height="480.7" fill="white"/>
</clipPath>
</defs>
</svg>
