<svg width="488" height="746" viewBox="0 0 488 746" fill="none" xmlns="http://www.w3.org/2000/svg">
<g clip-path="url(#clip0_4587_10455)">
<path d="M94.0391 101.156V125.904H124.892V211.198H153.257V125.904H183.955V101.156H94.0391Z" fill="#B0358B"/>
<path d="M197.48 101.156V211.198H278.153V187.27H225.846V167.47H276.994V143.386H225.846V125.07H278.153V101.156H197.48Z" fill="#B0358B"/>
<path d="M357.003 101.156C378.782 101.156 389.17 115.346 389.17 129.197C389.17 143.047 380.761 152.135 370.359 154.439C382.075 156.248 391.304 167.47 391.304 181.334C391.304 197.333 380.577 211.198 358.967 211.198H294.618V101.156H357.003ZM350.572 143.712C356.353 143.712 360.31 139.585 360.31 134.143C360.31 128.702 356.353 124.745 350.572 124.745H323.026V143.712H350.572ZM351.561 187.595C358.331 187.595 362.444 183.468 362.444 177.532C362.444 171.922 358.487 167.144 351.561 167.144H323.012V187.595H351.561Z" fill="#B0358B"/>
<path d="M242.792 234.066V268.961H356.437V375.13L271.652 459.774L271.624 459.76L242.792 488.535L129.146 375.13V293.637L139.732 304.195L164.437 279.504L118.899 234.066H94.1804V389.588L242.792 537.874L391.403 389.588V234.066H242.792Z" fill="#B0358B"/>
<path d="M281.517 396.33V396.188L281.446 396.259L173.086 288.139L148.381 312.816L256.883 421.091L257.052 420.907L283.453 422.08L281.531 396.471L281.588 396.4L281.517 396.33Z" fill="#B0358B"/>
<path d="M94.1804 600.979H115.197V594.69H101.219V567.441H94.1804V600.979ZM120.101 600.979H127.139V567.441H120.101V600.979ZM149.441 601.587C156.975 601.587 161.144 597.517 163.518 593.333L157.469 590.365C156.084 593.135 153.102 595.241 149.441 595.241C143.689 595.241 139.322 590.563 139.322 584.231C139.322 577.9 143.689 573.222 149.441 573.222C153.102 573.222 156.084 575.384 157.469 578.098L163.518 575.087C161.186 570.918 156.975 566.89 149.441 566.89C139.774 566.89 132.086 573.928 132.086 584.246C132.086 594.563 139.774 601.601 149.441 601.601M167.73 600.979H191.121V594.789H174.768V586.987H190.781V580.854H174.768V573.561H191.121V567.427H167.73V600.979ZM196.632 587.609C196.632 595.849 201.339 601.587 211.458 601.587C221.578 601.587 226.185 595.906 226.185 587.553V567.441H219.048V587.355C219.048 592.033 216.518 595.255 211.458 595.255C206.399 595.255 203.77 592.033 203.77 587.355V567.441H196.632V587.609ZM268.557 600.979V567.441H258.635L250.607 588.358L242.58 567.441H232.715V600.979H239.753V576.84L249.067 600.979H252.134L261.448 576.84V600.979H268.557Z" fill="#B0358B"/>
<path d="M94.1804 619.635H110.123C117.529 619.635 121.571 624.568 121.571 630.447C121.571 636.327 117.486 641.16 110.123 641.16H101.445V653.174H94.1945V619.635H94.1804ZM109.148 625.769H101.431V635.026H109.148C112.002 635.026 114.151 633.217 114.151 630.405C114.151 627.592 112.002 625.783 109.148 625.783V625.769Z" fill="#B0358B"/>
<path d="M133.301 619.635V646.884H147.703V653.174H126.037V619.635H133.301Z" fill="#B0358B"/>
<path d="M174.486 647.393H159.264L157.116 653.174H149.145L162.331 619.635H171.419L184.549 653.174H176.634L174.486 647.393ZM161.2 641.203H172.493L166.868 625.812L161.2 641.203Z" fill="#B0358B"/>
<path d="M189.043 643.012C191.446 645.471 195.177 647.534 199.869 647.534C203.855 647.534 205.791 645.669 205.791 643.761C205.791 641.245 202.823 640.397 198.894 639.493C193.325 638.235 186.174 636.722 186.174 629.232C186.174 623.649 191.078 619.126 199.092 619.126C204.505 619.126 208.999 620.738 212.377 623.805L208.335 629.034C205.579 626.518 201.904 625.359 198.583 625.359C195.262 625.359 193.58 626.773 193.58 628.78C193.58 631.041 196.435 631.748 200.378 632.652C206.003 633.91 213.154 635.563 213.154 643.012C213.154 649.146 208.716 653.767 199.516 653.767C192.972 653.767 188.28 651.605 185.057 648.439L189.043 643.012Z" fill="#B0358B"/>
<path d="M225.62 625.91H215.656V619.621H242.834V625.91H232.927V653.159H225.62V625.91Z" fill="#B0358B"/>
<path d="M256.996 639.45L243.866 619.635H252.148L260.628 633.118L269.009 619.635H277.291L264.26 639.45V653.174H257.01V639.45H256.996Z" fill="#B0358B"/>
<path d="M276.811 636.426C276.811 626.122 284.725 619.07 294.689 619.07C302.448 619.07 306.801 623.098 309.204 627.267L302.971 630.278C301.544 627.564 298.477 625.402 294.689 625.402C288.767 625.402 284.273 630.08 284.273 636.411C284.273 642.743 288.767 647.421 294.689 647.421C298.463 647.421 301.53 645.315 302.971 642.545L309.204 645.513C306.759 649.683 302.462 653.767 294.689 653.767C284.725 653.767 276.811 646.729 276.811 636.411V636.426Z" fill="#B0358B"/>
<path d="M312.313 647.393L328.411 625.925H312.313V619.635H337.909V625.373L321.811 646.898H338.262V653.188H312.313V647.393Z" fill="#B0358B"/>
<path d="M351.038 630.645V653.174H343.788V619.635H351.25L367.037 641.358V619.635H374.288V653.174H367.292L351.053 630.645H351.038Z" fill="#B0358B"/>
<path d="M381.029 619.635H405.141V625.769H388.28V633.062H404.773V639.196H388.28V646.983H405.141V653.174H381.029V619.635Z" fill="#B0358B"/>
</g>
<defs>
<clipPath id="clip0_4587_10455">
<rect width="487.31" height="746" fill="white"/>
</clipPath>
</defs>
</svg>
