<svg width="981" height="481" viewBox="0 0 981 481" fill="none" xmlns="http://www.w3.org/2000/svg">
<g clip-path="url(#clip0_4586_9460)">
<path d="M497.5 117.697H453.4V82.3969H581.8V117.697H538V239.397H497.5V117.697Z" fill="#994365"/>
<path d="M601 82.3969H716.2V116.497H641.5V142.597H714.5V176.997H641.5V205.297H716.2V239.397H601V82.3969Z" fill="#994365"/>
<path d="M736.2 82.3969H825.2C856.3 82.3969 871.1 102.597 871.1 122.397C871.1 142.197 859.1 155.097 844.3 158.397C861 160.997 874.2 176.997 874.2 196.797C874.2 216.597 858.9 239.397 828 239.397H736.2V82.3969ZM816.1 143.097C824.3 143.097 830 137.197 830 129.397C830 121.597 824.3 115.997 816.1 115.997H776.8V143.097H816.1ZM817.5 205.697C827.2 205.697 833 199.797 833 191.297C833 182.797 827.3 176.497 817.5 176.497H776.8V205.697H817.5Z" fill="#994365"/>
<path d="M474.7 311.697L471.4 315.697V328.897H462.2V285.897H471.4V305.097L486.5 285.897H497.8L480.8 306.097L499 328.897H487.7L474.7 311.697Z" fill="#994365"/>
<path d="M503.1 285.897H512.4V311.397C512.4 317.397 515.7 321.497 522.4 321.497C529.1 321.497 532.2 317.397 532.2 311.397V285.897H541.5V311.697C541.5 322.397 535.4 329.697 522.4 329.697C509.4 329.697 503.2 322.397 503.2 311.797V285.997L503.1 285.897Z" fill="#994365"/>
<path d="M568.7 293.797H559.1V305.597H568.7C572.4 305.597 575.1 303.297 575.1 299.697C575.1 296.097 572.3 293.797 568.7 293.797ZM559.1 313.497V328.897H550V285.997H570.1C579.1 285.997 584.5 291.897 584.5 299.797C584.5 307.697 579.7 311.397 575.1 312.497L584.8 328.897H574.3L565.9 313.497H559.1Z" fill="#994365"/>
<path d="M593.5 315.897C596.5 318.997 601.2 321.697 607.2 321.697C613.2 321.697 614.7 319.297 614.7 316.897C614.7 314.497 611 312.597 606 311.397C599 309.797 590 307.897 590 298.297C590 288.697 596.2 285.397 606.3 285.397C616.4 285.397 618.8 287.497 623 291.397L617.9 298.097C614.4 294.897 609.8 293.397 605.6 293.397C601.4 293.397 599.3 295.197 599.3 297.797C599.3 300.397 602.9 301.597 607.9 302.797C615 304.397 624 306.497 624 316.097C624 325.697 618.4 329.897 606.8 329.897C595.2 329.897 592.6 327.097 588.6 323.097L593.6 316.097L593.5 315.897Z" fill="#994365"/>
<path d="M641.5 311.297L625 285.997H635.4L646.1 303.197L656.7 285.997H667.1L650.7 311.297V328.897H641.5V311.297Z" fill="#994365"/>
<path d="M378.8 192.797L304.7 118.697H378.8V192.797ZM142.9 144.297L244.1 245.497V330.297L142.9 229.097V144.297ZM217 82.3969L371.2 236.597L278.7 329.097V228.797L257 206.997L132.2 82.2969H106.5V244.097L260.7 398.297L414.9 244.097V82.3969H216.9H217Z" fill="#994365"/>
</g>
<defs>
<clipPath id="clip0_4586_9460">
<rect width="980.8" height="480.7" fill="white"/>
</clipPath>
</defs>
</svg>
