<svg width="981" height="481" viewBox="0 0 981 481" fill="none" xmlns="http://www.w3.org/2000/svg">
<g clip-path="url(#clip0_4587_10430)">
<path d="M498.753 114.5H455.857V79.9688H581.293V114.5H538.397V233.43H498.753V114.5Z" fill="#0077A2"/>
<path d="M599.99 79.9688H712.521V113.321H639.562V138.88H711.055V172.482H639.562V200.079H712.521V233.43H599.99V79.9688Z" fill="#0077A2"/>
<path d="M735.647 79.9688H822.512C852.861 79.9688 867.374 99.7726 867.374 119.076C867.374 138.379 855.649 151.248 841.136 154.287C857.472 156.825 870.377 172.482 870.377 191.785C870.377 214.127 855.399 233.43 825.264 233.43H735.647V79.9688ZM813.682 139.344C815.467 139.424 817.25 139.134 818.918 138.493C820.586 137.852 822.103 136.873 823.375 135.617C824.647 134.362 825.646 132.858 826.309 131.199C826.973 129.54 827.286 127.761 827.23 125.975C827.278 124.204 826.957 122.442 826.287 120.802C825.617 119.162 824.613 117.68 823.338 116.449C822.064 115.218 820.547 114.266 818.885 113.654C817.222 113.041 815.451 112.782 813.682 112.892H774.968V139.344H813.682ZM815.041 200.543C824.478 200.543 830.233 194.788 830.233 186.495C830.262 184.524 829.883 182.569 829.12 180.752C828.357 178.936 827.227 177.296 825.8 175.937C824.374 174.577 822.681 173.527 820.83 172.853C818.978 172.178 817.007 171.894 815.041 172.017H774.968V200.615L815.041 200.543Z" fill="#0077A2"/>
<path fill-rule="evenodd" clip-rule="evenodd" d="M259.64 346.605L142.533 227.782V142.383L301.75 303.888L259.64 346.605ZM412.816 242.939V79.9688H259.64V116.538H376.783V227.782L327.238 278.043L131.988 79.9688H106.5V242.903L259.64 398.296L412.816 242.939Z" fill="#0077A2"/>
<path fill-rule="evenodd" clip-rule="evenodd" d="M457.965 324.088H484.811V316.08H466.938V281.227H457.965V324.088ZM491.103 324.088H500.075V281.191H491.103V324.088ZM528.566 324.874C532.25 324.942 535.88 323.972 539.04 322.076C542.201 320.179 544.764 317.433 546.439 314.15L538.682 310.361C537.719 312.249 536.249 313.831 534.436 314.929C532.624 316.028 530.542 316.6 528.423 316.581C524.904 316.273 521.628 314.658 519.242 312.054C516.856 309.45 515.532 306.046 515.532 302.514C515.532 298.982 516.856 295.579 519.242 292.975C521.628 290.371 524.904 288.756 528.423 288.448C530.539 288.441 532.617 289.018 534.427 290.116C536.237 291.213 537.709 292.788 538.682 294.668L546.582 290.879C544.884 287.635 542.307 284.936 539.146 283.09C535.985 281.244 532.368 280.326 528.709 280.441C522.831 280.441 517.193 282.776 513.037 286.932C508.88 291.088 506.545 296.726 506.545 302.604C506.545 308.482 508.88 314.119 513.037 318.276C517.193 322.432 522.831 324.767 528.709 324.767M552.087 323.98H581.936V316.188H561.06V306.214H581.507V298.386H561.06V289.091H581.936V281.227H552.051L552.087 323.98ZM589.014 306.893C589.014 317.439 595.019 324.767 607.96 324.767C620.9 324.767 626.762 317.618 626.762 306.893V281.227H617.683V306.679C617.683 309.267 616.655 311.749 614.824 313.58C612.994 315.41 610.512 316.438 607.924 316.438C605.336 316.438 602.853 315.41 601.023 313.58C599.193 311.749 598.165 309.267 598.165 306.679V281.227H589.049L589.014 306.893ZM671.839 323.98H680.919V281.084H668.086L657.827 307.823L647.567 281.084H634.984V323.98H643.957V293.238L655.896 324.088H659.793L671.696 293.238L671.839 323.98Z" fill="#0077A2"/>
</g>
<defs>
<clipPath id="clip0_4587_10430">
<rect width="980.8" height="480.7" fill="white"/>
</clipPath>
</defs>
</svg>
