<svg width="981" height="481" viewBox="0 0 981 481" fill="none" xmlns="http://www.w3.org/2000/svg">
<g clip-path="url(#clip0_4587_10458)">
<path d="M980.8 0H0V480.7H980.8V0Z" fill="#B0358B"/>
<path d="M456.529 84.5553V118.927H499.387V237.426H538.804V118.927H581.433V84.5553H456.529Z" fill="white"/>
<path d="M600.224 84.5553V237.426H712.284V204.184H639.642V176.677H710.696V143.223H639.642V117.78H712.284V84.5553H600.224Z" fill="white"/>
<path d="M456.37 84.079V118.538H499.334V237.303H538.84V118.538H581.574V84.079H456.37Z" fill="white"/>
<path d="M600.418 84.079V237.303H712.76V203.99H639.924V176.429H711.137V142.888H639.924V117.374H712.76V84.079H600.418Z" fill="white"/>
<path d="M735.733 84.0613H822.578C852.909 84.0613 867.377 103.823 867.377 123.108C867.377 142.394 855.662 155.045 841.193 158.256C857.497 160.779 870.377 176.412 870.377 195.697C870.377 217.982 855.45 237.285 825.349 237.285H735.751V84.0437H735.733V84.0613ZM813.615 143.346C821.661 143.346 827.166 137.594 827.166 130.025C827.166 122.455 821.661 116.933 813.615 116.933H775.256V143.346H813.615ZM814.991 204.449C824.413 204.449 830.148 198.714 830.148 190.439C830.148 182.623 824.643 175.971 814.991 175.971H775.239V204.449H814.991Z" fill="white"/>
<path d="M456.37 327.306H482.978V319.349H465.28V284.836H456.37V327.306ZM489.206 327.306H498.116V284.836H489.206V327.306ZM526.347 328.065C535.893 328.065 541.151 322.913 544.168 317.62L536.511 313.861C534.746 317.355 530.988 320.037 526.347 320.037C519.06 320.037 513.538 314.108 513.538 306.098C513.538 298.087 519.06 292.159 526.347 292.159C530.988 292.159 534.746 294.894 536.511 298.334L544.168 294.505C541.222 289.212 535.875 284.131 526.347 284.131C514.102 284.131 504.38 293.041 504.38 306.098C504.38 319.155 514.102 328.065 526.347 328.065ZM549.514 327.306H579.139V319.472H558.425V309.609H578.698V301.846H558.425V292.618H579.139V284.854H549.514V327.324V327.306ZM586.109 310.368C586.109 320.813 592.073 328.065 604.882 328.065C617.692 328.065 623.532 320.866 623.532 310.297V284.836H614.499V310.05C614.499 315.979 611.305 320.055 604.9 320.055C598.495 320.055 595.178 315.979 595.178 310.05V284.836H586.144V310.368H586.109ZM668.19 327.306H677.171V284.836H664.608L654.445 311.321L644.282 284.836H631.79V327.306H640.7V296.746L652.504 327.306H656.386L668.19 296.746V327.306Z" fill="white"/>
<path d="M456.37 348.603H476.502C485.854 348.603 490.953 354.832 490.953 362.26C490.953 369.688 485.801 375.793 476.502 375.793H465.545V390.967H456.388V348.603H456.37ZM475.267 356.349H465.527V368.03H475.267C478.884 368.03 481.584 365.736 481.584 362.189C481.584 358.643 478.866 356.349 475.267 356.349Z" fill="white"/>
<path d="M496.634 348.603H505.792V383.027H523.983V390.967H496.634V348.603Z" fill="white"/>
<path d="M557.79 383.662H538.557L535.84 390.967H525.783L542.421 348.603H553.908L570.494 390.967H560.489L557.772 383.662H557.79ZM541.01 375.846H555.266L548.173 356.42L541.01 375.846Z" fill="white"/>
<path d="M576.175 378.14C579.21 381.245 583.921 383.856 589.849 383.856C594.878 383.856 597.331 381.51 597.331 379.093C597.331 375.917 593.59 374.84 588.614 373.693C581.592 372.105 572.558 370.2 572.558 360.742C572.558 353.685 578.751 347.968 588.879 347.968C595.725 347.968 601.389 349.997 605.659 353.879L600.56 360.478C597.084 357.302 592.425 355.837 588.244 355.837C584.062 355.837 581.927 357.619 581.927 360.16C581.927 363.019 585.544 363.901 590.502 365.048C597.595 366.636 606.629 368.735 606.629 378.14C606.629 385.886 601.018 391.726 589.408 391.726C581.151 391.726 575.222 388.991 571.146 384.986L576.175 378.122V378.14Z" fill="white"/>
<path d="M622.368 356.543H609.788V348.603H644.106V356.543H631.596V390.967H622.368V356.543Z" fill="white"/>
<path d="M661.979 373.623L645.394 348.603H655.839L666.549 365.63L677.136 348.603H687.581L671.137 373.623V390.967H661.979V373.623Z" fill="white"/>
<path d="M686.999 369.812C686.999 356.79 697.004 347.897 709.584 347.897C719.394 347.897 724.882 352.979 727.899 358.255L720.029 362.066C718.23 358.643 714.348 355.908 709.584 355.908C702.103 355.908 696.421 361.819 696.421 369.812C696.421 377.804 702.103 383.715 709.584 383.715C714.366 383.715 718.23 381.051 720.029 377.557L727.899 381.298C724.811 386.574 719.377 391.708 709.584 391.708C697.004 391.708 686.999 382.815 686.999 369.794V369.812Z" fill="white"/>
<path d="M731.833 383.662L752.16 356.543H731.833V348.603H764.158V355.837L743.832 383.027H764.599V390.967H731.833V383.662Z" fill="white"/>
<path d="M780.744 362.507V390.967H771.586V348.603H781.008L800.946 376.04V348.603H810.104V390.967H801.264L780.744 362.507Z" fill="white"/>
<path d="M818.608 348.603H849.063V356.349H827.783V365.559H848.621V373.305H827.783V383.151H849.063V390.967H818.608V348.603Z" fill="white"/>
<path d="M259.018 82.2969V119.174H375.647V231.356L288.625 320.813L288.607 320.778L259.018 351.179L142.389 231.356V145.252L153.24 156.403L178.595 130.325L131.873 82.2969H106.5V246.636L259.018 403.336L411.518 246.636V82.2969H259.018Z" fill="white"/>
<path d="M298.753 253.765V253.606L298.682 253.676L187.488 139.447L162.115 165.525L273.468 279.931L273.645 279.737L300.747 280.972L298.771 253.906L298.841 253.835L298.753 253.765Z" fill="white"/>
</g>
<defs>
<clipPath id="clip0_4587_10458">
<rect width="980.8" height="480.7" fill="white"/>
</clipPath>
</defs>
</svg>
