<svg width="981" height="481" viewBox="0 0 981 481" fill="none" xmlns="http://www.w3.org/2000/svg">
<g clip-path="url(#clip0_4586_9579)">
<path d="M980.8 0H0V480.7H980.8V0Z" fill="#E27D00"/>
<path d="M500.797 117.113H457.461V82.3532H583.761V117.113H540.655V236.927H500.797V117.113Z" fill="white"/>
<path d="M602.76 82.3532H716.084V115.956H642.621V141.68H714.461V175.514H642.621V203.324H716.084V236.927H602.76V82.3532Z" fill="white"/>
<path d="M819.208 203.787C828.712 203.787 834.504 197.992 834.504 189.65C834.504 181.771 828.942 175.051 819.208 175.051H779.116V203.787H819.208ZM817.818 142.144C825.93 142.144 831.489 136.349 831.489 128.701C831.489 121.053 825.93 115.492 817.818 115.492H779.116V142.144H817.818ZM739.257 82.3532H826.856C857.447 82.3532 872.048 102.282 872.048 121.748C872.048 140.983 860.228 153.962 845.629 157.207C862.081 159.755 875.06 175.514 875.06 194.98C875.06 217.459 859.997 236.927 829.638 236.927H739.257V82.3532Z" fill="white"/>
<path d="M464.437 315.149C467.476 318.317 472.199 320.968 478.158 320.968C483.199 320.968 485.663 318.578 485.663 316.115C485.663 312.882 481.906 311.782 476.926 310.615C469.875 308.997 460.815 307.059 460.815 297.417C460.815 290.235 467.027 284.408 477.184 284.408C484.042 284.408 489.74 286.479 494.011 290.428L488.896 297.161C485.4 293.923 480.744 292.434 476.537 292.434C472.395 292.434 470.194 294.246 470.194 296.832C470.194 299.746 473.82 300.655 478.804 301.817C485.92 303.433 494.978 305.569 494.978 315.149C494.978 323.039 489.349 328.994 477.699 328.994C469.417 328.994 463.467 326.21 459.392 322.134L464.437 315.149Z" fill="white"/>
<path d="M499.644 320.779L520.031 293.149H499.644V285.059H532.063V292.437L511.685 320.133H532.521V328.223H499.644V320.779Z" fill="white"/>
<path d="M552.061 310.945L548.699 314.955V328.223H539.511V285.057H548.699V304.344L563.971 285.057H575.298L558.148 305.316L576.46 328.223H565.138L552.061 310.945Z" fill="white"/>
<path d="M598.536 292.499C590.578 292.499 585.466 298.585 585.466 306.671C585.466 314.696 590.578 320.842 598.536 320.842C606.495 320.842 611.673 314.696 611.673 306.671C611.673 298.585 606.495 292.499 598.536 292.499ZM598.536 284.343C611.607 284.343 621.117 293.665 621.117 306.671C621.117 319.676 611.607 328.994 598.536 328.994C585.531 328.994 576.017 319.676 576.017 306.671C576.017 293.665 585.531 284.343 598.536 284.343Z" fill="white"/>
<path d="M655.942 320.133V328.223H628.507V313.144L623.846 315.799V308.289L628.507 305.639V285.059H637.695V300.331L642.675 297.482V304.992L637.695 307.836V320.133H655.942Z" fill="white"/>
<path d="M666.171 310.556L649.54 285.057H660.02L670.762 302.401L681.374 285.057H691.857L675.354 310.556V328.223H666.171V310.556Z" fill="white"/>
<path d="M481.328 357.673H471.555V369.577H481.328C484.953 369.577 487.671 367.249 487.671 363.623C487.671 360.063 484.953 357.673 481.328 357.673ZM462.368 349.774H482.555C491.942 349.774 497.05 356.118 497.05 363.689C497.05 371.192 491.878 377.47 482.555 377.47H471.555V392.935H462.368V349.774Z" fill="white"/>
<path d="M523.201 357.219C515.242 357.219 510.126 363.301 510.126 371.391C510.126 379.411 515.242 385.558 523.201 385.558C531.16 385.558 536.337 379.411 536.337 371.391C536.337 363.301 531.16 357.219 523.201 357.219ZM523.201 349.064C536.272 349.064 545.786 358.386 545.786 371.391C545.786 384.395 536.272 393.714 523.201 393.714C510.192 393.714 500.681 384.395 500.681 371.391C500.681 358.386 510.192 349.064 523.201 349.064Z" fill="white"/>
<path d="M552.262 349.774H561.449V384.848H579.701V392.935H552.262V349.774Z" fill="white"/>
<path d="M586.111 349.782H595.301V392.943H586.111V349.782Z" fill="white"/>
<path d="M601.776 371.391C601.776 358.124 611.803 349.064 624.423 349.064C634.261 349.064 639.761 354.245 642.796 359.613L634.908 363.492C633.095 360.002 629.211 357.219 624.423 357.219C616.918 357.219 611.222 363.235 611.222 371.391C611.222 379.542 616.918 385.558 624.423 385.558C629.211 385.558 633.095 382.841 634.908 379.285L642.796 383.102C639.696 388.472 634.261 393.714 624.423 393.714C611.803 393.714 601.776 384.654 601.776 371.391Z" fill="white"/>
<path d="M648.31 349.774H678.85V357.673H657.496V367.051H678.4V374.948H657.496V384.974H678.85V392.935H648.31V349.774Z" fill="white"/>
<path d="M696.718 377.536H711.016L703.904 357.734L696.718 377.536ZM713.544 385.494H694.262L691.542 392.935H681.445L698.143 349.774H709.657L726.288 392.935H716.263L713.544 385.494Z" fill="white"/>
<path d="M730.307 349.774H739.493V384.848H757.745V392.935H730.307V349.774Z" fill="white"/>
<path d="M773.347 363.945V392.935H764.156V349.774H773.609L793.604 377.728V349.774H802.786V392.935H793.923L773.347 363.945Z" fill="white"/>
<path d="M811.337 349.774H841.881V357.673H820.527V367.051H841.428V374.948H820.527V384.974H841.881V392.935H811.337V349.774Z" fill="white"/>
<path d="M377.932 192.783L303.792 118.643H377.932V192.783ZM216.175 82.3516L370.415 236.592L259.983 347.026L142.033 229.077V144.306L247.15 249.425L272.815 223.762L131.403 82.3516H105.742V244.11L259.983 398.352L414.224 244.11V82.3516H216.175Z" fill="white"/>
</g>
<defs>
<clipPath id="clip0_4586_9579">
<rect width="980.8" height="480.7" fill="white"/>
</clipPath>
</defs>
</svg>
