<svg width="1081" height="481" viewBox="0 0 1081 481" fill="none" xmlns="http://www.w3.org/2000/svg">
<g clip-path="url(#clip0_4586_9946)">
<path d="M1081.26 0H0V480.7H1081.26V0Z" fill="#4DBD38"/>
<path d="M499.501 116.877H456.39V82.2969H582.035V116.877H539.151V236.066H499.501V116.877Z" fill="white"/>
<path d="M600.932 82.2976H713.667V115.726H640.586V141.315H712.052V174.974H640.586V202.638H713.667V236.067H600.932V82.2976Z" fill="white"/>
<path d="M816.253 203.1C825.706 203.1 831.469 197.335 831.469 189.038C831.469 181.198 825.937 174.514 816.253 174.514H776.369V203.1H816.253ZM814.87 141.776C822.937 141.776 828.471 136.013 828.471 128.404C828.471 120.797 822.937 115.265 814.87 115.265H776.369V141.776H814.87ZM736.717 82.2978H823.862C854.293 82.2978 868.816 102.123 868.816 121.489C868.816 140.624 857.06 153.533 842.537 156.762C858.902 159.298 871.815 174.974 871.815 194.339C871.815 216.701 856.829 236.067 826.628 236.067H736.717V82.2978Z" fill="white"/>
<path d="M259.946 345.603L142.605 228.264V143.932L302.112 303.438L259.946 345.603ZM353.171 303.438L413.388 243.22V82.2969H259.946V118.402H377.285V228.264L327.641 277.907L132.03 82.2969H106.5V243.22L259.946 396.662L327.641 328.967L396.973 398.297L422.5 372.766L353.171 303.438Z" fill="white"/>
<path d="M461.269 283.95H470.411V318.839H488.562V326.882H461.269V283.95Z" fill="white"/>
<path d="M494.941 283.951H504.083V326.882H494.941V283.951Z" fill="white"/>
<path d="M510.523 305.449C510.523 292.255 520.501 283.242 533.053 283.242C542.838 283.242 548.309 288.388 551.335 293.733L543.48 297.596C541.68 294.119 537.817 291.351 533.053 291.351C525.587 291.351 519.921 297.337 519.921 305.449C519.921 313.559 525.587 319.546 533.053 319.546C537.817 319.546 541.68 316.842 543.48 313.301L551.335 317.101C548.246 322.444 542.838 327.656 533.053 327.656C520.501 327.656 510.523 318.642 510.523 305.449Z" fill="white"/>
<path d="M556.813 283.95H587.198V291.803H565.955V301.139H586.744V308.987H565.955V318.969H587.198V326.882H556.813V283.95Z" fill="white"/>
<path d="M594.349 283.95H603.619V309.437C603.619 315.426 606.905 319.546 613.596 319.546C620.164 319.546 623.448 315.426 623.448 309.437V283.95H632.713V309.696C632.713 320.385 626.599 327.657 613.596 327.657C600.464 327.657 594.349 320.321 594.349 309.76V283.95Z" fill="white"/>
<path d="M678.557 295.984L666.454 326.882H662.464L650.36 295.984V326.882H641.221V283.95H654.03L664.459 310.729L674.889 283.95H687.761V326.882H678.557V295.984Z" fill="white"/>
<path d="M478.2 383.224C486.695 383.224 491.653 377.11 491.653 369.835C491.653 362.238 487.018 356.38 478.2 356.38H470.41V383.224H478.2ZM461.268 348.331H478.2C491.653 348.331 500.987 356.892 500.987 369.835C500.987 382.773 491.653 391.269 478.2 391.269H461.268V348.331Z" fill="white"/>
<path d="M507.496 348.331H516.638V383.224H534.79V391.267H507.496V348.331Z" fill="white"/>
<path d="M551.789 375.949H566.017L558.936 356.25L551.789 375.949ZM568.527 383.867H549.345L546.641 391.268H536.599L553.206 348.332H564.663L581.208 391.268H571.231L568.527 383.867Z" fill="white"/>
<path d="M618.62 383.224C627.116 383.224 632.07 377.11 632.07 369.835C632.07 362.238 627.438 356.38 618.62 356.38H610.828V383.224H618.62ZM601.689 348.331H618.62C632.07 348.331 641.409 356.892 641.409 369.835C641.409 382.773 632.07 391.269 618.62 391.269H601.689V348.331Z" fill="white"/>
<path d="M668.262 355.736C660.339 355.736 655.255 361.786 655.255 369.836C655.255 377.816 660.339 383.933 668.262 383.933C676.175 383.933 681.328 377.816 681.328 369.836C681.328 361.786 676.175 355.736 668.262 355.736ZM668.262 347.627C681.264 347.627 690.724 356.893 690.724 369.836C690.724 382.772 681.264 392.041 668.262 392.041C655.321 392.041 645.855 382.772 645.855 369.836C645.855 356.893 655.321 347.627 668.262 347.627Z" fill="white"/>
<path d="M715.899 356.185H706.308V368.032H715.899C719.571 368.032 722.34 365.716 722.34 362.108C722.34 358.505 719.571 356.185 715.899 356.185ZM713.005 375.885H706.308V391.269H697.169V348.331H717.251C726.199 348.331 731.671 354.191 731.671 362.173C731.671 369.769 726.908 373.824 722.274 374.919L731.931 391.269H721.435L713.005 375.885Z" fill="white"/>
<path d="M758.912 355.736C750.99 355.736 745.906 361.786 745.906 369.836C745.906 377.816 750.99 383.933 758.912 383.933C766.826 383.933 771.98 377.816 771.98 369.836C771.98 361.786 766.826 355.736 758.912 355.736ZM758.912 347.627C771.915 347.627 781.376 356.893 781.376 369.836C781.376 382.772 771.915 392.041 758.912 392.041C745.971 392.041 736.506 382.772 736.506 369.836C736.506 356.893 745.971 347.627 758.912 347.627Z" fill="white"/>
<path d="M789.884 378.265C792.909 381.42 797.607 384.059 803.53 384.059C808.55 384.059 810.996 381.677 810.996 379.231C810.996 376.015 807.263 374.918 802.309 373.759C795.291 372.151 786.277 370.22 786.277 360.631C786.277 353.482 792.457 347.69 802.561 347.69C809.388 347.69 815.05 349.749 819.3 353.677L814.217 360.37C810.739 357.154 806.102 355.672 801.918 355.672C797.798 355.672 795.613 357.475 795.613 360.049C795.613 362.947 799.214 363.847 804.174 365.006C811.257 366.614 820.266 368.739 820.266 378.265C820.266 386.118 814.668 392.041 803.078 392.041C794.839 392.041 788.914 389.274 784.861 385.218L789.884 378.265Z" fill="white"/>
<path d="M854.644 383.224V391.269H827.353V376.271L822.72 378.909V371.442L827.353 368.805V348.331H836.496V363.524L841.45 360.692V368.16L836.496 370.991V383.224H854.644Z" fill="white"/>
<path d="M864.822 373.697L848.277 348.331H858.708L869.393 365.585L879.949 348.331H890.379L873.965 373.697V391.268H864.822V373.697Z" fill="white"/>
<path d="M889.739 369.835C889.739 356.636 899.717 347.628 912.273 347.628C922.055 347.628 927.526 352.773 930.551 358.118L922.698 361.981C920.895 358.506 917.036 355.736 912.273 355.736C904.803 355.736 899.139 361.722 899.139 369.835C899.139 377.944 904.803 383.933 912.273 383.933C917.036 383.933 920.895 381.229 922.698 377.688L930.551 381.486C927.46 386.827 922.055 392.041 912.273 392.041C899.717 392.041 889.739 383.029 889.739 369.835Z" fill="white"/>
<path d="M965.452 373.246H945.173V391.268H936.03V348.331H945.173V365.197H965.452V348.331H974.655V391.268H965.452V373.246Z" fill="white"/>
</g>
<defs>
<clipPath id="clip0_4586_9946">
<rect width="1081" height="481" fill="white"/>
</clipPath>
</defs>
</svg>
