<svg width="981" height="481" viewBox="0 0 981 481" fill="none" xmlns="http://www.w3.org/2000/svg">
<g clip-path="url(#clip0_4586_9624)">
<path d="M980.8 0H0V480.7H980.8V0Z" fill="#009489"/>
<path d="M499.601 116.62H456.49V82.0391H582.134V116.62H539.253V235.808H499.601V116.62Z" fill="white"/>
<path d="M601.032 82.0395H713.765V115.468H640.686V141.058H712.151V174.716H640.686V202.38H713.765V235.809H601.032V82.0395Z" fill="white"/>
<path d="M816.353 202.842C825.806 202.842 831.569 197.077 831.569 188.779C831.569 180.94 826.037 174.256 816.353 174.256H776.469V202.842H816.353ZM814.97 141.52C823.038 141.52 828.57 135.755 828.57 128.147C828.57 120.538 823.038 115.006 814.97 115.006H776.469V141.52H814.97ZM736.818 82.04H823.962C854.393 82.04 868.916 101.865 868.916 121.231C868.916 140.366 857.16 153.275 842.636 156.503C859.002 159.04 871.916 174.717 871.916 194.081C871.916 216.444 856.929 235.808 826.728 235.808H736.818V82.04Z" fill="white"/>
<path d="M463.427 313.625C466.456 316.781 471.153 319.418 477.076 319.418C482.096 319.418 484.543 317.036 484.543 314.589C484.543 311.37 480.809 310.28 475.851 309.119C468.836 307.511 459.824 305.578 459.824 295.985C459.824 288.842 466.004 283.049 476.107 283.049C482.934 283.049 488.598 285.108 492.848 289.037L487.763 295.729C484.287 292.513 479.649 291.031 475.465 291.031C471.345 291.031 469.158 292.831 469.158 295.407C469.158 298.302 472.761 299.206 477.72 300.363C484.799 301.974 493.812 304.098 493.812 313.625C493.812 321.478 488.21 327.401 476.625 327.401C468.385 327.401 462.462 324.633 458.407 320.578L463.427 313.625Z" fill="white"/>
<path d="M498.453 319.226L518.731 291.741H498.453V283.692H530.703V291.032L510.427 318.583H531.155V326.628H498.453V319.226Z" fill="white"/>
<path d="M550.601 309.44L547.256 313.429V326.629H538.112V283.693H547.256V302.874L562.449 283.693H573.713L556.652 303.84L574.87 326.629H563.605L550.601 309.44Z" fill="white"/>
<path d="M596.828 291.097C588.908 291.097 583.824 297.146 583.824 305.191C583.824 313.174 588.908 319.291 596.828 319.291C604.746 319.291 609.895 313.174 609.895 305.191C609.895 297.146 604.746 291.097 596.828 291.097ZM596.828 282.984C609.829 282.984 619.295 292.253 619.295 305.191C619.295 318.131 609.829 327.4 596.828 327.4C583.89 327.4 574.424 318.131 574.424 305.191C574.424 292.253 583.89 282.984 596.828 282.984Z" fill="white"/>
<path d="M653.934 318.583V326.628H626.642V311.63L622.005 314.268V306.803L626.642 304.163V283.692H635.783V298.883L640.74 296.05V303.517L635.783 306.351V318.583H653.934Z" fill="white"/>
<path d="M664.112 309.054L647.567 283.692H657.992L668.679 300.945L679.235 283.692H689.665L673.251 309.054V326.628H664.112V309.054Z" fill="white"/>
<path d="M498.706 360.115L486.604 391.015H482.612L470.51 360.115V391.015H461.366V348.077H474.179L484.608 374.857L495.033 348.077H507.91V391.015H498.706V360.115Z" fill="white"/>
<path d="M516.418 348.078H546.799V355.931H525.557V365.265H546.352V373.119H525.557V383.096H546.799V391.014H516.418V348.078Z" fill="white"/>
<path d="M570.883 382.966C579.38 382.966 584.333 376.85 584.333 369.577C584.333 361.981 579.7 356.125 570.883 356.125H563.091V382.966H570.883ZM553.953 348.078H570.883C584.333 348.078 593.667 356.639 593.667 369.577C593.667 382.513 584.333 391.013 570.883 391.013H553.953V348.078Z" fill="white"/>
<path d="M609.578 373.439L593.033 348.078H603.462L614.149 365.326L624.705 348.078H635.136L618.717 373.439V391.014H609.578V373.439Z" fill="white"/>
<path d="M634.496 369.577C634.496 356.377 644.474 347.37 657.028 347.37C666.81 347.37 672.282 352.519 675.312 357.86L667.454 361.723C665.654 358.246 661.792 355.479 657.028 355.479C649.562 355.479 643.896 361.468 643.896 369.577C643.896 377.685 649.562 383.673 657.028 383.673C661.792 383.673 665.654 380.971 667.454 377.429L675.312 381.227C672.221 386.571 666.81 391.786 657.028 391.786C644.474 391.786 634.496 382.775 634.496 369.577Z" fill="white"/>
<path d="M679.244 383.608L699.521 356.127H679.244V348.078H711.492V355.418L691.216 382.966H711.945V391.013H679.244V383.608Z" fill="white"/>
<path d="M728.046 362.175V391.014H718.902V348.078H728.302L748.193 375.887V348.078H757.331V391.014H748.513L728.046 362.175Z" fill="white"/>
<path d="M765.841 348.078H796.22V355.931H774.98V365.265H795.773V373.119H774.98V383.096H796.22V391.014H765.841V348.078Z" fill="white"/>
<path d="M142.704 228.006V143.675L234.515 235.484L192.35 277.65L142.704 228.006ZM260.046 82.0406V118.145H377.384V228.006L260.046 345.345L217.879 303.18L285.575 235.484L132.13 82.0392H106.6V242.961L166.818 303.18L97.4883 372.509L123.016 398.039L192.35 328.71L260.046 396.404L413.488 242.961V82.0406H260.046Z" fill="white"/>
</g>
<defs>
<clipPath id="clip0_4586_9624">
<rect width="980.8" height="480.7" fill="white"/>
</clipPath>
</defs>
</svg>
