<svg width="488" height="746" viewBox="0 0 488 746" fill="none" xmlns="http://www.w3.org/2000/svg">
<g clip-path="url(#clip0_4587_10452)">
<path d="M487.31 0H0V746H487.31V0Z" fill="#B0358B"/>
<path d="M94.8887 101.156V125.904H125.742V211.198H154.107V125.904H184.805V101.156H94.8887Z" fill="white"/>
<path d="M198.33 101.156V211.198H279.003V187.27H226.696V167.47H277.844V143.386H226.696V125.07H279.003V101.156H198.33Z" fill="white"/>
<path d="M357.852 101.156C379.632 101.156 390.02 115.346 390.02 129.197C390.02 143.047 381.61 152.135 371.208 154.439C382.925 156.248 392.154 167.47 392.154 181.334C392.154 197.333 381.427 211.198 359.817 211.198H295.468V101.156H357.852ZM351.422 143.712C357.202 143.712 361.16 139.585 361.16 134.143C361.16 128.702 357.202 124.745 351.422 124.745H323.876V143.712H351.422ZM352.411 187.595C359.181 187.595 363.294 183.468 363.294 177.532C363.294 171.922 359.336 167.144 352.411 167.144H323.862V187.595H352.411Z" fill="white"/>
<path d="M243.641 234.066V268.961H357.287V375.13L272.501 459.774L272.473 459.76L243.641 488.535L129.996 375.13V293.637L140.582 304.195L165.286 279.504L119.749 234.066H95.03V389.588L243.641 537.874L392.253 389.588V234.066H243.641Z" fill="white"/>
<path d="M282.367 396.33V396.188L282.296 396.259L173.936 288.139L149.231 312.816L257.732 421.091L257.902 420.907L284.303 422.08L282.381 396.471L282.437 396.4L282.367 396.33Z" fill="white"/>
<path d="M95.03 600.979H116.046V594.69H102.068V567.441H95.03V600.979ZM120.95 600.979H127.989V567.441H120.95V600.979ZM150.291 601.587C157.824 601.587 161.993 597.517 164.368 593.333L158.319 590.365C156.934 593.135 153.952 595.241 150.291 595.241C144.539 595.241 140.172 590.563 140.172 584.231C140.172 577.9 144.539 573.222 150.291 573.222C153.952 573.222 156.934 575.384 158.319 578.098L164.368 575.087C162.036 570.918 157.824 566.89 150.291 566.89C140.624 566.89 132.935 573.928 132.935 584.246C132.935 594.563 140.624 601.601 150.291 601.601M168.58 600.979H191.97V594.789H175.618V586.987H191.631V580.854H175.618V573.561H191.97V567.427H168.58V600.979ZM197.482 587.609C197.482 595.849 202.188 601.587 212.308 601.587C222.427 601.587 227.035 595.906 227.035 587.553V567.441H219.897V587.355C219.897 592.033 217.368 595.255 212.308 595.255C207.248 595.255 204.619 592.033 204.619 587.355V567.441H197.482V587.609ZM269.406 600.979V567.441H259.485L251.457 588.358L243.429 567.441H233.564V600.979H240.603V576.84L249.917 600.979H252.983L262.297 576.84V600.979H269.406Z" fill="white"/>
<path d="M95.03 619.635H110.972C118.378 619.635 122.42 624.568 122.42 630.447C122.42 636.327 118.336 641.16 110.972 641.16H102.295V653.174H95.0441V619.635H95.03ZM109.997 625.769H102.28V635.026H109.997C112.852 635.026 115 633.217 115 630.405C115 627.592 112.852 625.783 109.997 625.783V625.769Z" fill="white"/>
<path d="M134.151 619.635V646.884H148.553V653.174H126.886V619.635H134.151Z" fill="white"/>
<path d="M175.335 647.393H160.114L157.965 653.174H149.994L163.181 619.635H172.268L185.398 653.174H177.484L175.335 647.393ZM162.05 641.203H173.342L167.717 625.812L162.05 641.203Z" fill="white"/>
<path d="M189.893 643.012C192.295 645.471 196.026 647.534 200.719 647.534C204.704 647.534 206.64 645.669 206.64 643.761C206.64 641.245 203.672 640.397 199.743 639.493C194.175 638.235 187.023 636.722 187.023 629.232C187.023 623.649 191.928 619.126 199.941 619.126C205.354 619.126 209.849 620.738 213.227 623.805L209.184 629.034C206.428 626.518 202.754 625.359 199.432 625.359C196.111 625.359 194.429 626.773 194.429 628.78C194.429 631.041 197.284 631.748 201.227 632.652C206.852 633.91 214.004 635.563 214.004 643.012C214.004 649.146 209.566 653.767 200.365 653.767C193.822 653.767 189.129 651.605 185.907 648.439L189.893 643.012Z" fill="white"/>
<path d="M226.469 625.91H216.505V619.621H243.684V625.91H233.776V653.159H226.469V625.91Z" fill="white"/>
<path d="M257.845 639.45L244.715 619.635H252.998L261.478 633.118L269.859 619.635H278.141L265.11 639.45V653.174H257.859V639.45H257.845Z" fill="white"/>
<path d="M277.66 636.426C277.66 626.122 285.575 619.07 295.539 619.07C303.298 619.07 307.651 623.098 310.054 627.267L303.821 630.278C302.393 627.564 299.326 625.402 295.539 625.402C289.617 625.402 285.123 630.08 285.123 636.411C285.123 642.743 289.617 647.421 295.539 647.421C299.312 647.421 302.379 645.315 303.821 642.545L310.054 645.513C307.609 649.683 303.312 653.767 295.539 653.767C285.575 653.767 277.66 646.729 277.66 636.411V636.426Z" fill="white"/>
<path d="M313.163 647.393L329.261 625.925H313.163V619.635H338.758V625.373L322.66 646.898H339.112V653.188H313.163V647.393Z" fill="white"/>
<path d="M351.888 630.645V653.174H344.638V619.635H352.1L367.887 641.358V619.635H375.137V653.174H368.141L351.902 630.645H351.888Z" fill="white"/>
<path d="M381.879 619.635H405.99V625.769H389.129V633.062H405.623V639.196H389.129V646.983H405.99V653.174H381.879V619.635Z" fill="white"/>
</g>
<defs>
<clipPath id="clip0_4587_10452">
<rect width="487.31" height="746" fill="white"/>
</clipPath>
</defs>
</svg>
