<svg width="1082" height="481" viewBox="0 0 1082 481" fill="none" xmlns="http://www.w3.org/2000/svg">
<g clip-path="url(#clip0_4586_9950)">
<path d="M499.501 116.932H456.39V82.3516H582.035V116.932H539.151V236.121H499.501V116.932Z" fill="#4DBD38"/>
<path d="M600.932 82.3523H713.667V115.78H640.586V141.37H712.052V175.029H640.586V202.692H713.667V236.122H600.932V82.3523Z" fill="#4DBD38"/>
<path d="M816.253 203.154C825.706 203.154 831.469 197.39 831.469 189.092C831.469 181.253 825.937 174.568 816.253 174.568H776.369V203.154H816.253ZM814.87 141.831C822.937 141.831 828.471 136.068 828.471 128.459C828.471 120.852 822.937 115.32 814.87 115.32H776.369V141.831H814.87ZM736.717 82.3525H823.862C854.293 82.3525 868.816 102.178 868.816 121.544C868.816 140.678 857.06 153.588 842.537 156.817C858.902 159.353 871.815 175.029 871.815 194.394C871.815 216.756 856.829 236.122 826.628 236.122H736.717V82.3525Z" fill="#4DBD38"/>
<path d="M259.946 345.658L142.605 228.318V143.986L302.112 303.493L259.946 345.658ZM353.171 303.493L413.388 243.274V82.3516H259.946V118.456H377.285V228.318L327.641 277.962L132.03 82.3516H106.5V243.274L259.946 396.717L327.641 329.021L396.973 398.352L422.5 372.82L353.171 303.493Z" fill="#4DBD38"/>
<path d="M461.269 284.005H470.411V318.893H488.562V326.937H461.269V284.005Z" fill="#4DBD38"/>
<path d="M494.941 284.005H504.083V326.937H494.941V284.005Z" fill="#4DBD38"/>
<path d="M510.523 305.503C510.523 292.31 520.501 283.297 533.053 283.297C542.838 283.297 548.309 288.442 551.335 293.787L543.48 297.651C541.68 294.174 537.817 291.406 533.053 291.406C525.587 291.406 519.921 297.391 519.921 305.503C519.921 313.614 525.587 319.601 533.053 319.601C537.817 319.601 541.68 316.897 543.48 313.356L551.335 317.155C548.246 322.499 542.838 327.71 533.053 327.71C520.501 327.71 510.523 318.697 510.523 305.503Z" fill="#4DBD38"/>
<path d="M556.813 284.005H587.198V291.858H565.955V301.193H586.744V309.041H565.955V319.023H587.198V326.937H556.813V284.005Z" fill="#4DBD38"/>
<path d="M594.349 284.005H603.619V309.492C603.619 315.481 606.905 319.601 613.596 319.601C620.164 319.601 623.448 315.481 623.448 309.492V284.005H632.713V309.75C632.713 320.439 626.599 327.711 613.596 327.711C600.464 327.711 594.349 320.375 594.349 309.814V284.005Z" fill="#4DBD38"/>
<path d="M678.557 296.038L666.454 326.936H662.464L650.36 296.038V326.936H641.221V284.004H654.03L664.459 310.784L674.889 284.004H687.761V326.936H678.557V296.038Z" fill="#4DBD38"/>
<path d="M478.2 383.278C486.695 383.278 491.653 377.164 491.653 369.889C491.653 362.292 487.018 356.435 478.2 356.435H470.41V383.278H478.2ZM461.268 348.386H478.2C491.653 348.386 500.987 356.947 500.987 369.889C500.987 382.828 491.653 391.323 478.2 391.323H461.268V348.386Z" fill="#4DBD38"/>
<path d="M507.496 348.386H516.638V383.279H534.79V391.322H507.496V348.386Z" fill="#4DBD38"/>
<path d="M551.789 376.004H566.017L558.936 356.304L551.789 376.004ZM568.527 383.922H549.345L546.641 391.322H536.599L553.206 348.386H564.663L581.208 391.322H571.231L568.527 383.922Z" fill="#4DBD38"/>
<path d="M618.62 383.278C627.116 383.278 632.07 377.164 632.07 369.889C632.07 362.292 627.438 356.435 618.62 356.435H610.828V383.278H618.62ZM601.689 348.386H618.62C632.07 348.386 641.409 356.947 641.409 369.889C641.409 382.828 632.07 391.323 618.62 391.323H601.689V348.386Z" fill="#4DBD38"/>
<path d="M668.262 355.791C660.339 355.791 655.255 361.841 655.255 369.89C655.255 377.871 660.339 383.988 668.262 383.988C676.175 383.988 681.328 377.871 681.328 369.89C681.328 361.841 676.175 355.791 668.262 355.791ZM668.262 347.682C681.264 347.682 690.724 356.948 690.724 369.89C690.724 382.827 681.264 392.096 668.262 392.096C655.321 392.096 645.855 382.827 645.855 369.89C645.855 356.948 655.321 347.682 668.262 347.682Z" fill="#4DBD38"/>
<path d="M715.899 356.24H706.308V368.087H715.899C719.571 368.087 722.34 365.771 722.34 362.162C722.34 358.56 719.571 356.24 715.899 356.24ZM713.005 375.939H706.308V391.323H697.169V348.386H717.251C726.199 348.386 731.671 354.246 731.671 362.228C731.671 369.824 726.908 373.878 722.274 374.974L731.931 391.323H721.435L713.005 375.939Z" fill="#4DBD38"/>
<path d="M758.912 355.791C750.99 355.791 745.906 361.841 745.906 369.89C745.906 377.871 750.99 383.988 758.912 383.988C766.826 383.988 771.98 377.871 771.98 369.89C771.98 361.841 766.826 355.791 758.912 355.791ZM758.912 347.682C771.915 347.682 781.376 356.948 781.376 369.89C781.376 382.827 771.915 392.096 758.912 392.096C745.971 392.096 736.506 382.827 736.506 369.89C736.506 356.948 745.971 347.682 758.912 347.682Z" fill="#4DBD38"/>
<path d="M789.884 378.32C792.909 381.475 797.607 384.113 803.53 384.113C808.55 384.113 810.996 381.732 810.996 379.286C810.996 376.07 807.263 374.973 802.309 373.813C795.291 372.206 786.277 370.275 786.277 360.686C786.277 353.536 792.457 347.745 802.561 347.745C809.388 347.745 815.05 349.804 819.3 353.732L814.217 360.425C810.739 357.209 806.102 355.727 801.918 355.727C797.798 355.727 795.613 357.529 795.613 360.104C795.613 363.002 799.214 363.902 804.174 365.061C811.257 366.668 820.266 368.793 820.266 378.32C820.266 386.173 814.668 392.095 803.078 392.095C794.839 392.095 788.914 389.329 784.861 385.273L789.884 378.32Z" fill="#4DBD38"/>
<path d="M854.644 383.278V391.323H827.353V376.326L822.72 378.964V371.497L827.353 368.86V348.386H836.496V363.579L841.45 360.746V368.215L836.496 371.046V383.278H854.644Z" fill="#4DBD38"/>
<path d="M864.822 373.752L848.277 348.386H858.708L869.393 365.64L879.949 348.386H890.379L873.965 373.752V391.322H864.822V373.752Z" fill="#4DBD38"/>
<path d="M889.739 369.89C889.739 356.691 899.717 347.683 912.273 347.683C922.055 347.683 927.526 352.827 930.551 358.172L922.698 362.036C920.895 358.56 917.036 355.791 912.273 355.791C904.803 355.791 899.139 361.776 899.139 369.89C899.139 377.999 904.803 383.988 912.273 383.988C917.036 383.988 920.895 381.283 922.698 377.742L930.551 381.54C927.46 386.881 922.055 392.095 912.273 392.095C899.717 392.095 889.739 383.083 889.739 369.89Z" fill="#4DBD38"/>
<path d="M965.452 373.301H945.173V391.323H936.03V348.386H945.173V365.251H965.452V348.386H974.655V391.323H965.452V373.301Z" fill="#4DBD38"/>
</g>
<defs>
<clipPath id="clip0_4586_9950">
<rect width="1081.26" height="480.7" fill="white"/>
</clipPath>
</defs>
</svg>
