<svg width="981" height="481" viewBox="0 0 981 481" fill="none" xmlns="http://www.w3.org/2000/svg">
<g clip-path="url(#clip0_4586_9643)">
<path d="M502.082 117.057H458.748V82.298H585.044V117.057H541.939V236.865H502.082V117.057Z" fill="#672290"/>
<path d="M604.041 82.2973H717.36V115.899H643.899V141.622H715.737V175.456H643.899V203.263H717.36V236.866H604.041V82.2973Z" fill="#672290"/>
<path d="M820.481 203.727C829.983 203.727 835.775 197.933 835.775 189.591C835.775 181.712 830.215 174.993 820.481 174.993H780.389V203.727H820.481ZM819.089 142.085C827.2 142.085 832.762 136.292 832.762 128.644C832.762 120.997 827.2 115.437 819.089 115.437H780.389V142.085H819.089ZM740.532 82.2969H828.129C858.719 82.2969 873.317 102.226 873.317 121.692C873.317 140.926 861.5 153.903 846.901 157.148C863.352 159.698 876.331 175.457 876.331 194.921C876.331 217.4 861.269 236.866 830.91 236.866H740.532V82.2969Z" fill="#672290"/>
<path d="M474.327 312.757H488.628L481.511 292.956L474.327 312.757ZM491.152 320.715H471.87L469.15 328.158H459.058L475.752 284.998H487.268L503.898 328.158H493.869L491.152 320.715Z" fill="#672290"/>
<path d="M520.471 310.88L517.106 314.892V328.157H507.918V284.997H517.106V304.281L532.375 284.997H543.7L526.552 305.25L544.865 328.157H533.543L520.471 310.88Z" fill="#672290"/>
<path d="M559.753 312.757H574.054L566.937 292.956L559.753 312.757ZM576.578 320.715H557.297L554.577 328.158H544.484L561.177 284.998H572.695L589.325 328.158H579.295L576.578 320.715Z" fill="#672290"/>
<path d="M610.363 320.069C618.903 320.069 623.884 313.92 623.884 306.611C623.884 298.975 619.225 293.085 610.363 293.085H602.532V320.069H610.363ZM593.343 284.997H610.363C623.884 284.997 633.269 293.603 633.269 306.611C633.269 319.616 623.884 328.157 610.363 328.157H593.343V284.997Z" fill="#672290"/>
<path d="M639.812 284.998H670.353V292.893H649V302.274H669.9V310.168H649V320.198H670.353V328.157H639.812V284.998Z" fill="#672290"/>
<path d="M715.073 297.098L702.907 328.157H698.895L686.731 297.098V328.157H677.543V284.998H690.421L700.902 311.915L711.384 284.998H724.326V328.157H715.073V297.098Z" fill="#672290"/>
<path d="M732.878 284.997H742.066V328.157H732.878V284.997Z" fill="#672290"/>
<path d="M761.287 312.757H775.589L768.471 292.956L761.287 312.757ZM778.111 320.715H758.829L756.11 328.158H746.018L762.711 284.998H774.228L790.858 328.158H780.829L778.111 320.715Z" fill="#672290"/>
<path d="M463.652 349.717H472.84V392.877H463.652V349.717Z" fill="#672290"/>
<path d="M481.384 349.717H490.572V392.877H481.384V349.717Z" fill="#672290"/>
<path d="M499.117 349.717H508.305V392.877H499.117V349.717Z" fill="#672290"/>
<path d="M558.848 363.241L551.341 392.876H541.571L529.212 349.717H539.501L547.071 380.907L555.288 349.717H562.471L570.623 380.907L578.129 349.717H588.482L576.188 392.876H566.418L558.848 363.241Z" fill="#672290"/>
<path d="M592.827 349.717H602.017V392.877H592.827V349.717Z" fill="#672290"/>
<path d="M610.562 349.717H641.103V357.612H619.75V366.993H640.649V374.888H619.75V384.918H641.103V392.876H610.562V349.717Z" fill="#672290"/>
<path d="M660.847 375.599L657.48 379.613V392.876H648.293V349.717H657.48V369.001L672.75 349.717H684.074L666.928 369.969L685.241 392.876H673.917L660.847 375.599Z" fill="#672290"/>
<path d="M689.453 349.717H698.77V375.341C698.77 381.357 702.07 385.499 708.799 385.499C715.4 385.499 718.7 381.357 718.7 375.341V349.717H728.018V375.6C728.018 386.342 721.87 393.653 708.799 393.653C695.601 393.653 689.453 386.277 689.453 375.664V349.717Z" fill="#672290"/>
<path d="M379.228 229.022L261.279 346.972L143.331 229.022V144.253L279.425 280.348V118.59H379.228V229.022ZM243.134 82.2986V192.731L132.7 82.2972H107.039V244.056L261.279 398.297L415.52 244.056V82.2986H243.134Z" fill="#672290"/>
</g>
<defs>
<clipPath id="clip0_4586_9643">
<rect width="980.8" height="480.7" fill="white"/>
</clipPath>
</defs>
</svg>
