<svg width="487" height="746" viewBox="0 0 487 746" fill="none" xmlns="http://www.w3.org/2000/svg">
<g clip-path="url(#clip0_4586_9755)">
<path d="M127.782 125.464H97.0911V101.156H186.537V125.464H156.011V209.247H127.782V125.464Z" fill="#672290"/>
<path d="M199.991 101.156H280.248V124.655H228.221V142.643H279.098V166.303H228.221V185.749H280.248V209.247H199.991V101.156Z" fill="#672290"/>
<path d="M353.279 186.073C360.01 186.073 364.112 182.021 364.112 176.187C364.112 170.677 360.173 165.979 353.279 165.979H324.885V186.073H353.279ZM352.294 142.967C358.039 142.967 361.976 138.915 361.976 133.567C361.976 128.219 358.039 124.33 352.294 124.33H324.885V142.967H352.294ZM296.658 101.157H358.695C380.36 101.157 390.699 115.092 390.699 128.706C390.699 142.156 382.33 151.23 371.99 153.501C383.642 155.283 392.835 166.303 392.835 179.914C392.835 195.634 382.165 209.247 360.666 209.247H296.658V101.157Z" fill="#672290"/>
<path d="M106.694 579.496H118.139L112.443 563.85L106.694 579.496ZM120.158 585.784H104.726L102.551 591.663H94.4727L107.833 557.562H117.051L130.359 591.663H122.333L120.158 585.784Z" fill="#672290"/>
<path d="M143.614 578.013L140.922 581.182V591.664H133.568V557.562H140.922V572.797L153.142 557.562H162.204L148.482 573.564L163.136 591.664H154.074L143.614 578.013Z" fill="#672290"/>
<path d="M175.045 579.496H186.489L180.793 563.85L175.045 579.496ZM188.508 585.784H173.077L170.902 591.663H162.823L176.183 557.562H185.402L198.709 591.663H190.683L188.508 585.784Z" fill="#672290"/>
<path d="M215.538 585.272C222.374 585.272 226.361 580.415 226.361 574.638C226.361 568.605 222.632 563.953 215.538 563.953H209.272V585.272H215.538ZM201.919 557.562H215.538C226.361 557.562 233.87 564.362 233.87 574.638C233.87 584.914 226.361 591.663 215.538 591.663H201.919V557.562Z" fill="#672290"/>
<path d="M239.097 557.561H263.54V563.798H246.452V571.213H263.177V577.451H246.452V585.376H263.54V591.664H239.097V557.561Z" fill="#672290"/>
<path d="M299.32 567.122L289.584 591.663H286.375L276.639 567.122V591.663H269.286V557.561H279.59L287.98 578.83L296.369 557.561H306.726V591.663H299.32V567.122Z" fill="#672290"/>
<path d="M313.559 557.562H320.914V591.665H313.559V557.562Z" fill="#672290"/>
<path d="M336.291 579.496H347.736L342.04 563.85L336.291 579.496ZM349.755 585.784H334.323L332.148 591.663H324.07L337.43 557.562H346.648L359.956 591.663H351.93L349.755 585.784Z" fill="#672290"/>
<path d="M98.1496 608.691H105.504V642.794H98.1496V608.691Z" fill="#672290"/>
<path d="M112.336 608.691H119.691V642.794H112.336V608.691Z" fill="#672290"/>
<path d="M126.524 608.691H133.879V642.794H126.524V608.691Z" fill="#672290"/>
<path d="M174.32 619.377L168.312 642.793H160.493L150.601 608.691H158.835L164.895 633.333L171.471 608.691H177.22L183.744 633.333L189.75 608.691H198.037L188.197 642.793H180.378L174.32 619.377Z" fill="#672290"/>
<path d="M201.504 608.691H208.858V642.794H201.504V608.691Z" fill="#672290"/>
<path d="M215.691 608.691H240.134V614.928H223.046V622.342H239.77V628.579H223.046V636.505H240.134V642.793H215.691V608.691Z" fill="#672290"/>
<path d="M255.926 629.142L253.234 632.311V642.793H245.879V608.691H253.234V623.926L265.454 608.691H274.516L260.794 624.694L275.448 642.793H266.386L255.926 629.142Z" fill="#672290"/>
<path d="M278.812 608.691H286.27V628.938C286.27 633.692 288.91 636.966 294.297 636.966C299.578 636.966 302.219 633.692 302.219 628.938V608.691H309.676V629.142C309.676 637.628 304.757 643.406 294.297 643.406C283.733 643.406 278.812 637.577 278.812 629.193V608.691Z" fill="#672290"/>
<path d="M358.011 369.523L244.96 481.15L131.91 369.523V289.297L262.352 418.096V265.011H358.011V369.523ZM227.569 230.663V335.177L121.721 230.662H97.1256V383.75L244.96 529.722L392.796 383.75V230.663H227.569Z" fill="#672290"/>
</g>
<defs>
<clipPath id="clip0_4586_9755">
<rect width="487" height="746" fill="white"/>
</clipPath>
</defs>
</svg>
