<svg width="488" height="746" viewBox="0 0 488 746" fill="none" xmlns="http://www.w3.org/2000/svg">
<g clip-path="url(#clip0_4586_9769)">
<path d="M126.298 125.628H95.7909V101.157H184.704V125.628H154.358V209.974H126.298V125.628Z" fill="#E27D00"/>
<path d="M198.077 101.157H277.855V124.812H226.139V142.922H276.711V166.74H226.139V186.318H277.855V209.973H198.077V101.157Z" fill="#E27D00"/>
<path d="M350.452 186.644C357.142 186.644 361.219 182.565 361.219 176.692C361.219 171.146 357.304 166.415 350.452 166.415H322.227V186.644H350.452ZM349.473 143.248C355.184 143.248 359.097 139.169 359.097 133.785C359.097 128.402 355.184 124.486 349.473 124.486H322.227V143.248H349.473ZM294.167 101.156H355.835C377.37 101.156 387.649 115.187 387.649 128.892C387.649 142.431 379.329 151.568 369.05 153.852C380.632 155.647 389.77 166.741 389.77 180.444C389.77 196.27 379.166 209.974 357.794 209.974H294.167V101.156Z" fill="#E27D00"/>
<path d="M98.4859 584.572C100.906 587.091 104.662 589.2 109.395 589.2C113.408 589.2 115.363 587.298 115.363 585.346C115.363 582.772 112.377 581.895 108.417 580.97C102.809 579.682 95.6065 578.14 95.6065 570.473C95.6065 564.76 100.546 560.132 108.621 560.132C114.077 560.132 118.603 561.779 121.999 564.918L117.932 570.267C115.156 567.694 111.45 566.51 108.109 566.51C104.814 566.51 103.065 567.955 103.065 570.011C103.065 572.326 105.948 573.046 109.907 573.974C115.567 575.26 122.772 576.956 122.772 584.572C122.772 590.848 118.297 595.584 109.034 595.584C102.449 595.584 97.7165 593.371 94.4727 590.129L98.4859 584.572Z" fill="#E27D00"/>
<path d="M126.49 589.048L142.694 567.078H126.49V560.649H152.267V566.51L136.059 588.531H152.626V594.963H126.49V589.048Z" fill="#E27D00"/>
<path d="M168.175 581.226L165.503 584.418V594.964H158.197V560.65H165.503V575.979L177.645 560.65H186.65L173.015 576.753L187.573 594.964H178.57L168.175 581.226Z" fill="#E27D00"/>
<path d="M205.132 566.565C198.803 566.565 194.737 571.401 194.737 577.832C194.737 584.213 198.803 589.097 205.132 589.097C211.462 589.097 215.577 584.213 215.577 577.832C215.577 571.401 211.462 566.565 205.132 566.565ZM205.132 560.081C215.524 560.081 223.09 567.487 223.09 577.832C223.09 588.171 215.524 595.584 205.132 595.584C194.79 595.584 187.229 588.171 187.229 577.832C187.229 567.487 194.79 560.081 205.132 560.081Z" fill="#E27D00"/>
<path d="M250.784 588.531V594.963H228.971V582.975L225.265 585.085V579.119L228.971 577.006V560.649H236.276V572.791L240.239 570.527V576.492L236.276 578.759V588.531H250.784Z" fill="#E27D00"/>
<path d="M258.924 580.919L245.703 560.649H254.035L262.577 574.437L271.016 560.649H279.351L266.229 580.919V594.964H258.924V580.919Z" fill="#E27D00"/>
<path d="M111.914 618.396H104.145V627.865H111.914C114.797 627.865 116.956 626.012 116.956 623.129C116.956 620.303 114.797 618.396 111.914 618.396ZM96.8393 612.122H112.894C120.352 612.122 124.42 617.163 124.42 623.182C124.42 629.152 120.303 634.14 112.894 634.14H104.145V646.44H96.8393V612.122Z" fill="#E27D00"/>
<path d="M145.217 618.037C138.889 618.037 134.822 622.877 134.822 629.304C134.822 635.685 138.889 640.573 145.217 640.573C151.547 640.573 155.662 635.685 155.662 629.304C155.662 622.877 151.547 618.037 145.217 618.037ZM145.217 611.553C155.609 611.553 163.175 618.963 163.175 629.304C163.175 639.648 155.609 647.056 145.217 647.056C134.875 647.056 127.314 639.648 127.314 629.304C127.314 618.963 134.875 611.553 145.217 611.553Z" fill="#E27D00"/>
<path d="M168.336 612.121H175.641V640.008H190.15V646.439H168.336V612.121Z" fill="#E27D00"/>
<path d="M195.257 612.121H202.562V646.439H195.257V612.121Z" fill="#E27D00"/>
<path d="M207.713 629.305C207.713 618.755 215.688 611.554 225.721 611.554C233.543 611.554 237.916 615.669 240.331 619.944L234.056 623.03C232.616 620.249 229.53 618.037 225.721 618.037C219.751 618.037 215.225 622.822 215.225 629.305C215.225 635.787 219.751 640.573 225.721 640.573C229.53 640.573 232.616 638.414 234.056 635.581L240.331 638.616C237.861 642.887 233.543 647.056 225.721 647.056C215.688 647.056 207.713 639.854 207.713 629.305Z" fill="#E27D00"/>
<path d="M244.723 612.121H269.006V618.395H252.028V625.859H268.646V632.135H252.028V640.11H269.006V646.439H244.723V612.121Z" fill="#E27D00"/>
<path d="M283.218 634.194H294.591L288.932 618.451L283.218 634.194ZM296.597 640.519H281.266L279.103 646.44H271.078L284.352 612.121H293.511L306.732 646.44H298.756L296.597 640.519Z" fill="#E27D00"/>
<path d="M309.937 612.121H317.241V640.008H331.754V646.439H309.937V612.121Z" fill="#E27D00"/>
<path d="M344.164 623.389V646.44H336.858V612.122H344.366L360.267 634.348V612.122H367.573V646.44H360.524L344.164 623.389Z" fill="#E27D00"/>
<path d="M374.38 612.121H398.668V618.395H381.686V625.859H398.308V632.135H381.686V640.11H398.668V646.439H374.38V612.121Z" fill="#E27D00"/>
<path d="M355.159 336.749L284.519 266.111H355.159V336.749ZM201.042 231.534L347.997 378.489L242.78 483.707L130.402 371.329V290.561L230.555 390.716L255.006 366.265L120.275 231.534H95.8252V385.651L242.78 532.607L389.737 385.651V231.534H201.042Z" fill="#E27D00"/>
</g>
<defs>
<clipPath id="clip0_4586_9769">
<rect width="488" height="746" fill="white"/>
</clipPath>
</defs>
</svg>
