<svg width="488" height="746" viewBox="0 0 488 746" fill="none" xmlns="http://www.w3.org/2000/svg">
<g clip-path="url(#clip0_4586_7903)">
<path d="M196.17 95.7578H275.16V119.178H223.95V137.108H274.03V160.698H223.95V180.078H275.16V203.498H196.17V95.7578Z" fill="#994365"/>
<path d="M347.04 180.408C353.66 180.408 357.7 176.368 357.7 170.558C357.7 165.068 353.82 160.378 347.04 160.378H319.09V180.408H347.04ZM346.07 137.438C351.72 137.438 355.6 133.398 355.6 128.068C355.6 122.738 351.72 118.858 346.07 118.858H319.09V137.438H346.07ZM291.31 95.7578H352.37C373.69 95.7578 383.87 109.648 383.87 123.218C383.87 136.788 375.63 145.668 365.45 147.938C376.92 149.718 385.97 160.698 385.97 174.268C385.97 189.938 375.47 203.508 354.31 203.508H291.31V95.7578Z" fill="#994365"/>
<path d="M125.09 119.988H94.88V95.7578H182.92V119.988H152.87V203.508H125.09V119.988Z" fill="#994365"/>
<path d="M170.5 576.208L167.9 579.318V589.578H160.8V556.198H167.9V571.108L179.71 556.198H188.47L175.21 571.858L189.36 589.578H180.61L170.5 576.208Z" fill="#994365"/>
<path d="M192.62 556.198H199.82V576.018C199.82 580.668 202.37 583.868 207.57 583.868C212.77 583.868 215.23 580.668 215.23 576.018V556.198H222.44V576.208C222.44 584.518 217.69 590.168 207.58 590.168C197.47 590.168 192.62 584.458 192.62 576.258V556.198Z" fill="#994365"/>
<path d="M243.61 562.298H236.15V571.508H243.61C246.46 571.508 248.62 569.708 248.62 566.908C248.62 564.108 246.46 562.298 243.61 562.298ZM241.36 577.618H236.15V589.578H229.05V556.198H244.66C251.61 556.198 255.87 560.748 255.87 566.958C255.87 573.168 252.17 576.018 248.57 576.868L256.07 589.578H247.91L241.36 577.618Z" fill="#994365"/>
<path d="M262.82 579.468C265.17 581.918 268.82 583.968 273.43 583.968C277.33 583.968 279.23 582.118 279.23 580.218C279.23 577.718 276.33 576.868 272.48 575.968C267.02 574.718 260.02 573.218 260.02 565.758C260.02 560.208 264.83 555.698 272.68 555.698C277.99 555.698 282.39 557.298 285.69 560.348L281.74 565.548C279.04 563.048 275.43 561.898 272.18 561.898C268.93 561.898 267.28 563.298 267.28 565.298C267.28 567.548 270.08 568.248 273.94 569.148C279.44 570.398 286.45 572.048 286.45 579.458C286.45 585.568 282.1 590.168 273.09 590.168C266.69 590.168 262.08 588.018 258.93 584.868L262.83 579.468H262.82Z" fill="#994365"/>
<path d="M300.2 575.908L287.34 556.198H295.44L303.75 569.608L311.96 556.198H320.06L307.3 575.908V589.568H300.2V575.908Z" fill="#994365"/>
<path d="M224.51 462.048L128.45 365.988V285.508L224.51 381.568V462.048ZM118.36 226.698H94V380.268L240.44 526.708L386.87 380.268V226.698H198.84L345.28 373.128L257.45 460.958V365.778L118.36 226.698ZM352.41 331.538L282.02 261.148H352.41V331.538Z" fill="#994365"/>
</g>
<defs>
<clipPath id="clip0_4586_7903">
<rect width="488" height="746" fill="white"/>
</clipPath>
</defs>
</svg>
