<svg width="488" height="746" viewBox="0 0 488 746" fill="none" xmlns="http://www.w3.org/2000/svg">
<g clip-path="url(#clip0_4587_10421)">
<path d="M487.31 0H0V746H487.31V0Z" fill="#0177A3"/>
<path d="M126.734 125.847H96.0936V101.156H185.379V125.847H154.906V210.941H126.726V125.847H126.734Z" fill="white"/>
<path d="M198.811 101.156H278.927V125.022H226.991V143.287H277.781V167.321H226.991V187.069H278.927V210.934H198.811V101.156Z" fill="white"/>
<path d="M295.302 101.156H357.232C378.856 101.156 389.179 115.312 389.179 129.139C389.179 142.966 380.827 152.019 370.504 154.318C382.134 156.129 391.311 167.321 391.311 181.148C391.311 197.114 380.659 210.941 359.203 210.941H295.309V101.156H295.302ZM350.844 143.623C356.575 143.623 360.51 139.506 360.51 134.074C360.51 128.643 356.575 124.693 350.844 124.693H323.482V143.623H350.844ZM351.822 187.397C358.539 187.397 362.634 183.28 362.634 177.359C362.634 171.759 358.699 166.992 351.822 166.992H323.482V187.397H351.822Z" fill="white"/>
<path fill-rule="evenodd" clip-rule="evenodd" d="M243.57 489.584L130.719 375.097V292.814L284.117 448.438L243.563 489.584H243.57ZM391.135 389.691V232.679H243.563V267.904H356.414V375.097L308.669 423.536L120.55 232.687H95.998V389.698L243.57 539.41L391.143 389.698L391.135 389.691Z" fill="white"/>
<path fill-rule="evenodd" clip-rule="evenodd" d="M153.665 599.328H175.369V592.838H160.936V564.695H153.665V599.335V599.328ZM180.436 599.328H187.707V564.687H180.436V599.328ZM210.733 599.949C218.515 599.949 222.815 595.744 225.268 591.429L219.026 588.363C217.595 591.217 214.522 593.4 210.733 593.4C204.798 593.4 200.293 588.567 200.293 582.026C200.293 575.485 204.798 570.652 210.733 570.652C214.522 570.652 217.595 572.886 219.026 575.689L225.268 572.572C222.859 568.265 218.508 564.111 210.733 564.111C200.753 564.111 192.817 571.382 192.817 582.026C192.817 592.67 200.753 599.941 210.733 599.941M229.627 599.328H253.784V592.94H236.891V584.888H253.426V578.551H236.891V571.024H253.784V564.687H229.627V599.328ZM259.464 585.516C259.464 594.035 264.326 599.949 274.766 599.949C285.205 599.949 289.965 594.079 289.965 585.457V564.687H282.592V585.253C282.592 590.078 279.978 593.407 274.758 593.407C269.538 593.407 266.823 590.086 266.823 585.253V564.687H259.449V585.508L259.464 585.516ZM326.417 599.328H333.739V564.687H323.504L315.21 586.289L306.917 564.687H296.733V599.328H304.004V574.404L313.626 599.328H316.802L326.424 574.404V599.328H326.417Z" fill="white"/>
</g>
<defs>
<clipPath id="clip0_4587_10421">
<rect width="487.31" height="746" fill="white"/>
</clipPath>
</defs>
</svg>
