<svg width="488" height="746" viewBox="0 0 488 746" fill="none" xmlns="http://www.w3.org/2000/svg">
<g clip-path="url(#clip0_4587_10384)">
<path d="M487.31 0H0V746H487.31V0Z" fill="#214797"/>
<path fill-rule="evenodd" clip-rule="evenodd" d="M150.187 613.956C160.778 613.956 168.48 621.391 168.48 631.758C168.48 642.124 160.778 649.56 150.187 649.56C139.596 649.559 131.951 642.124 131.951 631.758C131.951 621.391 139.652 613.956 150.187 613.956ZM150.187 620.452C143.735 620.452 139.597 625.305 139.597 631.744C139.597 638.182 143.735 643.036 150.187 643.036C156.64 643.036 160.82 638.14 160.82 631.744C160.82 625.347 156.626 620.452 150.187 620.452Z" fill="white"/>
<path fill-rule="evenodd" clip-rule="evenodd" d="M235.084 613.956C245.675 613.956 253.376 621.391 253.376 631.758C253.376 642.124 245.675 649.559 235.084 649.56C224.493 649.56 216.848 642.124 216.848 631.758C216.848 621.391 224.549 613.956 235.084 613.956ZM235.084 620.452C228.631 620.452 224.492 625.305 224.492 631.744C224.492 638.183 228.632 643.036 235.084 643.036C241.537 643.036 245.717 638.14 245.717 631.744C245.717 625.347 241.523 620.452 235.084 620.452Z" fill="white"/>
<path fill-rule="evenodd" clip-rule="evenodd" d="M109.787 614.517C120.743 614.517 128.346 621.377 128.346 631.744C128.345 642.11 120.743 648.928 109.787 648.928H95.998V614.517H109.787ZM103.446 642.461H109.787V642.474C116.703 642.474 120.742 637.579 120.743 631.744C120.743 625.908 116.97 620.956 109.787 620.956H103.446V642.461Z" fill="white"/>
<path d="M192.65 635.98L201.137 614.517H211.615V648.928H204.124V624.168L194.276 648.928H191.023L181.174 624.168V648.928H173.726V614.517H184.162L192.65 635.98Z" fill="white"/>
<path d="M268.68 639.389L275.329 614.517H281.151L287.758 639.389L293.832 614.517H302.22L292.261 648.928H284.349L278.22 625.305L272.146 648.928H264.233L254.218 614.517H262.551L268.68 639.389Z" fill="white"/>
<path fill-rule="evenodd" clip-rule="evenodd" d="M338.342 648.928H330.22L328.018 642.994H312.404L310.203 648.928H302.024L315.547 614.517H324.876L338.342 648.928ZM314.382 636.654H325.97L320.204 620.872L314.382 636.654Z" fill="white"/>
<path d="M171.734 583.166C171.735 587.963 174.414 591.259 179.857 591.259C185.299 591.259 187.88 587.963 187.88 583.166V562.741H195.427V583.375C195.427 591.932 190.447 597.767 179.857 597.768C169.266 597.768 164.188 591.89 164.188 583.432V562.741H171.734V583.166Z" fill="white"/>
<path d="M326.081 585.859C326.081 594.009 320.948 597.768 313.766 597.768C310.203 597.768 306.906 596.842 304.381 594.415L307.63 588.798C308.99 590.085 310.769 591.273 313.177 591.273C316.473 591.273 318.633 589.113 318.633 585.76V562.754H326.081V585.859Z" fill="white"/>
<path d="M288.179 562.165C296.147 562.165 300.594 566.29 303.063 570.568L296.665 573.668C295.192 570.877 292.05 568.66 288.179 568.66C282.105 568.66 277.49 573.459 277.49 579.953C277.49 586.448 282.105 591.246 288.179 591.246C292.051 591.246 295.207 589.085 296.665 586.237L303.063 589.281C300.552 593.56 296.147 597.74 288.179 597.74C278.113 597.74 270.085 590.74 269.836 580.433L269.83 579.967C269.83 569.39 277.953 562.165 288.179 562.165Z" fill="white"/>
<path d="M120.729 569.039H103.433V576.516H120.364V582.815H103.433V590.81H120.729V597.151H95.998V562.741H120.729V569.039Z" fill="white"/>
<path fill-rule="evenodd" clip-rule="evenodd" d="M140.34 562.741C151.296 562.741 158.898 569.601 158.898 579.967C158.898 590.333 151.296 597.151 140.34 597.151H126.551V562.741H140.34ZM133.999 590.684H140.34V590.699C147.256 590.699 151.295 585.802 151.296 579.967C151.296 574.132 147.522 569.179 140.34 569.179H133.999V590.684Z" fill="white"/>
<path fill-rule="evenodd" clip-rule="evenodd" d="M209.778 578.115L222.15 562.741H231.324L217.437 578.886L232.046 596.883L245.464 562.741H254.793L268.259 597.151H260.137L257.936 591.217H242.321L240.12 597.151H223.089L212.499 583.375L209.778 586.574V597.151H202.328V562.741H209.778V578.115ZM244.315 584.877H255.901L250.135 569.096L244.315 584.877Z" fill="white"/>
<path fill-rule="evenodd" clip-rule="evenodd" d="M365.584 597.151H357.462L355.26 591.217H339.647L337.445 597.151H329.266L342.789 562.741H352.118L365.584 597.151ZM341.639 584.877H353.226L347.46 569.096L341.639 584.877Z" fill="white"/>
<path d="M307.63 588.798C307.628 588.795 307.624 588.793 307.622 588.791H307.636L307.63 588.798Z" fill="white"/>
<path fill-rule="evenodd" clip-rule="evenodd" d="M216.682 329.22L226.288 338.801V232.12H391.283V388.571L243.654 537.771L96.0405 388.571V232.12H120.589L216.682 329.22ZM130.759 374.039L243.654 488.128H243.668L284.223 447.137L130.759 292.047V374.039ZM261 373.46L309.404 421.885L356.73 373.885V267.101H261V373.46Z" fill="white"/>
<path d="M185.313 125.732H185.201V126.028H154.831V210.474H154.802V210.546H126.677V210.474H126.648V126.028H96.0967V125.732H95.998V101.156H185.313V125.732Z" fill="white"/>
<path d="M278.892 124.92H278.555V125.199H226.933V143.114H277.742V167.044H277.42V167.227H226.933V186.698H278.892V210.474H278.555V210.546H198.612V101.493H198.752V101.156H278.892V124.92Z" fill="white"/>
<path fill-rule="evenodd" clip-rule="evenodd" d="M357.223 101.156C378.854 101.156 389.179 115.255 389.179 129.016C389.179 142.777 380.818 151.797 370.494 154.084C382.122 155.893 391.31 167.03 391.311 180.791C391.311 196.685 380.65 210.461 359.188 210.461H295.263V101.156H357.223ZM323.473 187.034H351.823C358.542 187.034 362.638 182.938 362.638 177.032C362.638 171.463 358.711 166.709 351.823 166.709H323.473V187.034ZM323.473 143.422H350.841V143.436C356.578 143.436 360.505 139.34 360.506 133.926C360.506 128.511 356.578 124.583 350.841 124.583H323.473V143.422Z" fill="white"/>
</g>
<defs>
<clipPath id="clip0_4587_10384">
<rect width="487.31" height="746" fill="white"/>
</clipPath>
</defs>
</svg>
