<svg width="981" height="481" viewBox="0 0 981 481" fill="none" xmlns="http://www.w3.org/2000/svg">
<g clip-path="url(#clip0_4586_9074)">
<path d="M980.84 0H0V480.69H980.84V0Z" fill="#5D686E"/>
<path d="M457.54 82.7V117.38H500.78V236.92H540.55V117.38H583.56V82.7H457.54Z" fill="white"/>
<path d="M602.52 82.69V236.92H715.58V203.39H642.29V175.65H713.97V141.89H642.29V116.22H715.58V82.69H602.52Z" fill="white"/>
<path d="M738.72 82.7H826.13C856.65 82.7 871.22 102.58 871.22 122.01C871.22 141.44 859.43 154.15 844.86 157.39C861.28 159.93 874.22 175.66 874.22 195.08C874.22 217.51 859.19 236.93 828.9 236.93H738.72V82.7ZM817.11 142.36C825.2 142.36 830.75 136.58 830.75 128.95C830.75 121.32 825.2 115.77 817.11 115.77H778.49V142.36H817.11ZM818.49 203.86C827.97 203.86 833.75 198.08 833.75 189.75C833.75 181.89 828.2 175.19 818.49 175.19H778.48V203.86H818.49Z" fill="white"/>
<path d="M453.53 317.01C456.57 320.18 461.28 322.82 467.22 322.82C472.25 322.82 474.71 320.43 474.71 317.98C474.71 314.75 470.96 313.65 465.99 312.49C458.95 310.88 449.91 308.94 449.91 299.32C449.91 292.16 456.12 286.35 466.25 286.35C473.1 286.35 478.78 288.42 483.04 292.35L477.94 299.07C474.46 295.84 469.81 294.35 465.61 294.35C461.41 294.35 459.28 296.16 459.28 298.74C459.28 301.65 462.89 302.55 467.86 303.71C474.97 305.32 484.01 307.45 484.01 317.01C484.01 324.89 478.39 330.83 466.77 330.83C458.5 330.83 452.57 328.05 448.49 323.98L453.53 317.01Z" fill="white"/>
<path d="M488.67 322.63L509.01 295.06H488.67V286.99H521.02V294.35L500.68 321.98H521.47V330.05H488.67V322.63Z" fill="white"/>
<path d="M540.96 312.82L537.6 316.82V330.06H528.44V286.99H537.6V306.23L552.85 286.99H564.14L547.03 307.2L565.31 330.06H554.01L540.96 312.82Z" fill="white"/>
<path d="M587.32 286.28C600.36 286.28 609.85 295.58 609.85 308.55C609.85 321.52 600.36 330.82 587.32 330.82C574.28 330.82 564.85 321.53 564.85 308.55C564.85 295.57 574.34 286.28 587.32 286.28ZM587.32 294.41C579.38 294.41 574.27 300.48 574.27 308.55C574.27 316.62 579.38 322.69 587.32 322.69C595.26 322.69 600.43 316.55 600.43 308.55C600.43 300.55 595.26 294.41 587.32 294.41Z" fill="white"/>
<path d="M616.33 286.99H625.5V321.98H643.7V330.06H616.33V286.99Z" fill="white"/>
<path d="M650.09 286.99H680.57V294.87H659.26V304.23H680.11V312.11H659.26V322.11H680.57V330.06H650.09V286.99Z" fill="white"/>
<path d="M696.92 301.13V330.06H687.75V286.99H697.18L717.13 314.88V286.99H726.3V330.06H717.45L696.92 301.13Z" fill="white"/>
<path d="M743.98 286.99H734.81V330.06H743.98V286.99Z" fill="white"/>
<path d="M760.72 322.63L758.01 330.05H747.94L764.6 286.98H776.09L792.69 330.05H782.68L779.97 322.63H760.72ZM763.17 314.69H777.44L770.33 294.93L763.17 314.69Z" fill="white"/>
<path d="M414.42 82.69V244.1L260.52 398L106.62 244.1V82.69H132.23L273.32 223.79L247.72 249.4L142.83 144.51V229.1L260.52 346.79L378.21 229.1V118.9H260.52V82.69H414.42Z" fill="white"/>
</g>
<defs>
<clipPath id="clip0_4586_9074">
<rect width="980.84" height="480.69" fill="white"/>
</clipPath>
</defs>
</svg>
