<svg width="981" height="481" viewBox="0 0 981 481" fill="none" xmlns="http://www.w3.org/2000/svg">
<g clip-path="url(#clip0_4586_9610)">
<path d="M499.624 116.877H456.513V82.2969H582.158V116.877H539.276V236.066H499.624V116.877Z" fill="#009489"/>
<path d="M601.055 82.2973H713.789V115.726H640.71V141.316H712.174V174.974H640.71V202.638H713.789V236.067H601.055V82.2973Z" fill="#009489"/>
<path d="M816.376 203.1C825.829 203.1 831.593 197.335 831.593 189.036C831.593 181.198 826.06 174.514 816.376 174.514H776.492V203.1H816.376ZM814.993 141.777C823.062 141.777 828.594 136.013 828.594 128.405C828.594 120.796 823.062 115.264 814.993 115.264H776.492V141.777H814.993ZM736.842 82.2978H823.985C854.416 82.2978 868.939 102.123 868.939 121.488C868.939 140.624 857.184 153.533 842.66 156.761C859.025 159.297 871.939 174.975 871.939 194.339C871.939 216.702 856.953 236.066 826.751 236.066H736.842V82.2978Z" fill="#009489"/>
<path d="M463.45 313.883C466.48 317.039 471.176 319.676 477.1 319.676C482.119 319.676 484.567 317.294 484.567 314.847C484.567 311.628 480.832 310.538 475.874 309.377C468.86 307.769 459.847 305.835 459.847 296.243C459.847 289.1 466.027 283.307 476.13 283.307C482.958 283.307 488.621 285.365 492.872 289.295L487.787 295.987C484.31 292.771 479.672 291.289 475.488 291.289C471.368 291.289 469.182 293.089 469.182 295.665C469.182 298.559 472.785 299.463 477.743 300.621C484.823 302.232 493.836 304.356 493.836 313.883C493.836 321.736 488.234 327.659 476.648 327.659C468.409 327.659 462.485 324.89 458.431 320.836L463.45 313.883Z" fill="#009489"/>
<path d="M498.476 319.484L518.754 291.998H498.476V283.95H530.727V291.29L510.45 318.841H531.178V326.885H498.476V319.484Z" fill="#009489"/>
<path d="M550.625 309.698L547.279 313.687V326.886H538.136V283.951H547.279V303.132L562.472 283.951H573.737L556.675 304.097L574.893 326.886H563.628L550.625 309.698Z" fill="#009489"/>
<path d="M596.851 291.355C588.932 291.355 583.848 297.404 583.848 305.448C583.848 313.432 588.932 319.549 596.851 319.549C604.769 319.549 609.918 313.432 609.918 305.448C609.918 297.404 604.769 291.355 596.851 291.355ZM596.851 283.242C609.853 283.242 619.318 292.511 619.318 305.448C619.318 318.389 609.853 327.658 596.851 327.658C583.913 327.658 574.448 318.389 574.448 305.448C574.448 292.511 583.913 283.242 596.851 283.242Z" fill="#009489"/>
<path d="M653.957 318.841V326.886H626.665V311.888L622.029 314.526V307.06L626.665 304.421V283.95H635.806V299.141L640.763 296.308V303.775L635.806 306.609V318.841H653.957Z" fill="#009489"/>
<path d="M664.135 309.311L647.59 283.95H658.015L668.702 301.203L679.258 283.95H689.689L673.275 309.311V326.886H664.135V309.311Z" fill="#009489"/>
<path d="M498.729 360.373L486.627 391.272H482.636L470.534 360.373V391.272H461.39V348.335H474.202L484.631 375.115L495.057 348.335H507.933V391.272H498.729V360.373Z" fill="#009489"/>
<path d="M516.441 348.336H546.822V356.188H525.581V365.523H546.375V373.377H525.581V383.353H546.822V391.272H516.441V348.336Z" fill="#009489"/>
<path d="M570.906 383.224C579.404 383.224 584.356 377.108 584.356 369.835C584.356 362.238 579.724 356.383 570.906 356.383H563.115V383.224H570.906ZM553.977 348.335H570.906C584.356 348.335 593.691 356.897 593.691 369.835C593.691 382.771 584.356 391.271 570.906 391.271H553.977V348.335Z" fill="#009489"/>
<path d="M609.601 373.697L593.056 348.336H603.485L614.172 365.584L624.728 348.336H635.159L618.741 373.697V391.272H609.601V373.697Z" fill="#009489"/>
<path d="M634.519 369.834C634.519 356.635 644.497 347.628 657.052 347.628C666.833 347.628 672.306 352.777 675.335 358.118L667.477 361.98C665.677 358.504 661.815 355.736 657.052 355.736C649.585 355.736 643.919 361.725 643.919 369.834C643.919 377.943 649.585 383.931 657.052 383.931C661.815 383.931 665.677 381.229 667.477 377.687L675.335 381.485C672.244 386.829 666.833 392.044 657.052 392.044C644.497 392.044 634.519 383.033 634.519 369.834Z" fill="#009489"/>
<path d="M679.267 383.866L699.545 356.384H679.267V348.335H711.516V355.675L691.24 383.224H711.969V391.271H679.267V383.866Z" fill="#009489"/>
<path d="M728.069 362.432V391.272H718.926V348.336H728.326L748.216 376.145V348.336H757.354V391.272H748.536L728.069 362.432Z" fill="#009489"/>
<path d="M765.864 348.336H796.244V356.188H775.004V365.523H795.797V373.377H775.004V383.353H796.244V391.272H765.864V348.336Z" fill="#009489"/>
<path d="M142.728 228.264V143.933L234.538 235.742L192.374 277.907L142.728 228.264ZM260.07 82.2984V118.403H377.407V228.264L260.07 345.603L217.903 303.437L285.598 235.742L132.153 82.297H106.623V243.218L166.841 303.437L97.5117 372.767L123.039 398.297L192.374 328.967L260.07 396.662L413.512 243.218V82.2984H260.07Z" fill="#009489"/>
</g>
<defs>
<clipPath id="clip0_4586_9610">
<rect width="980.8" height="480.7" fill="white"/>
</clipPath>
</defs>
</svg>
