<svg width="981" height="481" viewBox="0 0 981 481" fill="none" xmlns="http://www.w3.org/2000/svg">
<g clip-path="url(#clip0_4587_10445)">
<path d="M455.747 114.543V79.9688H581.161V114.543H538.36V233.736H498.785V114.543H455.747Z" fill="#C51523"/>
<path d="M600.008 79.9688H712.537V113.396H639.598V138.992H710.932V172.657H639.598V200.322H712.537V233.75H600.008V79.9688Z" fill="#C51523"/>
<path d="M822.523 79.9688C852.899 79.9688 867.39 99.8016 867.39 119.159C867.39 138.516 855.649 151.202 841.159 154.433C857.492 156.964 870.377 172.643 870.377 192.014C870.377 214.379 855.426 233.75 825.273 233.75H735.526V79.9688H822.523ZM813.547 139.453C821.602 139.453 827.116 133.691 827.116 126.082C827.116 118.473 821.588 112.935 813.547 112.935H775.116V139.453H813.547ZM814.929 200.77C824.366 200.77 830.117 195.007 830.117 186.713C830.117 178.881 824.589 172.196 814.929 172.196H775.116V200.784H814.929V200.77Z" fill="#C51523"/>
<path d="M470.501 289.652H457.979V281.61H492.152V289.652H479.686V324.548H470.501V289.652Z" fill="#C51523"/>
<path d="M498.003 281.61H528.338V289.47H507.133V298.799H527.891V306.66H507.133V316.632H528.338V324.548H498.003V281.61Z" fill="#C51523"/>
<path d="M533.418 303.113C533.418 289.909 543.385 280.902 555.907 280.902C565.665 280.902 571.137 286.049 574.152 291.392L566.307 295.252C564.506 291.77 560.653 289 555.907 289C548.452 289 542.799 294.986 542.799 303.099C542.799 311.211 548.452 317.197 555.907 317.197C560.667 317.197 564.52 314.498 566.307 310.945L574.152 314.749C571.067 320.092 565.665 325.309 555.907 325.309C543.385 325.309 533.418 316.302 533.418 303.099V303.113Z" fill="#C51523"/>
<path d="M608.979 306.52H588.737V324.548H579.622V281.61H588.737V298.478H608.979V281.61H618.164V324.548H608.979V306.52Z" fill="#C51523"/>
<path d="M635.713 295.708V324.548H626.584V281.61H635.965L655.815 309.429V281.61H664.931V324.548H656.136L635.699 295.708H635.713Z" fill="#C51523"/>
<path d="M673.446 281.61H682.575V324.548H673.446V281.61Z" fill="#C51523"/>
<path d="M703.516 307.359L700.18 311.345V324.548H691.064V281.61H700.18V300.799L715.34 281.61H726.578L709.547 301.764L727.723 324.548H716.485L703.502 307.359H703.516Z" fill="#C51523"/>
<path d="M741.179 281.61V307.107C741.179 313.093 744.46 317.219 751.132 317.219C757.805 317.219 760.96 313.093 760.96 307.107V281.61H770.201V307.359C770.201 318.045 764.101 325.318 751.118 325.318C738.136 325.318 731.91 317.975 731.91 307.429V281.61H741.179Z" fill="#C51523"/>
<path d="M815.976 293.652L803.9 324.548H799.922L787.847 293.652V324.548H778.731V281.61H791.518L801.932 308.394L812.346 281.61H825.189V324.548H816.003V293.652H815.976Z" fill="#C51523"/>
<path d="M259.135 79.9688V116.061H375.861V215.331H266.578L131.89 79.9688H106.5V240.865L259.135 394.279L411.769 240.865V79.9688H259.135ZM259.135 343.225L142.408 225.916V141.595L251.691 251.436H350.456L259.135 343.225Z" fill="#C51523"/>
</g>
<defs>
<clipPath id="clip0_4587_10445">
<rect width="980.8" height="480.7" fill="white"/>
</clipPath>
</defs>
</svg>
