<svg width="488" height="746" viewBox="0 0 488 746" fill="none" xmlns="http://www.w3.org/2000/svg">
<g clip-path="url(#clip0_4587_10436)">
<path d="M487.31 0H0V746H487.31V0Z" fill="#C51523"/>
<path d="M126.73 125.847H96.0883V101.156H185.371V125.847H154.893V210.935H126.716V125.847H126.73Z" fill="white"/>
<path d="M198.799 101.156H278.917V125.016H226.99V143.278H277.773V167.302H226.99V187.048H278.917V210.908H198.799V101.156Z" fill="white"/>
<path d="M295.299 101.156H357.223C378.849 101.156 389.172 115.306 389.172 129.142C389.172 142.979 380.824 152.022 370.501 154.323C382.131 156.134 391.31 167.329 391.31 181.152C391.31 197.113 380.66 210.935 359.198 210.935H295.299V101.156ZM350.836 143.619C356.569 143.619 360.505 139.506 360.505 134.072C360.505 128.638 356.569 124.689 350.836 124.689H323.476V143.619H350.836ZM351.816 187.403C358.53 187.403 362.629 183.29 362.629 177.366C362.629 171.768 358.694 167.002 351.816 167.002H323.476V187.416H351.816V187.403Z" fill="white"/>
<path d="M104.966 571.183H94.8887V564.687H122.385V571.183H112.361V599.332H104.966V571.183Z" fill="white"/>
<path d="M127.097 564.687H151.488V571.02H134.437V578.551H151.134V584.883H134.437V592.932H151.488V599.319H127.097V564.687Z" fill="white"/>
<path d="M155.574 582.034C155.574 571.385 163.581 564.112 173.659 564.112C181.517 564.112 185.902 568.266 188.34 572.583L182.034 575.702C180.591 572.896 177.486 570.663 173.659 570.663C167.667 570.663 163.118 575.497 163.118 582.034C163.118 588.571 167.667 593.406 173.659 593.406C177.486 593.406 180.577 591.227 182.034 588.367L188.34 591.431C185.861 595.748 181.517 599.943 173.659 599.943C163.581 599.943 155.574 592.67 155.574 582.021V582.034Z" fill="white"/>
<path d="M216.352 584.785H200.078V599.329H192.737V564.698H200.078V578.302H216.352V564.698H223.747V599.329H216.352V584.785Z" fill="white"/>
<path d="M237.856 576.058V599.319H230.516V564.687H238.06L254.035 587.117V564.687H261.375V599.319H254.294L237.856 576.058Z" fill="white"/>
<path d="M268.198 564.687H275.538V599.319H268.198V564.687Z" fill="white"/>
<path d="M292.385 585.455L289.702 588.669V599.319H282.362V564.687H289.702V580.158L301.904 564.687H310.947L297.247 580.934L311.873 599.319H302.83L292.385 585.455Z" fill="white"/>
<path d="M322.671 564.687V585.251C322.671 590.085 325.313 593.408 330.679 593.408C336.045 593.408 338.591 590.085 338.591 585.251V564.687H346.027V585.455C346.027 594.076 341.111 599.945 330.679 599.945C320.247 599.945 315.222 594.021 315.222 585.51V564.687H322.671Z" fill="white"/>
<path d="M382.838 574.397L373.128 599.319H369.928L360.218 574.397V599.319H352.878V564.687H363.16L371.535 586.286L379.91 564.687H390.247V599.319H382.852V574.397H382.838Z" fill="white"/>
<path d="M243.562 232.682V267.559H356.406V363.488H250.753L120.546 232.682H95.9918V388.165L243.562 536.416L391.133 388.165V232.682H243.562ZM243.562 487.076L130.719 373.715V292.236L236.372 398.378H331.865L243.576 487.076H243.562Z" fill="white"/>
</g>
<defs>
<clipPath id="clip0_4587_10436">
<rect width="487.31" height="746" fill="white"/>
</clipPath>
</defs>
</svg>
