<svg width="487" height="746" viewBox="0 0 487 746" fill="none" xmlns="http://www.w3.org/2000/svg">
<g clip-path="url(#clip0_4586_9693)">
<path d="M127.615 125.464H97.3109V101.156H185.631V125.464H155.488V209.247H127.615V125.464Z" fill="#4DBD38"/>
<path d="M198.915 101.156H278.16V124.654H226.79V142.643H277.027V166.303H226.79V185.749H278.16V209.247H198.915V101.156Z" fill="#4DBD38"/>
<path d="M350.274 186.073C356.919 186.073 360.97 182.021 360.97 176.188C360.97 170.677 357.081 165.978 350.274 165.978H322.237V186.073H350.274ZM349.302 142.967C354.975 142.967 358.862 138.915 358.862 133.567C358.862 128.219 354.975 124.331 349.302 124.331H322.237V142.967H349.302ZM294.364 101.157H355.621C377.012 101.157 387.223 115.093 387.223 128.706C387.223 142.156 378.96 151.231 368.749 153.5C380.253 155.283 389.331 166.303 389.331 179.915C389.331 195.634 378.796 209.247 357.567 209.247H294.364V101.157Z" fill="#4DBD38"/>
<path d="M98.2192 557.557H105.48V585.272H119.901V591.666H98.2192V557.557Z" fill="#4DBD38"/>
<path d="M124.959 557.558H132.22V591.666H124.959V557.558Z" fill="#4DBD38"/>
<path d="M137.331 574.636C137.331 564.153 145.259 556.995 155.23 556.995C163.003 556.995 167.349 561.086 169.752 565.33L163.514 568.397C162.082 565.636 159.013 563.438 155.23 563.438C149.298 563.438 144.798 568.194 144.798 574.636C144.798 581.08 149.298 585.836 155.23 585.836C159.013 585.836 162.082 583.688 163.514 580.875L169.752 583.893C167.297 588.137 163.003 592.279 155.23 592.279C145.259 592.279 137.331 585.119 137.331 574.636Z" fill="#4DBD38"/>
<path d="M174.094 557.557H198.232V563.796H181.355V571.21H197.873V577.449H181.355V585.376H198.232V591.666H174.094V557.557Z" fill="#4DBD38"/>
<path d="M203.903 557.557H211.266V577.808C211.266 582.563 213.874 585.837 219.193 585.837C224.409 585.837 227.017 582.563 227.017 577.808V557.557H234.381V578.011C234.381 586.5 229.523 592.279 219.193 592.279C208.761 592.279 203.903 586.45 203.903 578.062V557.557Z" fill="#4DBD38"/>
<path d="M270.785 567.12L261.171 591.665H258.001L248.386 567.12V591.665H241.126V557.558H251.301L259.586 578.83L267.871 557.558H278.097V591.665H270.785V567.12Z" fill="#4DBD38"/>
<path d="M311.379 585.272C318.13 585.272 322.068 580.415 322.068 574.636C322.068 568.603 318.386 563.949 311.379 563.949H305.191V585.272H311.379ZM297.931 557.558H311.379C322.068 557.558 329.482 564.359 329.482 574.636C329.482 584.915 322.068 591.665 311.379 591.665H297.931V557.558Z" fill="#4DBD38"/>
<path d="M334.641 557.557H341.902V585.272H356.323V591.666H334.641V557.557Z" fill="#4DBD38"/>
<path d="M369.818 579.495H381.12L375.495 563.846L369.818 579.495ZM383.114 585.785H367.876L365.728 591.665H357.75L370.944 557.557H380.047L393.189 591.665H385.261L383.114 585.785Z" fill="#4DBD38"/>
<path d="M111.667 636.402C118.418 636.402 122.356 631.545 122.356 625.766C122.356 619.733 118.674 615.079 111.667 615.079H105.479V636.402H111.667ZM98.219 608.688H111.667C122.356 608.688 129.771 615.489 129.771 625.766C129.771 636.045 122.356 642.795 111.667 642.795H98.219V608.688Z" fill="#4DBD38"/>
<path d="M151.088 614.568C144.798 614.568 140.758 619.375 140.758 625.767C140.758 632.108 144.798 636.967 151.088 636.967C157.378 636.967 161.468 632.108 161.468 625.767C161.468 619.375 157.378 614.568 151.088 614.568ZM151.088 608.125C161.418 608.125 168.935 615.488 168.935 625.767C168.935 636.046 161.418 643.409 151.088 643.409C140.809 643.409 133.293 636.046 133.293 625.767C133.293 615.488 140.809 608.125 151.088 608.125Z" fill="#4DBD38"/>
<path d="M188.925 614.926H181.305V624.335H188.925C191.839 624.335 194.037 622.494 194.037 619.63C194.037 616.766 191.839 614.926 188.925 614.926ZM186.623 630.574H181.305V642.796H174.044V608.687H189.998C197.106 608.687 201.454 613.34 201.454 619.682C201.454 625.715 197.668 628.938 193.988 629.807L201.658 642.796H193.323L186.623 630.574Z" fill="#4DBD38"/>
<path d="M223.078 614.568C216.788 614.568 212.748 619.375 212.748 625.767C212.748 632.108 216.788 636.967 223.078 636.967C229.368 636.967 233.458 632.108 233.458 625.767C233.458 619.375 229.368 614.568 223.078 614.568ZM223.078 608.125C233.409 608.125 240.925 615.488 240.925 625.767C240.925 636.046 233.409 643.409 223.078 643.409C212.8 643.409 205.283 636.046 205.283 625.767C205.283 615.488 212.8 608.125 223.078 608.125Z" fill="#4DBD38"/>
<path d="M247.67 632.466C250.073 634.972 253.808 637.067 258.512 637.067C262.5 637.067 264.443 635.176 264.443 633.233C264.443 630.676 261.478 629.807 257.54 628.886C251.967 627.607 244.807 626.073 244.807 618.454C244.807 612.778 249.716 608.175 257.743 608.175C263.164 608.175 267.665 609.812 271.041 612.931L267 618.248C264.238 615.693 260.558 614.516 257.233 614.516C253.96 614.516 252.222 615.948 252.222 617.993C252.222 620.295 255.084 621.011 259.023 621.932C264.648 623.209 271.808 624.897 271.808 632.466C271.808 638.705 267.359 643.409 258.153 643.409C251.608 643.409 246.903 641.209 243.682 637.988L247.67 632.466Z" fill="#4DBD38"/>
<path d="M299.108 636.402V642.795H277.427V630.881L273.746 632.976V627.045L277.427 624.949V608.688H284.688V620.755L288.627 618.505V624.437L284.688 626.686V636.402H299.108Z" fill="#4DBD38"/>
<path d="M307.186 628.835L294.043 608.687H302.327L310.815 622.393L319.202 608.687H327.486L314.446 628.835V642.795H307.186V628.835Z" fill="#4DBD38"/>
<path d="M326.971 625.766C326.971 615.283 334.899 608.125 344.869 608.125C352.642 608.125 356.989 612.216 359.392 616.46L353.153 619.527C351.722 616.766 348.653 614.568 344.869 614.568C338.938 614.568 334.438 619.324 334.438 625.766C334.438 632.21 338.938 636.966 344.869 636.966C348.653 636.966 351.722 634.818 353.153 632.005L359.392 635.023C356.936 639.267 352.642 643.409 344.869 643.409C334.899 643.409 326.971 636.249 326.971 625.766Z" fill="#4DBD38"/>
<path d="M387.103 628.477H370.994V642.796H363.734V608.687H370.994V622.085H387.103V608.687H394.416V642.796H387.103V628.477Z" fill="#4DBD38"/>
<path d="M243.185 481.148L131.557 369.522V289.295L283.298 441.035L243.185 481.148ZM331.871 441.035L389.156 383.75V230.663H243.185V265.008H354.811V369.522L307.584 416.749L121.498 230.663H97.2109V383.75L243.185 529.721L307.584 465.322L373.54 531.277L397.824 506.988L331.871 441.035Z" fill="#4DBD38"/>
</g>
<defs>
<clipPath id="clip0_4586_9693">
<rect width="487" height="746" fill="white"/>
</clipPath>
</defs>
</svg>
