<svg width="488" height="746" viewBox="0 0 488 746" fill="none" xmlns="http://www.w3.org/2000/svg">
<g clip-path="url(#clip0_4586_9933)">
<path d="M487.31 0H0V746H487.31V0Z" fill="#102D69"/>
<path d="M96.3143 555.182H123.705V562.875H104.556V572.02H123.299V579.716H104.556V589.491H123.705V597.249H96.3143V555.182Z" fill="white"/>
<path d="M145.42 589.364C153.082 589.364 157.549 583.373 157.549 576.248C157.549 568.805 153.371 563.068 145.42 563.068H138.4V589.364H145.42ZM130.158 555.182H145.42C157.549 555.182 165.964 563.57 165.964 576.248C165.964 588.923 157.549 597.249 145.42 597.249H130.158V555.182Z" fill="white"/>
<path d="M171.844 555.182H180.201V580.157C180.201 586.022 183.158 590.059 189.195 590.059C195.114 590.059 198.071 586.022 198.071 580.157V555.182H206.428V580.411C206.428 590.876 200.918 598.006 189.195 598.006C177.355 598.006 171.844 590.815 171.844 580.473V555.182Z" fill="white"/>
<path d="M225.366 580.411L222.347 584.322V597.249H214.105V555.182H222.347V573.978L236.043 555.182H246.198L230.819 574.923L247.242 597.249H237.088L225.366 580.411Z" fill="white"/>
<path d="M260.604 582.24H273.428L267.045 562.939L260.604 582.24ZM275.689 589.993H258.4L255.96 597.249H246.909L261.879 555.182H272.21L287.123 597.249H278.129L275.689 589.993Z" fill="white"/>
<path d="M286.908 576.249C286.908 563.317 295.902 554.488 307.217 554.488C316.039 554.488 320.971 559.534 323.697 564.769L316.619 568.552C314.995 565.148 311.511 562.434 307.217 562.434C300.488 562.434 295.381 568.302 295.381 576.249C295.381 584.194 300.488 590.058 307.217 590.058C311.511 590.058 314.995 587.409 316.619 583.941L323.697 587.664C320.912 592.897 316.039 598.005 307.217 598.005C295.902 598.005 286.908 589.176 286.908 576.249Z" fill="white"/>
<path d="M328.767 587.033C330.276 588.607 332.248 590.059 334.917 590.059C338.573 590.059 340.953 587.409 340.953 583.311V555.183H349.191V583.438C349.191 593.401 343.503 598.004 335.552 598.004C331.609 598.004 327.952 596.868 325.167 593.908L328.767 587.033Z" fill="white"/>
<path d="M364.523 582.24H377.347L370.962 562.939L364.523 582.24ZM379.608 589.993H362.319L359.88 597.249H350.828L365.798 555.182H376.128L391.042 597.249H382.048L379.608 589.993Z" fill="white"/>
<path d="M126.815 126.421H96.2148V101.875H185.4V126.421H154.96V211.026H126.815V126.421Z" fill="white"/>
<path d="M198.814 101.876H278.836V125.604H226.961V143.768H277.69V167.66H226.961V187.298H278.836V211.025H198.814V101.876Z" fill="white"/>
<path d="M351.655 187.624C358.365 187.624 362.455 183.533 362.455 177.642C362.455 172.079 358.529 167.332 351.655 167.332H323.343V187.624H351.655ZM350.672 144.096C356.4 144.096 360.327 140.004 360.327 134.604C360.327 129.204 356.4 125.276 350.672 125.276H323.343V144.096H350.672ZM295.199 101.875H357.055C378.657 101.875 388.966 115.948 388.966 129.694C388.966 143.277 380.621 152.441 370.312 154.732C381.928 156.532 391.094 167.66 391.094 181.405C391.094 197.279 380.457 211.025 359.02 211.025H295.199V101.875Z" fill="white"/>
<path d="M356.372 372.868L243.656 485.586L130.936 372.868V291.858L243.656 404.576L356.372 291.857V372.868ZM243.656 232.65V267.334H331.849L243.656 355.527L120.779 232.65H96.2543V387.235L243.656 534.633L391.054 387.235V232.65H243.656Z" fill="white"/>
</g>
<defs>
<clipPath id="clip0_4586_9933">
<rect width="487.31" height="746" fill="white"/>
</clipPath>
</defs>
</svg>
