<svg width="981" height="481" viewBox="0 0 981 481" fill="none" xmlns="http://www.w3.org/2000/svg">
<g clip-path="url(#clip0_4586_9058)">
<path d="M457.541 82.6975V117.377H500.781V236.917H540.551V117.377H583.561V82.6975H457.541Z" fill="#5D686E"/>
<path d="M602.521 82.6875V236.917H715.581V203.387H642.291V175.647H713.971V141.887H642.291V116.217H715.581V82.6875H602.521Z" fill="#5D686E"/>
<path d="M738.721 82.6975H826.131C856.651 82.6975 871.221 102.577 871.221 122.007C871.221 141.438 859.431 154.147 844.861 157.387C861.281 159.927 874.221 175.657 874.221 195.077C874.221 217.507 859.191 236.927 828.901 236.927H738.721V82.6975ZM817.111 142.357C825.201 142.357 830.751 136.577 830.751 128.947C830.751 121.317 825.201 115.767 817.111 115.767H778.491V142.357H817.111ZM818.491 203.857C827.971 203.857 833.751 198.077 833.751 189.747C833.751 181.887 828.201 175.188 818.491 175.188H778.481V203.857H818.491Z" fill="#5D686E"/>
<path d="M453.531 317.008C456.571 320.178 461.281 322.818 467.221 322.818C472.251 322.818 474.711 320.428 474.711 317.978C474.711 314.748 470.961 313.647 465.991 312.487C458.951 310.877 449.911 308.938 449.911 299.318C449.911 292.158 456.121 286.348 466.251 286.348C473.101 286.348 478.781 288.418 483.041 292.348L477.941 299.068C474.461 295.838 469.811 294.348 465.611 294.348C461.411 294.348 459.281 296.157 459.281 298.737C459.281 301.647 462.891 302.547 467.861 303.707C474.971 305.317 484.011 307.448 484.011 317.008C484.011 324.888 478.391 330.827 466.771 330.827C458.501 330.827 452.571 328.048 448.491 323.978L453.531 317.008Z" fill="#5D686E"/>
<path d="M488.671 322.628L509.011 295.057H488.671V286.987H521.021V294.348L500.681 321.978H521.471V330.047H488.671V322.628Z" fill="#5D686E"/>
<path d="M540.961 312.818L537.601 316.818V330.057H528.441V286.987H537.601V306.228L552.851 286.987H564.141L547.031 307.198L565.311 330.057H554.011L540.961 312.818Z" fill="#5D686E"/>
<path d="M587.321 286.277C600.361 286.277 609.851 295.577 609.851 308.547C609.851 321.517 600.361 330.818 587.321 330.818C574.281 330.818 564.851 321.527 564.851 308.547C564.851 295.567 574.341 286.277 587.321 286.277ZM587.321 294.408C579.381 294.408 574.271 300.477 574.271 308.547C574.271 316.617 579.381 322.688 587.321 322.688C595.261 322.688 600.431 316.547 600.431 308.547C600.431 300.547 595.261 294.408 587.321 294.408Z" fill="#5D686E"/>
<path d="M616.331 286.987H625.501V321.978H643.701V330.057H616.331V286.987Z" fill="#5D686E"/>
<path d="M650.091 286.987H680.571V294.867H659.261V304.228H680.111V312.107H659.261V322.107H680.571V330.057H650.091V286.987Z" fill="#5D686E"/>
<path d="M696.921 301.128V330.057H687.751V286.987H697.181L717.131 314.878V286.987H726.301V330.057H717.451L696.921 301.128Z" fill="#5D686E"/>
<path d="M743.981 286.987H734.811V330.057H743.981V286.987Z" fill="#5D686E"/>
<path d="M760.721 322.628L758.011 330.047H747.941L764.601 286.978H776.091L792.691 330.047H782.681L779.971 322.628H760.721ZM763.171 314.688H777.441L770.331 294.927L763.171 314.688Z" fill="#5D686E"/>
<path d="M414.421 82.6875V244.098L260.521 397.997L106.621 244.098V82.6875H132.231L273.321 223.787L247.721 249.397L142.831 144.507V229.098L260.521 346.788L378.211 229.098V118.897H260.521V82.6875H414.421Z" fill="#5D686E"/>
</g>
<defs>
<clipPath id="clip0_4586_9058">
<rect width="980.84" height="480.69" fill="white"/>
</clipPath>
</defs>
</svg>
