<svg width="981" height="481" viewBox="0 0 981 481" fill="none" xmlns="http://www.w3.org/2000/svg">
<g clip-path="url(#clip0_4587_10416)">
<path d="M457.119 83.5865V117.922H499.914V236.251H539.283V117.922H581.855V83.5865H457.119Z" fill="#214797"/>
<path d="M600.617 83.5865V236.251H712.526V203.067H639.987V175.596H710.931V142.176H639.987V116.771H712.526V83.5865H600.617Z" fill="#214797"/>
<path d="M456.967 83.115V117.52H499.872V236.14H539.324V117.52H582.008V83.115H456.967Z" fill="#214797"/>
<path d="M600.812 83.115V236.14H712.984V202.873H640.264V175.346H711.389V141.843H640.264V116.383H712.984V83.115H600.812Z" fill="#214797"/>
<path d="M735.934 83.115H822.66C852.946 83.115 867.395 102.848 867.395 122.11C867.395 141.371 855.705 154.004 841.242 157.208C857.522 159.732 870.377 175.332 870.377 194.608C870.377 216.865 855.47 236.14 825.406 236.14H735.934V83.115ZM813.702 142.3C821.731 142.3 827.236 136.559 827.236 128.988C827.236 121.416 821.731 115.911 813.702 115.911H775.386V142.287H813.702V142.3ZM815.088 203.33C824.49 203.33 830.231 197.603 830.231 189.338C830.231 181.545 824.726 174.888 815.088 174.888H775.4V203.33H815.088Z" fill="#214797"/>
<path d="M456.967 347.3H473.912C487.378 347.3 496.724 355.731 496.724 368.475C496.724 381.219 487.378 389.595 473.912 389.595H456.967V347.3ZM473.912 381.663C482.413 381.663 487.378 375.644 487.378 368.475C487.378 361.306 482.732 355.218 473.912 355.218H466.119V381.663H473.912Z" fill="#214797"/>
<path d="M523.585 346.606C536.592 346.606 546.064 355.731 546.064 368.489C546.064 381.247 536.592 390.371 523.585 390.371C510.577 390.371 501.162 381.247 501.162 368.489C501.162 355.731 510.633 346.606 523.585 346.606ZM523.585 354.594C515.667 354.594 510.577 360.557 510.577 368.475C510.577 376.393 515.667 382.356 523.585 382.356C531.503 382.356 536.662 376.338 536.662 368.475C536.662 360.612 531.503 354.594 523.585 354.594Z" fill="#214797"/>
<path d="M589.87 359.156L577.764 389.595H573.771L561.664 359.156V389.595H552.512V347.3H565.339L575.781 373.675L586.223 347.3H599.106V389.595H589.898V359.156H589.87Z" fill="#214797"/>
<path d="M627.95 346.606C640.957 346.606 650.429 355.731 650.429 368.489C650.429 381.247 640.957 390.371 627.95 390.371C614.942 390.371 605.526 381.247 605.526 368.489C605.526 355.731 614.998 346.606 627.95 346.606ZM627.95 354.594C620.032 354.594 614.942 360.557 614.942 368.475C614.942 376.393 620.032 382.356 627.95 382.356C635.868 382.356 641.027 376.338 641.027 368.475C641.027 360.612 635.868 354.594 627.95 354.594Z" fill="#214797"/>
<path d="M680.964 360.557L673.49 389.595H663.755L651.455 347.3H661.703L669.246 377.863L677.428 347.3H684.584L692.696 377.863L700.17 347.3H710.474L698.229 389.595H688.494L680.95 360.557H680.964Z" fill="#214797"/>
<path d="M722.982 382.301L720.278 389.595H710.224L726.851 347.3H738.319L754.877 389.595H744.892L742.188 382.301H722.982ZM725.423 374.507H739.664L732.578 355.107L725.423 374.507Z" fill="#214797"/>
<path d="M456.967 283.649H487.378V291.387H466.119V300.581H486.934V308.319H466.119V318.151H487.378V325.944H456.967V283.649Z" fill="#214797"/>
<path d="M494.533 283.649H511.479C524.944 283.649 534.29 292.08 534.29 304.824C534.29 317.568 524.944 325.944 511.479 325.944H494.533V283.649ZM511.465 318.026C519.966 318.026 524.93 312.008 524.93 304.838C524.93 297.669 520.285 291.581 511.465 291.581H503.672V318.026H511.465Z" fill="#214797"/>
<path d="M540.78 283.649H550.058V308.763C550.058 314.656 553.344 318.719 560.042 318.719C566.74 318.719 569.902 314.656 569.902 308.763V283.649H579.179V309.012C579.179 319.538 573.063 326.707 560.042 326.707C547.021 326.707 540.78 319.482 540.78 309.082V283.649Z" fill="#214797"/>
<path d="M600.188 309.026L596.832 312.965V325.958H587.679V283.663H596.832V302.564L612.03 283.663H623.304L606.234 303.507L624.469 325.958H613.195L600.188 309.026Z" fill="#214797"/>
<path d="M636.839 318.664L634.135 325.958H624.081L640.708 283.663H652.176L668.733 325.958H658.749L656.045 318.664H636.839ZM639.279 310.857H653.521L646.435 291.456L639.279 310.857Z" fill="#214797"/>
<path d="M670.661 304.838C670.661 291.845 680.645 282.956 693.209 282.956C702.999 282.956 708.477 288.031 711.5 293.287L703.637 297.087C701.834 293.661 697.965 290.93 693.195 290.93C685.721 290.93 680.049 296.823 680.049 304.811C680.049 312.798 685.721 318.692 693.195 318.692C697.965 318.692 701.834 316.029 703.637 312.535L711.5 316.279C708.408 321.548 702.999 326.679 693.209 326.679C680.645 326.679 670.661 317.804 670.661 304.797V304.838Z" fill="#214797"/>
<path d="M717.102 315.683C718.78 317.263 720.971 318.719 723.925 318.719C727.988 318.719 730.623 316.057 730.623 311.938V283.663H739.775V312.077C739.775 322.103 733.466 326.721 724.632 326.721C720.25 326.721 716.187 325.584 713.095 322.602L717.088 315.696L717.102 315.683Z" fill="#214797"/>
<path d="M756.471 318.664L753.767 325.958H743.714L760.34 283.663H771.809L788.366 325.958H778.382L775.677 318.664H756.471ZM758.926 310.857H773.168L766.081 291.456L758.926 310.857Z" fill="#214797"/>
<path fill-rule="evenodd" clip-rule="evenodd" d="M231.227 182.685L241.158 192.59V82.2969H411.739V244.045L259.112 398.297L106.5 244.045V82.2969H131.88L231.227 182.685ZM142.394 229.021L259.112 346.972H259.126L301.054 304.594L142.394 144.252V229.021ZM277.045 228.422L327.088 278.486L376.016 228.861V118.462H277.045V228.422Z" fill="#214797"/>
</g>
<defs>
<clipPath id="clip0_4587_10416">
<rect width="980.8" height="480.7" fill="white"/>
</clipPath>
</defs>
</svg>
