<svg width="488" height="746" viewBox="0 0 488 746" fill="none" xmlns="http://www.w3.org/2000/svg">
<g clip-path="url(#clip0_4587_10424)">
<path d="M124.775 125.847H94.1346V101.156H183.42V125.847H152.947V210.941H124.767V125.847H124.775Z" fill="#0177A3"/>
<path d="M196.852 101.156H276.968V125.022H225.032V143.287H275.822V167.321H225.032V187.069H276.968V210.934H196.852V101.156Z" fill="#0177A3"/>
<path d="M293.343 101.156H355.273C376.897 101.156 387.22 115.312 387.22 129.139C387.22 142.966 378.868 152.019 368.545 154.318C380.175 156.129 389.352 167.321 389.352 181.148C389.352 197.114 378.7 210.941 357.244 210.941H293.35V101.156H293.343ZM348.885 143.623C354.616 143.623 358.551 139.506 358.551 134.074C358.551 128.643 354.616 124.693 348.885 124.693H321.523V143.623H348.885ZM349.863 187.397C356.58 187.397 360.675 183.28 360.675 177.359C360.675 171.759 356.74 166.992 349.863 166.992H321.523V187.397H349.863Z" fill="#0177A3"/>
<path fill-rule="evenodd" clip-rule="evenodd" d="M241.611 489.584L128.76 375.097V292.814L282.158 448.438L241.604 489.584H241.611ZM389.176 389.691V232.679H241.604V267.904H354.455V375.097L306.71 423.536L118.591 232.687H94.0391V389.698L241.611 539.41L389.184 389.698L389.176 389.691Z" fill="#0177A3"/>
<path fill-rule="evenodd" clip-rule="evenodd" d="M151.706 599.328H173.41V592.838H158.977V564.695H151.706V599.335V599.328ZM178.477 599.328H185.748V564.687H178.477V599.328ZM208.774 599.949C216.556 599.949 220.856 595.744 223.309 591.429L217.067 588.363C215.636 591.217 212.563 593.4 208.774 593.4C202.839 593.4 198.334 588.567 198.334 582.026C198.334 575.485 202.839 570.652 208.774 570.652C212.563 570.652 215.636 572.886 217.067 575.689L223.309 572.572C220.9 568.265 216.549 564.111 208.774 564.111C198.794 564.111 190.858 571.382 190.858 582.026C190.858 592.67 198.794 599.941 208.774 599.941M227.668 599.328H251.825V592.94H234.932V584.888H251.467V578.551H234.932V571.024H251.825V564.687H227.668V599.328ZM257.505 585.516C257.505 594.035 262.367 599.949 272.807 599.949C283.246 599.949 288.006 594.079 288.006 585.457V564.687H280.633V585.253C280.633 590.078 278.019 593.407 272.799 593.407C267.579 593.407 264.864 590.086 264.864 585.253V564.687H257.49V585.508L257.505 585.516ZM324.458 599.328H331.78V564.687H321.545L313.251 586.289L304.958 564.687H294.774V599.328H302.045V574.404L311.667 599.328H314.843L324.465 574.404V599.328H324.458Z" fill="#0177A3"/>
</g>
<defs>
<clipPath id="clip0_4587_10424">
<rect width="487.31" height="746" fill="white"/>
</clipPath>
</defs>
</svg>
