<svg width="487" height="746" viewBox="0 0 487 746" fill="none" xmlns="http://www.w3.org/2000/svg">
<g clip-path="url(#clip0_4586_9764)">
<path d="M487 0H0V746H487V0Z" fill="#E27D00"/>
<path d="M126.144 125.628H95.6366V101.157H184.55V125.628H154.203V209.974H126.144V125.628Z" fill="white"/>
<path d="M197.923 101.157H277.701V124.812H225.985V142.922H276.557V166.74H225.985V186.318H277.701V209.973H197.923V101.157Z" fill="white"/>
<path d="M350.297 186.644C356.988 186.644 361.065 182.565 361.065 176.692C361.065 171.146 357.15 166.415 350.297 166.415H322.073V186.644H350.297ZM349.318 143.248C355.03 143.248 358.943 139.169 358.943 133.785C358.943 128.402 355.03 124.486 349.318 124.486H322.073V143.248H349.318ZM294.012 101.156H355.681C377.216 101.156 387.495 115.187 387.495 128.892C387.495 142.431 379.175 151.568 368.896 153.852C380.478 155.647 389.616 166.741 389.616 180.444C389.616 196.27 379.012 209.974 357.64 209.974H294.012V101.156Z" fill="white"/>
<path d="M98.3316 584.572C100.752 587.091 104.508 589.2 109.24 589.2C113.254 589.2 115.209 587.298 115.209 585.346C115.209 582.772 112.223 581.895 108.263 580.97C102.655 579.682 95.4522 578.14 95.4522 570.473C95.4522 564.76 100.391 560.132 108.467 560.132C113.923 560.132 118.448 561.779 121.844 564.918L117.778 570.267C115.002 567.694 111.296 566.51 107.954 566.51C104.66 566.51 102.91 567.955 102.91 570.011C102.91 572.326 105.794 573.046 109.753 573.974C115.412 575.26 122.618 576.956 122.618 584.572C122.618 590.848 118.142 595.584 108.88 595.584C102.295 595.584 97.5622 593.371 94.3184 590.129L98.3316 584.572Z" fill="white"/>
<path d="M126.336 589.048L142.54 567.078H126.336V560.649H152.112V566.51L135.904 588.531H152.471V594.963H126.336V589.048Z" fill="white"/>
<path d="M168.021 581.226L165.348 584.418V594.964H158.042V560.65H165.348V575.979L177.49 560.65H186.496L172.861 576.753L187.419 594.964H178.416L168.021 581.226Z" fill="white"/>
<path d="M204.978 566.565C198.649 566.565 194.583 571.401 194.583 577.832C194.583 584.213 198.649 589.097 204.978 589.097C211.307 589.097 215.423 584.213 215.423 577.832C215.423 571.401 211.307 566.565 204.978 566.565ZM204.978 560.081C215.37 560.081 222.935 567.487 222.935 577.832C222.935 588.171 215.37 595.584 204.978 595.584C194.636 595.584 187.074 588.171 187.074 577.832C187.074 567.487 194.636 560.081 204.978 560.081Z" fill="white"/>
<path d="M250.63 588.531V594.963H228.817V582.975L225.111 585.085V579.119L228.817 577.006V560.649H236.121V572.791L240.084 570.527V576.492L236.121 578.759V588.531H250.63Z" fill="white"/>
<path d="M258.77 580.919L245.549 560.649H253.881L262.423 574.437L270.861 560.649H279.197L266.075 580.919V594.964H258.77V580.919Z" fill="white"/>
<path d="M111.759 618.396H103.991V627.865H111.759C114.643 627.865 116.802 626.012 116.802 623.129C116.802 620.303 114.643 618.396 111.759 618.396ZM96.685 612.122H112.739C120.198 612.122 124.265 617.163 124.265 623.182C124.265 629.152 120.149 634.14 112.739 634.14H103.991V646.44H96.685V612.122Z" fill="white"/>
<path d="M145.063 618.037C138.734 618.037 134.668 622.877 134.668 629.304C134.668 635.685 138.734 640.573 145.063 640.573C151.393 640.573 155.508 635.685 155.508 629.304C155.508 622.877 151.393 618.037 145.063 618.037ZM145.063 611.553C155.455 611.553 163.021 618.963 163.021 629.304C163.021 639.648 155.455 647.056 145.063 647.056C134.721 647.056 127.16 639.648 127.16 629.304C127.16 618.963 134.721 611.553 145.063 611.553Z" fill="white"/>
<path d="M168.182 612.121H175.487V640.008H189.995V646.439H168.182V612.121Z" fill="white"/>
<path d="M195.103 612.121H202.407V646.439H195.103V612.121Z" fill="white"/>
<path d="M207.558 629.305C207.558 618.755 215.533 611.554 225.566 611.554C233.389 611.554 237.761 615.669 240.177 619.944L233.902 623.03C232.462 620.249 229.376 618.037 225.566 618.037C219.597 618.037 215.071 622.822 215.071 629.305C215.071 635.787 219.597 640.573 225.566 640.573C229.376 640.573 232.462 638.414 233.902 635.581L240.177 638.616C237.707 642.887 233.389 647.056 225.566 647.056C215.533 647.056 207.558 639.854 207.558 629.305Z" fill="white"/>
<path d="M244.569 612.121H268.852V618.395H251.873V625.859H268.492V632.135H251.873V640.11H268.852V646.439H244.569V612.121Z" fill="white"/>
<path d="M283.064 634.194H294.436L288.778 618.451L283.064 634.194ZM296.443 640.519H281.112L278.949 646.44H270.924L284.198 612.121H293.357L306.578 646.44H298.602L296.443 640.519Z" fill="white"/>
<path d="M309.782 612.121H317.087V640.008H331.6V646.439H309.782V612.121Z" fill="white"/>
<path d="M344.009 623.389V646.44H336.703V612.122H344.212L360.113 634.348V612.122H367.419V646.44H360.37L344.009 623.389Z" fill="white"/>
<path d="M374.226 612.121H398.514V618.395H381.532V625.859H398.153V632.135H381.532V640.11H398.514V646.439H374.226V612.121Z" fill="white"/>
<path d="M355.005 336.749L284.365 266.111H355.005V336.749ZM200.887 231.534L347.843 378.489L242.626 483.707L130.247 371.329V290.561L230.401 390.716L254.852 366.265L120.121 231.534H95.6709V385.651L242.626 532.607L389.583 385.651V231.534H200.887Z" fill="white"/>
</g>
<defs>
<clipPath id="clip0_4586_9764">
<rect width="487" height="746" fill="white"/>
</clipPath>
</defs>
</svg>
